<svg height="64" viewBox="0 0 64 64" width="64" xmlns="http://www.w3.org/2000/svg"><g fill="none" fill-rule="evenodd"><path d="m12 7 20 15v36l-20-12z" fill="#d8d8d8"/><path d="m32 22 20-15v39l-20 12z" fill="#d8d8d8"/><path d="m8 11 24 11v36l-24-8z" fill="#b1b1b1"/><path d="m32 22 24-11v39l-24 8z" fill="#b1b1b1"/><path d="m4 13 28 9v36l-28-6z" fill="#d8d8d8"/><path d="m32 22 28-9v39l-28 6z" fill="#d8d8d8"/><path d="m2 16 30 6v37l-30-6z" fill="#507bce"/><path d="m32 22 30-6v37l-30 6z" fill="#325aa6"/><path d="m40 39 15-3v10l-15 3z" fill="#dfcc00"/></g></svg>