<svg fill="none" height="32" viewBox="0 0 32 32" width="32" xmlns="http://www.w3.org/2000/svg" xmlns:xlink="http://www.w3.org/1999/xlink"><filter id="a" color-interpolation-filters="sRGB" filterUnits="userSpaceOnUse" height="7.52726" width="5.1101" x="17.7024" y="13.3007"><feFlood flood-opacity="0" result="BackgroundImageFix"/><feBlend in="SourceGraphic" in2="BackgroundImageFix" mode="normal" result="shape"/><feGaussianBlur result="effect1_foregroundBlur_18_30340" stdDeviation=".5"/></filter><filter id="b" color-interpolation-filters="sRGB" filterUnits="userSpaceOnUse" height="4.16283" width="4.03134" x="24.4107" y="19.4144"><feFlood flood-opacity="0" result="BackgroundImageFix"/><feBlend in="SourceGraphic" in2="BackgroundImageFix" mode="normal" result="shape"/><feGaussianBlur result="effect1_foregroundBlur_18_30340" stdDeviation=".5"/></filter><filter id="c" color-interpolation-filters="sRGB" filterUnits="userSpaceOnUse" height="4.15613" width="3.9375" x="11.1713" y="16.5629"><feFlood flood-opacity="0" result="BackgroundImageFix"/><feBlend in="SourceGraphic" in2="BackgroundImageFix" mode="normal" result="shape"/><feGaussianBlur result="effect1_foregroundBlur_18_30340" stdDeviation=".5"/></filter><filter id="d" color-interpolation-filters="sRGB" filterUnits="userSpaceOnUse" height="4.56879" width="4.2522" x="6.78125" y="20.7118"><feFlood flood-opacity="0" result="BackgroundImageFix"/><feBlend in="SourceGraphic" in2="BackgroundImageFix" mode="normal" result="shape"/><feGaussianBlur result="effect1_foregroundBlur_18_30340" stdDeviation=".5"/></filter><filter id="e" color-interpolation-filters="sRGB" filterUnits="userSpaceOnUse" height="8.17987" width="5.93169" x="3.53315" y="10.8514"><feFlood flood-opacity="0" result="BackgroundImageFix"/><feBlend in="SourceGraphic" in2="BackgroundImageFix" mode="normal" result="shape"/><feGaussianBlur result="effect1_foregroundBlur_18_30340" stdDeviation=".5"/></filter><filter id="f" color-interpolation-filters="sRGB" filterUnits="userSpaceOnUse" height="5.12507" width="13.6563" x="15.125" y="6.37497"><feFlood flood-opacity="0" result="BackgroundImageFix"/><feBlend in="SourceGraphic" in2="BackgroundImageFix" mode="normal" result="shape"/><feGaussianBlur result="effect1_foregroundBlur_18_30340" stdDeviation=".125"/></filter><linearGradient id="g" gradientUnits="userSpaceOnUse" x1="10.5" x2="15.9687" y1="4.125" y2="8.5"><stop offset="0" stop-color="#70d9ea"/><stop offset="1" stop-color="#70def1"/></linearGradient><linearGradient id="h" gradientUnits="userSpaceOnUse" x1="20.8437" x2="20.4687" y1="10.5" y2="9.4375"><stop offset=".175385" stop-color="#85f6ff"/><stop offset=".73" stop-color="#85f6ff" stop-opacity="0"/></linearGradient><linearGradient id="i" gradientUnits="userSpaceOnUse" x1="8.875" x2="9.3125" y1="9.6875" y2="8.4375"><stop offset=".175385" stop-color="#4cbfe2"/><stop offset=".73" stop-color="#60cae4" stop-opacity="0"/></linearGradient><radialGradient id="j" cx="0" cy="0" gradientTransform="matrix(.12500129 .57812455 -1.07477386 .23238611 16.3281 11.9062)" gradientUnits="userSpaceOnUse" r="1"><stop offset=".560841" stop-color="#83f3fe"/><stop offset="1" stop-color="#82f3fe" stop-opacity="0"/></radialGradient><linearGradient id="k" gradientUnits="userSpaceOnUse" x1="9.4375" x2="9.71875" y1="4.4375" y2="5.1875"><stop offset="0" stop-color="#66c5d6"/><stop offset="1" stop-color="#78d5e6" stop-opacity="0"/></linearGradient><linearGradient id="l" gradientUnits="userSpaceOnUse" x1="9.4375" x2="9.71875" y1="4.4375" y2="5.1875"><stop offset="0" stop-color="#70c0ce"/><stop offset=".31701" stop-color="#6dd1e1" stop-opacity="0"/></linearGradient><linearGradient id="m" gradientUnits="userSpaceOnUse" x1="18.375" x2="27.875" y1="12" y2="25.625"><stop offset="0" stop-color="#57e1ff"/><stop offset="1" stop-color="#3fc0ff"/></linearGradient><linearGradient id="n" gradientUnits="userSpaceOnUse" x1="24.375" x2="23.875" y1="27.2187" y2="25.875"><stop offset="0" stop-color="#4aa3ff"/><stop offset="1" stop-color="#3caeff" stop-opacity="0"/></linearGradient><linearGradient id="o" gradientUnits="userSpaceOnUse" x1="16.0296" x2="18.625" y1="23.375" y2="23.375"><stop offset="0" stop-color="#48abff"/><stop offset="1" stop-color="#45c3ff" stop-opacity="0"/></linearGradient><linearGradient id="p" gradientUnits="userSpaceOnUse" x1="22.0625" x2="22.5" y1="9.75" y2="11"><stop offset=".13363" stop-color="#86f7ff"/><stop offset=".801782" stop-color="#86f7ff" stop-opacity="0"/></linearGradient><linearGradient id="q" gradientUnits="userSpaceOnUse" x1="3.1875" x2="14.625" y1="8.75" y2="27.3125"><stop offset="0" stop-color="#51b0d9"/><stop offset=".755337" stop-color="#458ef3"/></linearGradient><linearGradient id="r" gradientUnits="userSpaceOnUse" x1="13.375" x2="16.0296" y1="24.125" y2="24.125"><stop offset=".659241" stop-color="#41a1ff" stop-opacity="0"/><stop offset="1" stop-color="#49acff"/></linearGradient><linearGradient id="s" gradientUnits="userSpaceOnUse" x1="9.02091" x2="8.4375" y1="9.0625" y2="10.6875"><stop offset=".306861" stop-color="#4cbfe2"/><stop offset="1" stop-color="#4abde1" stop-opacity="0"/></linearGradient><radialGradient id="t" cx="0" cy="0" gradientTransform="matrix(-.93750425 .49999203 -.51723411 -.96983381 16.375 11.9375)" gradientUnits="userSpaceOnUse" r="1"><stop offset=".422145" stop-color="#86f8ff"/><stop offset="1" stop-color="#85f6ff" stop-opacity="0"/></radialGradient><radialGradient id="u" cx="0" cy="0" gradientTransform="matrix(.62500085 2.88425994 -1.83523646 .39768411 19.8125 18.9282)" gradientUnits="userSpaceOnUse" r="1"><stop offset="0" stop-color="#67c9ff"/><stop offset="1" stop-color="#62c9ff" stop-opacity="0"/></radialGradient><radialGradient id="v" cx="0" cy="0" gradientTransform="matrix(0 4.34375 -.972881 0 21.0469 13.6719)" gradientUnits="userSpaceOnUse" r="1"><stop offset=".233813" stop-color="#b0ffff"/><stop offset=".798561" stop-color="#b1ffff" stop-opacity="0"/></radialGradient><radialGradient id="w" cx="0" cy="0" gradientTransform="matrix(1.09374894 3.18749768 -1.16875766 .4010442 21.75 14.5625)" gradientUnits="userSpaceOnUse" r="1"><stop offset="0" stop-color="#b0ffff"/><stop offset="1" stop-color="#affeff" stop-opacity="0"/></radialGradient><radialGradient id="x" cx="0" cy="0" gradientTransform="matrix(.13441927 1.07587538 -1.02269881 .12777542 26.6758 20.8625)" gradientUnits="userSpaceOnUse" r="1"><stop offset="0" stop-color="#5adbff"/><stop offset="1" stop-color="#51e5ff"/></radialGradient><radialGradient id="y" cx="0" cy="0" gradientTransform="matrix(.17187524 .40938898 -.79451088 .33356235 27.125 20.4531)" gradientUnits="userSpaceOnUse" r="1"><stop offset="0" stop-color="#8cf5ff"/><stop offset="1" stop-color="#78edff" stop-opacity="0"/></radialGradient><linearGradient id="z"><stop offset="0" stop-color="#59aff3"/><stop offset=".462442" stop-color="#52a7f3"/><stop offset=".800673" stop-color="#64aef1"/></linearGradient><radialGradient id="A" cx="0" cy="0" gradientTransform="matrix(-.5312362 1.64062606 -1.87566173 -.60734096 13.0937 18.5156)" gradientUnits="userSpaceOnUse" r="1" xlink:href="#z"/><linearGradient id="B"><stop offset=".227059" stop-color="#82c6ff"/><stop offset="1" stop-color="#83c6ff" stop-opacity="0"/></linearGradient><radialGradient id="C" cx="0" cy="0" gradientTransform="matrix(-.29687662 .20312349 -.18252739 -.26677424 13.2031 18.4375)" gradientUnits="userSpaceOnUse" r="1" xlink:href="#B"/><radialGradient id="D" cx="0" cy="0" gradientTransform="matrix(-.61753068 1.95463088 -2.19028965 -.69198285 8.84692 22.9271)" gradientUnits="userSpaceOnUse" r="1" xlink:href="#z"/><radialGradient id="E" cx="0" cy="0" gradientTransform="matrix(-.34509635 .24199829 -.21935044 -.31279988 8.97406 22.834)" gradientUnits="userSpaceOnUse" r="1" xlink:href="#B"/><radialGradient id="F" cx="0" cy="0" gradientTransform="matrix(-.37041123 4.81249603 -3.05913197 -.2354572 6.1875 14.0625)" gradientUnits="userSpaceOnUse" r="1"><stop offset=".448718" stop-color="#73abee" stop-opacity="0"/><stop offset=".846154" stop-color="#70afe2"/></radialGradient><radialGradient id="G" cx="0" cy="0" gradientTransform="matrix(0 3.4375 -2.57211 0 5.81709 13.75)" gradientUnits="userSpaceOnUse" r="1"><stop offset=".404762" stop-color="#73b3e4"/><stop offset="1" stop-color="#6fb0e0" stop-opacity="0"/></radialGradient><radialGradient id="H" cx="0" cy="0" gradientTransform="matrix(.21875052 2.71875388 -.62040904 .04991802 6.4375 12.6875)" gradientUnits="userSpaceOnUse" r="1"><stop offset="0" stop-color="#a1d0f5"/><stop offset="1" stop-color="#8dc1ea" stop-opacity="0"/></radialGradient><path d="m2.01562 23.9688v-15.89068c0-1.03125.78125-1.32812 1.26563-1.53124.48437-.20313 11.66565-4.26563 12.01565-4.39063s1.0521-.05208 1.3593 0c3.849 1.39063 11.7063 4.24375 12.3438 4.53125s.901 1.04688.9531 1.39063v15.76567c0 .725-.5469 1.3593-.8437 1.4687l-12.5938 4.6406c-.2625.0875-.7447.1105-1.0468 0-3.6771-1.3437-11.2563-4.1125-12.1563-4.4375-1-.3593-1.33854-1.2031-1.29688-1.5468z" fill="#52c3e4"/><path d="m16.6563 2.15625c3.8489 1.39063 11.9687 4.37501 12.3437 4.53125.375.15625.531.42232.6719.60938l-13.6719 4.84372-13.73438-4.93748c.27138-.32399.72663-.53505 1.01563-.65624.48437-.20313 11.66565-4.26563 12.01565-4.39063s1.0521-.05208 1.3594 0z" fill="url(#g)"/><path d="m16.6563 2.15625c3.8489 1.39063 11.9687 4.37501 12.3437 4.53125.375.15625.531.42232.6719.60938l-13.6719 4.84372-13.73438-4.93748c.27138-.32399.72663-.53505 1.01563-.65624.48437-.20313 11.66565-4.26563 12.01565-4.39063s1.0521-.05208 1.3594 0z" fill="url(#h)"/><path d="m16.6563 2.15625c3.8489 1.39063 11.9687 4.37501 12.3437 4.53125.375.15625.531.42232.6719.60938l-13.6719 4.84372-13.73438-4.93748c.27138-.32399.72663-.53505 1.01563-.65624.48437-.20313 11.66565-4.26563 12.01565-4.39063s1.0521-.05208 1.3594 0z" fill="url(#i)"/><path d="m16.6563 2.15625c3.8489 1.39063 11.9687 4.37501 12.3437 4.53125.375.15625.531.42232.6719.60938l-13.6719 4.84372-13.73438-4.93748c.27138-.32399.72663-.53505 1.01563-.65624.48437-.20313 11.66565-4.26563 12.01565-4.39063s1.0521-.05208 1.3594 0z" fill="url(#j)"/><path d="m16.6563 2.15625c3.8489 1.39063 11.9687 4.37501 12.3437 4.53125.375.15625.531.42232.6719.60938l-13.6719 4.84372-13.73438-4.93748c.27138-.32399.72663-.53505 1.01563-.65624.48437-.20313 11.66565-4.26563 12.01565-4.39063s1.0521-.05208 1.3594 0z" fill="url(#k)"/><path d="m16.6563 2.15625c3.8489 1.39063 11.9687 4.37501 12.3437 4.53125.375.15625.531.42232.6719.60938l-13.6719 4.84372-13.73438-4.93748c.27138-.32399.72663-.53505 1.01563-.65624.48437-.20313 11.66565-4.26563 12.01565-4.39063s1.0521-.05208 1.3594 0z" fill="url(#l)"/><path d="m29.1094 25.3125-12.5938 4.6406c-.1261.0421-.3029.0692-.486.0738l.0016-18.0191 13.6003-4.75269c.1947.30016.3216.60427.3216.82302v15.76567c0 .725-.5469 1.3593-.8437 1.4687z" fill="url(#m)"/><path d="m29.1094 25.3125-12.5938 4.6406c-.1261.0421-.3029.0692-.486.0738l.0016-18.0191 13.6003-4.75269c.1947.30016.3216.60427.3216.82302v15.76567c0 .725-.5469 1.3593-.8437 1.4687z" fill="url(#n)"/><path d="m29.1094 25.3125-12.5938 4.6406c-.1261.0421-.3029.0692-.486.0738l.0016-18.0191 13.6003-4.75269c.1947.30016.3216.60427.3216.82302v15.76567c0 .725-.5469 1.3593-.8437 1.4687z" fill="url(#o)"/><path d="m29.1094 25.3125-12.5938 4.6406c-.1261.0421-.3029.0692-.486.0738l.0016-18.0191 13.6003-4.75269c.1947.30016.3216.60427.3216.82302v15.76567c0 .725-.5469 1.3593-.8437 1.4687z" fill="url(#p)"/><path d="m2.01562 23.9688v-15.89068c0-.41391.12586-.70952.30787-.92824 0 0 10.42561 3.94142 13.70611 4.84232v18.0347c-.1982.005-.4038-.0164-.5608-.0738-3.6771-1.3437-11.2563-4.1125-12.1563-4.4375-1-.3593-1.33854-1.2031-1.29688-1.5468z" fill="url(#q)"/><path d="m2.01562 23.9688v-15.89068c0-.41391.12586-.70952.30787-.92824 0 0 10.42561 3.94142 13.70611 4.84232v18.0347c-.1982.005-.4038-.0164-.5608-.0738-3.6771-1.3437-11.2563-4.1125-12.1563-4.4375-1-.3593-1.33854-1.2031-1.29688-1.5468z" fill="url(#r)"/><path d="m2.01562 23.9688v-15.89068c0-.41391.12586-.70952.30787-.92824 0 0 10.42561 3.94142 13.70611 4.84232v18.0347c-.1982.005-.4038-.0164-.5608-.0738-3.6771-1.3437-11.2563-4.1125-12.1563-4.4375-1-.3593-1.33854-1.2031-1.29688-1.5468z" fill="url(#s)"/><path d="m2.01562 23.9688v-15.89068c0-.41391.12586-.70952.30787-.92824 0 0 10.42561 3.94142 13.70611 4.84232v18.0347c-.1982.005-.4038-.0164-.5608-.0738-3.6771-1.3437-11.2563-4.1125-12.1563-4.4375-1-.3593-1.33854-1.2031-1.29688-1.5468z" fill="url(#t)"/><g filter="url(#a)"><path d="m20.1514 14.381c.7345.8106 1.4587 2.1725 1.6329 3.2141.3494 2.088-2.658 3.0766-3.0191 1.3437-.2832-1.3593.4488-3.3566 1.0501-4.5078.0875-.1673.2538-.1616.3361-.05z" fill="#78dcff"/><path d="m20.1514 14.381c.7345.8106 1.4587 2.1725 1.6329 3.2141.3494 2.088-2.658 3.0766-3.0191 1.3437-.2832-1.3593.4488-3.3566 1.0501-4.5078.0875-.1673.2538-.1616.3361-.05z" fill="#39b3ff"/></g><path d="m20.6534 13.4812c.8307.8106 1.6495 2.1725 1.8466 3.2141.395 2.0881-3.0057 3.0766-3.4141 1.3438-.3203-1.3594.5075-3.3567 1.1875-4.5079.0989-.1673.287-.1616.38-.05z" fill="#78dcff"/><path d="m20.6534 13.4812c.8307.8106 1.6495 2.1725 1.8466 3.2141.395 2.0881-3.0057 3.0766-3.4141 1.3438-.3203-1.3594.5075-3.3567 1.1875-4.5079.0989-.1673.287-.1616.38-.05z" fill="url(#u)"/><path d="m20.6534 13.4812c.8307.8106 1.6495 2.1725 1.8466 3.2141.395 2.0881-3.0057 3.0766-3.4141 1.3438-.3203-1.3594.5075-3.3567 1.1875-4.5079.0989-.1673.287-.1616.38-.05z" fill="url(#v)"/><path d="m20.6534 13.4812c.8307.8106 1.6495 2.1725 1.8466 3.2141.395 2.0881-3.0057 3.0766-3.4141 1.3438-.3203-1.3594.5075-3.3567 1.1875-4.5079.0989-.1673.287-.1616.38-.05z" fill="url(#w)"/><g filter="url(#b)"><path d="m26.2546 20.4196c1.3281-.1172 1.631 1.796.4531 2.1172-.5457.1488-1.2244-.1233-1.289-.6406-.0744-.5954.3879-1.4371.8359-1.4766z" fill="#33b4ff"/></g><path d="m26.5234 19.7891c1.3282-.1172 1.631 1.796.4532 2.1171-.5458.1489-1.2245-.1233-1.2891-.6406-.0744-.5954.3879-1.437.8359-1.4765z" fill="url(#x)"/><path d="m26.5234 19.7891c1.3282-.1172 1.631 1.796.4532 2.1171-.5458.1489-1.2245-.1233-1.2891-.6406-.0744-.5954.3879-1.437.8359-1.4765z" fill="url(#y)"/><g filter="url(#c)"><path d="m12.1719 18.7504c.025-.7375.6093-1.1875.9219-1.1875 1.3593.1563 1.099 1.9423.6718 2.1094-.3594.1406-1.625 0-1.5937-.9219z" fill="#268be7"/></g><path d="m11.7969 18.8594c.025-.7375.6093-1.1875.9219-1.1875 1.3593.1562 1.099 1.9422.6718 2.1094-.3594.1406-1.625 0-1.5937-.9219z" fill="url(#A)"/><path d="m11.7969 18.8594c.025-.7375.6093-1.1875.9219-1.1875 1.3593.1562 1.099 1.9422.6718 2.1094-.3594.1406-1.625 0-1.5937-.9219z" fill="url(#C)"/><g filter="url(#d)"><path d="m7.81751 23.3368c-.2125-1.0125.5625-1.625.9375-1.625 1.48439 0 1.46239 2.1762 1 2.4375-.46235.2613-1.725.2-1.9375-.8125z" fill="#1d89e4"/></g><path d="m7.375 23.5469c-.2125-1.0125.5625-1.625.9375-1.625 1.48438 0 1.46235 2.1761 1 2.4375-.46235.2613-1.725.2-1.9375-.8125z" fill="url(#D)"/><path d="m7.375 23.5469c-.2125-1.0125.5625-1.625.9375-1.625 1.48438 0 1.46235 2.1761 1 2.4375-.46235.2613-1.725.2-1.9375-.8125z" fill="url(#E)"/><g filter="url(#e)"><path d="m4.54297 16c-.1125-1.3125.76432-3.2344 1.47265-4.0313.20313-.164.33887-.1629.53125.0469.51563.5625 1.91797 3.0938 1.91797 4.6563 0 1.1881-1.01562 1.3594-1.53125 1.3594-.85937 0-2.27812-.7188-2.39062-2.0313z" fill="#39e"/></g><path d="m3.85938 16c-.1125-1.3125 1.27604-3.2344 1.98437-4.0312.20313-.1641.33887-.163.53125.0468.51562.5625 1.40625 3.0938 1.40625 4.6563 0 1.1881-1.01563 1.3593-1.53125 1.3594-.85938 0-2.27812-.7188-2.39062-2.0313z" fill="#63a9ed"/><path d="m3.85938 16c-.1125-1.3125 1.27604-3.2344 1.98437-4.0312.20313-.1641.33887-.163.53125.0468.51562.5625 1.40625 3.0938 1.40625 4.6563 0 1.1881-1.01563 1.3593-1.53125 1.3594-.85938 0-2.27812-.7188-2.39062-2.0313z" fill="url(#F)"/><path d="m3.85938 16c-.1125-1.3125 1.27604-3.2344 1.98437-4.0312.20313-.1641.33887-.163.53125.0468.51562.5625 1.40625 3.0938 1.40625 4.6563 0 1.1881-1.01563 1.3593-1.53125 1.3594-.85938 0-2.27812-.7188-2.39062-2.0313z" fill="url(#G)"/><path d="m3.85938 16c-.1125-1.3125 1.27604-3.2344 1.98437-4.0312.20313-.1641.33887-.163.53125.0468.51562.5625 1.40625 3.0938 1.40625 4.6563 0 1.1881-1.01563 1.3593-1.53125 1.3594-.85938 0-2.27812-.7188-2.39062-2.0313z" fill="url(#H)"/><g filter="url(#f)"><path d="m28.4062 6.75-12.9062 4.375" stroke="#73e7ff" stroke-linecap="round" stroke-width=".25"/></g></svg>