<svg height="480" viewBox="0 0 380 480" width="380" xmlns="http://www.w3.org/2000/svg"><g fill="none" fill-rule="evenodd" transform="translate(28 2)"><g transform="matrix(.96592583 -.25881905 .25881905 .96592583 47.525587 38.279848)"><path d="m8.94989243 37.029905c-4.99139768-5.8070396-8.36968003-12.9236466-7.80516706-20.8980092 1.62651904-22.97635909 33.89597573-17.92185284 40.17305313-6.32535984 6.2770774 11.59649304 5.5311974 41.01195924-2.5813658 43.08457594-3.2352791.8265567-10.1273853-1.1981762-17.1419416-5.388751l4.4029022 30.873201h-25.9973733z" fill="#b28b67" transform="translate(58.49409 33.282773)"/><path d="m81.3883575 51.952185c.9951404 13.7395328 3.62755 20.6092992 7.8972287 20.6092992 6.4048931 0 11.8389898-4.03006 14.6493028-4.03006 2.048623 0 1.591229 2.5409746.233294 4.4249267-1.120339 1.5543211-6.5762996 3.0525008-6.5762996 5.4622204s4.3106616.5454524 4.3106616 1.97461c0 2.3640011.757592 6.8087459-3.3820065 6.8087459-4.1894116 0-16.2011965-1.5131913-18.2596911-7.6759923-1.3284922-3.9772914-2.1874579-12.2189834-2.576897-24.7250759-.2541432-.0299322-.5127847-.0453294-.7750544-.0453294-3.5894882 0-6.4993434 2.8841042-6.4993434 6.441827 0 1.8060931.7499071 3.4385861 1.9579435 4.6082833-1.50386 2.1039031-3.1892555 4.3017116-5.1205388 6.5695644-7.2554129-4.3144309-12.6393419-16.9443873-5.5459981-29.0772389 1.9606225-5.9436953 6.3991976-9.1184464 11.6412616-10.5925852 4.246342-1.7605392 8.6544468-1.9590416 12.3755151-.9036142 7.2943242.6201251 13.8078059 2.8246788 15.6537791 4.133909 0 6.844682-1.338096 8.875479-12.7672613 8.6964718-2.8083311 1.470008-4.9672344 4.0013599-7.2158962 7.3200382z" fill="#191847"/></g><g transform="translate(0 218.435876)"><path d="m145.152001 0 53.166404 134.045997 35.658927 113.324592h14.080938l-54.514663-247.370589z" fill="#997659"/><path d="m134.446096 0c-.566146 47.1046838-8.822637 110.523495-10.141745 113.459761-.879406 1.957511-31.2379171 26.850672-91.0755326 74.679484l9.6983383 10.338295c70.6028423-41.007205 107.5378403-64.245483 110.8049923-69.714834 4.900728-8.204026 20.855811-83.6985457 33.665583-128.762706z" fill="#b28b67"/><path d="m2.90101634 27.5159711c-1.21186163 3.2350337-1.81779245 5.6555865-1.81779245 7.2616584 0 1.9533627.32541584 4.8038047.97624752 8.551326h61.09579019c1.5876631-5.2487535.6711719-8.0823866-2.7494735-8.5008994-3.4206453-.4185127-6.2622335-.7963962-8.5247645-1.1336504l-28.3967377-12.6594073c-.5464097-.2435922-1.1868328.00189-1.4304249.5482997-.0041672.0093475-.0082017.0187537-.0121023.0282156l-1.8253205 4.427775c-3.1666229 1.4774709-5.7398328 2.2162064-7.7196296 2.2162064-1.6085379 0-3.82994244-.6496368-6.6642135-1.9489102l.00000592-.000013c-1.08766581-.4986027-2.37359056-.0210728-2.87219331 1.0665931-.02149051.04688-.04130025.0945123-.05939137.1428061z" fill="#e4e4e4" transform="matrix(.64278761 .76604444 -.76604444 .64278761 51.081278 164.758136)"/><path d="m2.90101634 27.5159711c-1.21186163 3.2350337-1.81779245 5.6555865-1.81779245 7.2616584 0 1.9533627.32541584 4.8038047.97624752 8.551326h61.09579019c1.5876631-5.2487535.6711719-8.0823866-2.7494735-8.5008994-3.4206453-.4185127-6.2622335-.7963962-8.5247645-1.1336504l-28.3967377-12.6594073c-.5464097-.2435922-1.1868328.00189-1.4304249.5482997-.0041672.0093475-.0082017.0187537-.0121023.0282156l-1.8253205 4.427775c-3.1666229 1.4774709-5.7398328 2.2162064-7.7196296 2.2162064-1.6085379 0-3.82994244-.6496368-6.6642135-1.9489102l.00000592-.000013c-1.08766581-.4986027-2.37359056-.0210728-2.87219331 1.0665931-.02149051.04688-.04130025.0945123-.05939137.1428061z" fill="#e4e4e4" transform="translate(225.310568 214.729269)"/><path d="m180.898389 235.698164 66.948072-7.237738-49.61649-228.460426h-59.962862z" fill="#69a1ac"/><path d="m47.0768647 171.46022 43.9139418 51.778329c46.2536085-50.322182 73.2195835-83.157414 80.8979245-98.505698 7.67834-15.348283 14.580778-56.9259002 20.707312-124.732851h-67.507357c-3.346624 59.6535976-5.602481 90.8683833-6.767572 93.6443571s-24.9131743 28.7145949-71.2442493 77.8158629z" fill="#89c5cc"/></g><g transform="matrix(.98480775 -.17364818 .17364818 .98480775 7.293799 131.583594)"><path d="m206.658758 99.3936359 34.552969 25.2480111c9.371477 2.516306 17.201043 5.647015 23.488698 9.392128 1.485253 1.346718 3.280321 4.074047-2.879384 3.602696-6.159704-.47135-12.660093-.69148-13.510012 1.39915-.84992 2.09063 2.8776 4.590795 1.159542 7.411603-1.145371 1.880538-6.556567-2.834842-16.233588-14.146142l-34.216503-14.118825zm-132.6659787.8713711 22.636554.08858c-13.9770276 44.897981-21.5225456 68.720569-22.636554 71.467762-2.5065189 6.181187 2.7976121 15.595027 5.0658691 20.653954-7.3876373 3.289463-6.6004766-8.892762-15.9197823-4.578448-8.5062301 3.937906-14.9768981 11.073129-24.8046178 5.038996-1.2082604-.741861-2.532317-3.535103.666771-5.717873 7.9700949-5.438077 19.4554844-14.955691 21.0073414-18.088487 2.1162343-4.272128 6.7777071-27.226956 13.9844186-68.864484z" fill="#b28b67"/><path d="m132.97336 10.3481797 9.191792-2.40897315c37.224897 26.73145955 56.447083 82.66070675 101.533899 109.23500845l-9.112004 13.492205c-74.414085-2.629466-98.762836-70.7707774-101.613687-120.3182403z" fill="#e87613" transform="matrix(.9961947 .08715574 -.08715574 .9961947 6.756814 -16.150864)"/><path d="m97.4901498 122.87921h82.8790312c3.787149 0 3.073533-5.441569 2.526078-8.187414-6.318297-31.6903751-30.982528-65.8510659-30.982528-110.961517l-23.906214-3.730279c-19.773511 31.6450688-26.611533 70.6065558-30.5163672 122.87921z" fill="#dde3e9"/><path d="m98.1561606 31.1056416c-3.4720776-.9931336-6.2216036-3.3094312-8.248578-6.9488929-8.7377637-15.68878039-5.5821483-24.32661604 3.75575-27.1659214 9.3378984-2.83930535 17.6653484 3.0091727 32.5431164 3.0091727.809227 0 1.550387.05048022 2.223481.15144065l7.48389.42494902c21.472096 72.41299283 27.393972 120.72581433 17.765628 144.93846433h-65.2322526c-3.8649417 8.967888-7.5633646 16.513102-11.0952689 22.635644h-17.7746127c-1.6728409-53.822074 11.1867748-99.5036927 38.5788468-137.0448564z" fill="#ff9b21"/><path d="m102.651959 108.325175c2.051542 17.08063 5.385984 29.47719 10.003325 37.189679h-24.2080886c4.5083464-10.46079 9.2432675-22.85735 14.2047636-37.18968z" fill="#000" fill-opacity=".1"/></g></g></svg>