<?xml version="1.0" encoding="UTF-8" standalone="no"?>
<!-- Created using Krita: https://krita.org -->

<svg
   width="5.7600002pt"
   height="5.7600002pt"
   viewBox="0 0 5.76 5.76"
   version="1.1"
   id="svg1"
   xmlns="http://www.w3.org/2000/svg"
   xmlns:svg="http://www.w3.org/2000/svg">
  <defs
     id="defs1" />
  <path
     id="shape0"
     fill="none"
     stroke-opacity="0"
     stroke="#000000"
     stroke-width="0"
     stroke-linecap="square"
     stroke-linejoin="bevel"
     d="M 0,0 H 5.76 V 5.76 H 0 Z" />
  <path
     id="shape1"
     fill="#22d3ee"
     stroke-opacity="0"
     stroke="#000000"
     stroke-width="0"
     stroke-linecap="square"
     stroke-linejoin="bevel"
     d="M 1.56,5.04 H 0.72 C 0.588,5.04 0.48,4.932 0.48,4.8 V 2.4 C 0.48,2.268 0.588,2.16 0.72,2.16 H 1.56 C 1.692,2.16 1.8,2.268 1.8,2.4 V 4.8 C 1.8,4.932 1.692,5.04 1.56,5.04 Z M 3.3,0.72 H 2.46 C 2.328,0.72 2.22,0.828 2.22,0.96 V 4.8 c 0,0.132 0.108,0.24 0.24,0.24 H 3.3 C 3.432,5.04 3.54,4.932 3.54,4.8 V 0.96 C 3.54,0.828 3.432,0.72 3.3,0.72 Z M 5.04,2.64 H 4.2 C 4.068,2.64 3.96,2.748 3.96,2.88 V 4.8 c 0,0.132 0.108,0.24 0.24,0.24 H 5.04 C 5.172,5.04 5.28,4.932 5.28,4.8 V 2.88 C 5.28,2.748 5.172,2.64 5.04,2.64 Z"
     style="fill:#7dd8e2;fill-opacity:1" />
</svg>
