<?xml version="1.0" encoding="UTF-8" standalone="no"?>
<!-- Created using Krita: https://krita.org -->

<svg
   width="5.7600002pt"
   height="5.7600002pt"
   viewBox="0 0 5.76 5.76"
   version="1.1"
   id="svg1"
   sodipodi:docname="learn.svg"
   xmlns:inkscape="http://www.inkscape.org/namespaces/inkscape"
   xmlns:sodipodi="http://sodipodi.sourceforge.net/DTD/sodipodi-0.dtd"
   xmlns="http://www.w3.org/2000/svg"
   xmlns:svg="http://www.w3.org/2000/svg">
  <sodipodi:namedview
     id="namedview1"
     pagecolor="#505050"
     bordercolor="#eeeeee"
     borderopacity="1"
     inkscape:showpageshadow="0"
     inkscape:pageopacity="0"
     inkscape:pagecheckerboard="0"
     inkscape:deskcolor="#505050"
     inkscape:document-units="pt">
    <inkscape:page
       x="0"
       y="0"
       width="5.7600002"
       height="5.7600002"
       id="page2"
       margin="0"
       bleed="0" />
  </sodipodi:namedview>
  <defs
     id="defs1" />
  <path
     id="shape0"
     fill="none"
     stroke-opacity="0"
     stroke="#000000"
     stroke-width="0"
     stroke-linecap="square"
     stroke-linejoin="bevel"
     d="M 0,0 H 5.76 V 5.76 H 0 Z"
     sodipodi:nodetypes="ccccc" />
  <path
     id="shape1"
     fill="#22d3ee"
     stroke-opacity="0"
     stroke="#000000"
     stroke-width="0"
     stroke-linecap="square"
     stroke-linejoin="bevel"
     d="m 2.3999995,4.56 v -1.2 h 0.960012 v 1.2 c 0,0.132 0.108,0.24 0.24,0.24 h 0.72 c 0.132,0 0.24,-0.108 0.24,-0.24 V 2.88 h 0.408 c 0.1104,0 0.1632,-0.1368 0.0792,-0.2088 L 3.0407995,0.864 c -0.0912,-0.0816 -0.2304,-0.0816 -0.3216,0 L 0.71280001,2.6712 c -0.0816,0.072 -0.0312,0.2088 0.0792,0.2088 H 1.1999995 v 1.68 c 0,0.132 0.108,0.24 0.24,0.24 h 0.72 c 0.132,0 0.24,-0.108 0.24,-0.24 z"
     sodipodi:nodetypes="ccccccccccccccccccc"
     style="fill:#7dd8e2;fill-opacity:1" />
</svg>
