<?xml version="1.0" encoding="UTF-8" standalone="no"?>
<svg
   version="1.1"
   viewBox="0 0 1000 666"
   width="1000"
   height="666"
   id="svg89"
   xmlns="http://www.w3.org/2000/svg"
   xmlns:svg="http://www.w3.org/2000/svg">
  <defs
     id="defs89" />
  <path
     fill="#39a9a8"
     d="m 583.79,187.96 q -10.58,-14.2 -14.26,-36.68 c -4.1,-25.08 -0.29,-57.99 19.44,-76.55 q 9.65,-9.08 22.9,-13.39 9.95,-3.24 18.15,-4.27 c 5.64,-0.72 16.02,-2 24.67,-2.24 q 28.18,-0.77 44.19,-0.2 14.31,0.51 27.1,2.49 c 26.91,4.19 47.05,17.73 54.7,45.24 q 6.79,24.41 2.76,48.72 -1.02,6.17 -1.4,8.24 -1.74,9.4 -7.83,20.67 c -8.43,15.61 -23.9,25.91 -40.88,30.82 q -9.82,2.83 -19.33,3.91 -28.37,3.22 -54.75,1.16 -13.69,-1.07 -15.98,-1.27 -14.79,-1.31 -27.69,-5.29 a 5.02,5.02 0 0 0 -4.06,0.49 q -10.07,6.04 -21.28,7.85 -3.87,0.62 -7.77,-0.19 c -5.37,-1.11 -7.92,-5.36 -5.47,-10.51 q 1.94,-4.09 5.22,-10.99 1.63,-3.41 1.99,-6.39 a 2.24,2.29 29.9 0 0 -0.42,-1.62 z m 0.41,22.15 c 8.93,0.44 17.67,-2.89 25.33,-7.82 1.67,-1.08 3.85,-1.75 5.59,-1.19 q 14.27,4.63 33.13,6.24 28.54,2.43 57.26,0.33 c 23.05,-1.69 47.2,-7.92 60.6,-28.59 q 7.04,-10.86 9.53,-25.45 0.99,-5.81 1.4,-15.87 c 1.02,-25.1 -4.3,-53.32 -28.72,-65.85 -9.83,-5.05 -21.94,-6.88 -34.07,-8.21 q -5.97,-0.66 -10.28,-0.84 -26.59,-1.1 -52.68,0.04 -5.32,0.23 -11.56,0.89 c -23.44,2.46 -45.25,8.02 -56.23,31.17 -4.87,10.27 -7.26,21.88 -7.58,32.63 -0.64,21.26 2.14,39.96 14.98,57.45 1.53,2.1 1.74,3.02 1,5.63 q -2.78,9.8 -8.02,18.86 a 0.39,0.39 0 0 0 0.32,0.58 z"
     id="path53" />
  <path
     fill="#f3f3e8"
     d="m 584.2,210.11 a 0.39,0.39 0 0 1 -0.32,-0.58 q 5.24,-9.06 8.02,-18.86 c 0.74,-2.61 0.53,-3.53 -1,-5.63 -12.84,-17.49 -15.62,-36.19 -14.98,-57.45 0.32,-10.75 2.71,-22.36 7.58,-32.63 10.98,-23.15 32.79,-28.71 56.23,-31.17 q 6.24,-0.66 11.56,-0.89 26.09,-1.14 52.68,-0.04 4.31,0.18 10.28,0.84 c 12.13,1.33 24.24,3.16 34.07,8.21 24.42,12.53 29.74,40.75 28.72,65.85 q -0.41,10.06 -1.4,15.87 -2.49,14.59 -9.53,25.45 c -13.4,20.67 -37.55,26.9 -60.6,28.59 q -28.72,2.1 -57.26,-0.33 -18.86,-1.61 -33.13,-6.24 c -1.74,-0.56 -3.92,0.11 -5.59,1.19 -7.66,4.93 -16.4,8.26 -25.33,7.82 z m 81.14,-91.04 v -11.62 a 4.54,4.54 0 0 0 -4.54,-4.54 h -0.41 a 4.76,4.75 0 0 0 -4.76,4.75 v 40.88 a 4.63,4.63 0 0 0 4.43,4.63 l 0.35,0.02 a 4.72,4.71 1.3 0 0 4.93,-4.71 v -18.61 a 0.78,0.77 89.6 0 1 0.76,-0.78 c 1.45,0 3.6,0.26 5.07,-0.34 3.03,-1.24 3.86,-4.88 1.84,-7.38 -1.72,-2.12 -4.2,-1.57 -6.96,-1.58 a 0.72,0.72 0 0 1 -0.71,-0.72 z m 60.62,1.76 q -4.28,0.06 -9.19,-0.02 c -4.7,-0.07 -5.91,4.92 -2.34,7.42 q 1.17,0.83 3.87,0.78 6.87,-0.11 7.8,-0.06 a 0.38,0.38 0 0 1 0.36,0.38 v 8.4 a 4.13,4.12 0 0 0 4.13,4.12 h 0.5 a 4.74,4.73 0 0 0 4.74,-4.73 q 0.02,-26.04 0.08,-28.34 c 0.14,-5.25 -5.56,-7.69 -8.96,-3.73 a 1.54,1.53 65.5 0 0 -0.37,1 v 2.39 a 0.64,0.64 0 0 1 -0.64,0.64 h -10.49 a 4.13,4.14 2.8 0 0 -4.11,3.74 l -0.06,0.6 a 3.59,3.58 2.8 0 0 3.57,3.93 h 11.2 a 0.41,0.41 0 0 1 0.41,0.41 v 2.57 a 0.5,0.5 0 0 1 -0.5,0.5 z m -31.59,9.29 v -21.67 a 4.13,4.13 0 0 0 -4.13,-4.13 h -0.67 a 4.69,4.69 0 0 0 -4.69,4.68 q -0.02,10.29 0.02,19.75 c 0.02,5.43 0.32,8.94 5.3,11.05 q 1.42,0.6 9.77,0.56 14.55,-0.07 15.35,-0.1 a 4.04,4.05 89.1 0 0 3.89,-4.01 l 0.02,-0.39 a 3.72,3.71 1.7 0 0 -3.71,-3.93 h -19.34 a 1.81,1.81 0 0 1 -1.81,-1.81 z m -46.9824,-8.689 a 16.24,16.24 0 0 0 -15.8963,-16.5766 l -5.7787,-0.121 a 16.24,16.24 0 0 0 -16.5766,15.8963 l -0.0636,3.0393 a 16.24,16.24 0 0 0 15.8963,16.5766 l 5.7787,0.121 A 16.24,16.24 0 0 0 647.324,124.4703 Z M 693.84,157.16 c -0.01,6.5 4.6,10.67 10.69,12.36 q 3.95,1.1 10.01,1.1 6.06,0.01 10.02,-1.09 c 6.09,-1.67 10.71,-5.83 10.71,-12.33 0.01,-6.5 -4.6,-10.67 -10.69,-12.36 q -3.95,-1.1 -10.01,-1.1 -6.06,-0.01 -10.02,1.08 c -6.09,1.68 -10.71,5.84 -10.71,12.34 z m -27.41,7.25 a 4.31,4.31 0 0 0 -4.31,-4.23 h -28.43 a 2.09,2.09 0 0 1 -2.09,-2.09 v -8.01 a 4.39,4.38 0.1 0 0 -4.38,-4.38 h -1.2 a 4.32,4.33 1.4 0 0 -4.28,4.08 c -0.24,4.35 -1.06,12.88 1.8,15.84 2.64,2.75 6.2,3.38 9.71,3.38 q 28.64,0.01 29.21,0 a 4.1,4.1 0 0 0 3.97,-4.29 z"
     id="path54" />
  <path
     fill="#075c75"
     d="m 666.05,119.79 c 2.76,0.01 5.24,-0.54 6.96,1.58 2.02,2.5 1.19,6.14 -1.84,7.38 -1.47,0.6 -3.62,0.34 -5.07,0.34 a 0.78,0.77 89.6 0 0 -0.76,0.78 v 18.61 a 4.72,4.71 1.3 0 1 -4.93,4.71 l -0.35,-0.02 a 4.63,4.63 0 0 1 -4.43,-4.63 v -40.88 a 4.76,4.75 0 0 1 4.76,-4.75 h 0.41 a 4.54,4.54 0 0 1 4.54,4.54 v 11.62 a 0.72,0.72 0 0 0 0.71,0.72 z"
     id="path55" />
  <path
     fill="#075c75"
     d="m 725.96,120.83 a 0.5,0.5 0 0 0 0.5,-0.5 v -2.57 a 0.41,0.41 0 0 0 -0.41,-0.41 h -11.2 a 3.59,3.58 2.8 0 1 -3.57,-3.93 l 0.06,-0.6 a 4.13,4.14 2.8 0 1 4.11,-3.74 h 10.49 a 0.64,0.64 0 0 0 0.64,-0.64 v -2.39 a 1.54,1.53 65.5 0 1 0.37,-1 c 3.4,-3.96 9.1,-1.52 8.96,3.73 q -0.06,2.3 -0.08,28.34 a 4.74,4.73 0 0 1 -4.74,4.73 h -0.5 a 4.13,4.12 0 0 1 -4.13,-4.12 v -8.4 a 0.38,0.38 0 0 0 -0.36,-0.38 q -0.93,-0.05 -7.8,0.06 -2.7,0.05 -3.87,-0.78 c -3.57,-2.5 -2.36,-7.49 2.34,-7.42 q 4.91,0.08 9.19,0.02 z"
     id="path56" />
  <path
     fill="#075c75"
     d="m 694.37,130.12 a 1.81,1.81 0 0 0 1.81,1.81 h 19.34 a 3.72,3.71 1.7 0 1 3.71,3.93 l -0.02,0.39 a 4.04,4.05 89.1 0 1 -3.89,4.01 q -0.8,0.03 -15.35,0.1 -8.35,0.04 -9.77,-0.56 c -4.98,-2.11 -5.28,-5.62 -5.3,-11.05 q -0.04,-9.46 -0.02,-19.75 a 4.69,4.69 0 0 1 4.69,-4.68 h 0.67 a 4.13,4.13 0 0 1 4.13,4.13 z"
     id="path57" />
  <path
     fill="#075c75"
     d="m 647.324,124.4703 a 16.24,16.24 0 0 1 -16.5766,15.8963 l -5.7787,-0.121 A 16.24,16.24 0 0 1 609.0724,123.669 l 0.0636,-3.0393 a 16.24,16.24 0 0 1 16.5766,-15.8963 l 5.7787,0.121 a 16.24,16.24 0 0 1 15.8963,16.5766 z M 637.96,122.55 a 9.67,9.67 0 0 0 -9.67,-9.67 9.67,9.67 0 0 0 -9.67,9.67 9.67,9.67 0 0 0 9.67,9.67 9.67,9.67 0 0 0 9.67,-9.67 z"
     id="path58" />
  <circle
     fill="#f3f3e8"
     cx="628.28998"
     cy="122.55"
     r="9.6700001"
     id="circle58" />
  <path
     fill="#084a61"
     d="m 475.02,422.23 q 4.64,-0.31 6.12,-0.37 18.49,-0.75 31.32,9.97 c 8.11,6.77 3.3,14.07 -3.33,19.76 -19.69,16.91 -46.55,19.01 -69.45,7.22 a 2.96,2.94 43.4 0 0 -2.85,0.07 q -28.57,16.74 -62.11,18.93 -48.52,3.17 -89.85,-23.43 -30.41,-19.57 -49.85,-49.54 a 1.24,1.24 0 0 0 -1.26,-0.54 c -6.23,1.13 -21.48,3.48 -20.44,-7.81 0.47,-4.99 2.9,-8.63 5.74,-13.42 a 3.42,3.42 0 0 0 0.25,-3 q -10.58,-27.33 -12.96,-56.59 -0.64,-7.92 -0.56,-27.48 0.01,-1.6 -1.44,-3.35 c -8.01,-9.69 -17.42,-15.52 -30.52,-15.55 -7.09,-0.01 -14.39,0.04 -14.55,-9.19 -0.19,-10.81 9.18,-24.5 16.04,-32.26 q 18.61,-21.05 46.57,-24.68 a 0.99,1 8.7 0 0 0.78,-0.58 q 8.74,-19.52 21.83,-36.13 20.01,-25.38 49.9,-37.11 c 15,-5.9 32.1,-9.76 48.58,-9.5 q 19.08,0.3 37.31,5.6 8.14,2.36 18.41,7.67 c 24.71,12.78 41.89,34.72 48.51,61.76 1.88,7.66 2.78,17.95 2.91,25.65 a 0.55,0.56 85.8 0 0 0.63,0.54 c 14.01,-1.71 31.38,1.81 36.1,17.34 2.37,7.79 -0.95,16.89 -6.39,22.52 -12.34,12.75 -30.84,20.03 -48.25,23.34 a 0.71,0.72 75.7 0 0 -0.55,0.92 c 7.56,23.51 -2.73,47 -29.18,49.98 q -6.06,0.69 -12.83,0.07 a 0.92,0.91 15 0 0 -0.9,0.51 c -8.03,16.37 -11.94,36.28 -8.7,54.12 4.26,23.43 23.35,33.48 45.49,30.78 a 0.9,0.89 85.7 0 0 0.78,-0.91 q -0.44,-12.15 2.46,-23.72 c 4.35,-17.42 16.28,-36.2 33.69,-42.84 11.59,-4.43 19.02,8.39 19.77,18.06 q 1.73,22.13 -7.59,42.66 a 0.38,0.38 0 0 0 0.37,0.53 z M 303.33,320.17 q 1.14,9.91 -0.74,17.41 -1.29,5.17 -2.6,10.05 -1.91,3.48 -3.7,6.87 c -11.1,21.03 -31.57,36.93 -52.93,46.41 a 0.75,0.75 0 0 0 -0.32,1.1 c 19.8,29.5 50.4,53.33 84.31,62.8 29.24,8.17 60.35,6.38 88.91,-4.82 7.19,-2.82 14.04,-6.67 20.71,-10 a 3.78,3.8 46.1 0 1 3.5,0.06 c 17.6,9.61 35.04,11.71 53.25,2.42 q 8.8,-4.48 14.14,-10.62 1.6,-1.84 -0.11,-3.3 c -5.72,-4.9 -12.27,-7.84 -20.14,-8.43 q -14.15,-1.08 -26.2,5.55 a 1.71,1.8 66.1 0 1 -2.54,-0.91 c -0.79,-2.4 1.99,-5.71 4.16,-9.18 q 8.28,-13.29 11.06,-30.31 c 1.24,-7.58 1.03,-18.46 -3.41,-25.32 -2.06,-3.18 -5.25,-1.49 -8.26,-0.01 q -8.14,4.02 -14.62,12.39 c -10.6,13.68 -14.14,31.19 -13.65,48.62 0.1,3.53 -3.72,4.98 -6.65,5.33 q -2.61,0.32 -4.51,0.63 c -21.5,1.41 -41.77,-8.38 -48.62,-29.76 q -4.03,-12.57 -3.27,-25.91 1.16,-20.2 9.43,-38.95 1.9,-4.32 2.99,-6.3 c 0.95,-1.73 2.42,-2.09 4.24,-1.85 q 6.08,0.82 10.48,0.84 c 10.63,0.06 21.19,-5.05 25.3,-14.93 3.53,-8.5 2.52,-16.7 0.07,-25.51 -0.65,-2.34 -3.27,-1.97 -4.34,-0.44 q -0.56,0.8 -0.35,3.03 0.3,3.19 0.32,3.47 c 1.76,19.23 -15.95,26.52 -31.77,20.21 -18.56,-7.4 -32.7,-23.62 -38.63,-42.43 q -1.04,-3.3 -1.05,-8.06 0.72,-5.31 5.8,-6.92 2.78,-0.88 4.31,0.73 7.93,8.37 15.2,11.81 10.97,5.17 22.89,6.87 15.31,2.18 29.97,0.68 19.06,-1.95 38.16,-12.37 c 9.12,-4.97 21.25,-18.78 10.64,-28.79 -4.49,-4.24 -10.42,-5.41 -17.01,-5.37 -11.62,0.07 -22.26,2.67 -33.17,6.33 -2.59,0.87 -4.61,1.3 -7.74,2.06 -2.68,0.65 -5.29,0.39 -6.12,-2.35 a 2.39,2.68 69 0 1 1.53,-2.97 q 13.85,-6.3 28.16,-9.33 a 0.83,0.83 0 0 0 0.66,-0.76 q 0.98,-16.07 -4.23,-31.83 -9.55,-28.93 -35.53,-45.45 c -15.52,-9.87 -33.25,-15.01 -51.76,-15.86 -11.62,-0.53 -22.68,-0.06 -34,2.77 q -43.23,10.78 -68.62,45.5 c -9.62,13.15 -17.14,27.52 -22.12,43 q -6.68,20.73 -8.99,41.44 -0.58,5.28 -1.23,12.99 -0.73,8.79 -0.75,13.01 -0.11,24.95 2.31,40.62 2.53,16.44 7.94,33.02 0.36,1.12 0.68,1.7 a 0.48,0.48 0 0 0 0.86,-0.04 q 18.18,-39.88 22.48,-48.69 c 1.13,-2.32 4.96,-9.27 7.74,-8.57 3.44,0.86 2.56,4.88 1.09,7.17 q -3.53,5.51 -5.95,11.28 -6,14.3 -11.96,28.57 -6.56,15.69 -13.8,26.93 -2.28,3.54 -4.41,7.5 a 1.59,1.58 23.7 0 0 0.88,2.25 q 0.55,0.2 2.04,0.13 6.64,-0.27 13.66,-2.99 c 14.06,-5.44 27.2,-14.41 37.51,-24.32 q 14.04,-13.5 20.35,-32.73 c 2.24,-6.82 2.96,-13.32 2.71,-20.33 a 1.36,1.35 1.5 0 1 1.48,-1.4 q 2.01,0.18 3.88,4.56 z m -97.09,-38.53 c 1.36,-20.69 5.25,-41.23 12.51,-60.95 a 0.48,0.48 0 0 0 -0.45,-0.64 q -1.72,-0.01 -3.18,0.35 -24.17,5.96 -38.84,26.69 c -3.8,5.36 -8.41,13.12 -9.28,20.16 a 1.96,1.96 0 0 0 1.91,2.19 q 5.9,0.1 9.09,0.27 16.31,0.87 27.84,12.09 a 0.24,0.24 0 0 0 0.4,-0.16 z m 156.83,8.15 a 0.33,0.33 0 0 0 -0.2,0.51 c 7.79,11.59 19,21.37 32.59,24.51 q 3.14,0.72 5.98,0.2 a 1.64,1.63 84.5 0 0 1.33,-1.62 q -0.02,-1.74 -0.85,-3.76 -6.47,-15.75 -23.1,-19.65 -8.17,-1.92 -15.75,-0.19 z"
     id="path59" />
  <path
     fill="#2b94a0"
     d="m 347.79,270.32 q -2.43,0.45 -4.89,0.77 -7.27,0.96 -13.08,3.82 c -13.17,6.49 -21.83,21.59 -24.67,35.65 q -0.92,4.52 -1.82,9.61 -1.87,-4.38 -3.88,-4.56 a 1.36,1.35 1.5 0 0 -1.48,1.4 c 0.25,7.01 -0.47,13.51 -2.71,20.33 q -6.31,19.23 -20.35,32.73 c -10.31,9.91 -23.45,18.88 -37.51,24.32 q -7.02,2.72 -13.66,2.99 -1.49,0.07 -2.04,-0.13 A 1.59,1.58 23.7 0 1 220.82,395 q 2.13,-3.96 4.41,-7.5 7.24,-11.24 13.8,-26.93 5.96,-14.27 11.96,-28.57 2.42,-5.77 5.95,-11.28 c 1.47,-2.29 2.35,-6.31 -1.09,-7.17 -2.78,-0.7 -6.61,6.25 -7.74,8.57 q -4.3,8.81 -22.48,48.69 a 0.48,0.48 0 0 1 -0.86,0.04 q -0.32,-0.58 -0.68,-1.7 -5.41,-16.58 -7.94,-33.02 -2.42,-15.67 -2.31,-40.62 0.02,-4.22 0.75,-13.01 0.65,-7.71 1.23,-12.99 2.31,-20.71 8.99,-41.44 c 4.98,-15.48 12.5,-29.85 22.12,-43 q 25.39,-34.72 68.62,-45.5 c 11.32,-2.83 22.38,-3.3 34,-2.77 18.51,0.85 36.24,5.99 51.76,15.86 q 25.98,16.52 35.53,45.45 5.21,15.76 4.23,31.83 a 0.83,0.83 0 0 1 -0.66,0.76 q -14.31,3.03 -28.16,9.33 a 2.39,2.68 69 0 0 -1.53,2.97 c 0.83,2.74 3.44,3 6.12,2.35 3.13,-0.76 5.15,-1.19 7.74,-2.06 10.91,-3.66 21.55,-6.26 33.17,-6.33 6.59,-0.04 12.52,1.13 17.01,5.37 10.61,10.01 -1.52,23.82 -10.64,28.79 q -19.1,10.42 -38.16,12.37 -14.66,1.5 -29.97,-0.68 -11.92,-1.7 -22.89,-6.87 -7.27,-3.44 -15.2,-11.81 -1.53,-1.61 -4.31,-0.73 -5.08,1.61 -5.8,6.92 z m -7.72,-81.27 q 2.64,-2.99 0.3,-5.29 a 2.55,2.46 77.4 0 0 -0.85,-0.56 q -3,-1.24 -6.49,-0.94 -8.32,0.71 -13.87,6.41 -3.22,3.31 -3.26,6.44 c -0.03,2.93 1.36,5.1 4.45,3.82 a 2.1,2.12 6.4 0 0 0.87,-0.7 c 2.24,-3.14 5.15,-6.11 8.82,-7.44 2.55,-0.93 4.82,-0.77 8.04,-0.82 a 2.71,2.7 20.1 0 0 1.99,-0.92 z m 3.5,25.83 q -5.06,0.25 -8.57,3.32 -11.12,9.7 -6.85,25.16 1.14,4.15 5.45,7.54 c 7.92,6.23 18.11,1.04 23.73,-5.47 4.2,-4.88 5.61,-11.12 3.65,-17.13 -2.44,-7.5 -9.23,-13.83 -17.41,-13.42 z"
     id="path60" />
  <path
     fill="#075c75"
     d="m 714.57,143.74 q 6.06,0 10.01,1.1 c 6.09,1.69 10.7,5.86 10.69,12.36 0,6.5 -4.62,10.66 -10.71,12.33 q -3.96,1.1 -10.02,1.09 -6.06,0 -10.01,-1.1 c -6.09,-1.69 -10.7,-5.86 -10.69,-12.36 0,-6.5 4.62,-10.66 10.71,-12.34 q 3.96,-1.09 10.02,-1.08 z m -10.82,13.4 a 10.91,5.33 0 0 0 10.91,5.33 10.91,5.33 0 0 0 10.91,-5.33 10.91,5.33 0 0 0 -10.91,-5.33 10.91,5.33 0 0 0 -10.91,5.33 z"
     id="path61" />
  <path
     fill="#075c75"
     d="m 666.43,164.41 v 0.3 a 4.1,4.1 0 0 1 -3.97,4.29 q -0.57,0.01 -29.21,0 c -3.51,0 -7.07,-0.63 -9.71,-3.38 -2.86,-2.96 -2.04,-11.49 -1.8,-15.84 a 4.32,4.33 1.4 0 1 4.28,-4.08 h 1.2 a 4.39,4.38 0.1 0 1 4.38,4.38 v 8.01 a 2.09,2.09 0 0 0 2.09,2.09 h 28.43 a 4.31,4.31 0 0 1 4.31,4.23 z"
     id="path62" />
  <ellipse
     fill="#f3f3e8"
     cx="-714.65997"
     cy="-157.14"
     transform="scale(-1)"
     rx="10.91"
     ry="5.3299999"
     id="ellipse62" />
  <path
     fill="#084a61"
     d="m 340.07,189.05 a 2.71,2.7 20.1 0 1 -1.99,0.92 c -3.22,0.05 -5.49,-0.11 -8.04,0.82 -3.67,1.33 -6.58,4.3 -8.82,7.44 a 2.1,2.12 6.4 0 1 -0.87,0.7 c -3.09,1.28 -4.48,-0.89 -4.45,-3.82 q 0.04,-3.13 3.26,-6.44 5.55,-5.7 13.87,-6.41 3.49,-0.3 6.49,0.94 a 2.55,2.46 77.4 0 1 0.85,0.56 q 2.34,2.3 -0.3,5.29 z"
     id="path63" />
  <path
     fill="#084a61"
     d="m 533.68,290.9 c -1.79,2.84 -4.57,4.98 -7.87,2.74 -3.99,-2.72 -2.54,-5.58 -0.04,-9.11 q 7.45,-10.51 8.99,-23.76 c 2.54,-21.92 -2.88,-42.34 -19.46,-57.13 -3.01,-2.69 -9.07,-5.16 -7.01,-10.1 2.63,-6.34 8.26,-1.74 11.8,1.41 q 18.9,16.83 23.41,41.79 c 3.35,18.46 0.18,38.31 -9.82,54.16 z"
     id="path64" />
  <path
     fill="#084a61"
     d="m 518.21,241.88 c 2.53,12.26 0.28,24.39 -5.98,35.12 -2.21,3.8 -5.7,7.13 -9.56,2.3 -2.62,-3.27 1.57,-7.74 2.81,-9.99 4.23,-7.7 5.22,-16.63 3.39,-25.49 -1.84,-8.86 -6.29,-16.67 -13.23,-22.06 -2.03,-1.57 -7.65,-4.01 -6.54,-8.06 1.63,-5.96 6.15,-4.29 9.69,-1.68 10,7.36 16.88,17.61 19.42,29.86 z"
     id="path65" />
  <path
     fill="#084a61"
     d="m 343.57,214.88 c 8.18,-0.41 14.97,5.92 17.41,13.42 1.96,6.01 0.55,12.25 -3.65,17.13 -5.62,6.51 -15.81,11.7 -23.73,5.47 q -4.31,-3.39 -5.45,-7.54 -4.27,-15.46 6.85,-25.16 3.51,-3.07 8.57,-3.32 z m 10.6,14.3 a 5.89,5.89 0 0 0 -5.89,-5.89 5.89,5.89 0 0 0 -5.89,5.89 5.89,5.89 0 0 0 5.89,5.89 5.89,5.89 0 0 0 5.89,-5.89 z"
     id="path66" />
  <path
     fill="#2b94a0"
     d="m 206.24,281.64 a 0.24,0.24 0 0 1 -0.4,0.16 Q 194.31,270.58 178,269.71 q -3.19,-0.17 -9.09,-0.27 A 1.96,1.96 0 0 1 167,267.25 c 0.87,-7.04 5.48,-14.8 9.28,-20.16 q 14.67,-20.73 38.84,-26.69 1.46,-0.36 3.18,-0.35 a 0.48,0.48 0 0 1 0.45,0.64 c -7.26,19.72 -11.15,40.26 -12.51,60.95 z"
     id="path67" />
  <circle
     fill="#f3f3e8"
     cx="348.28"
     cy="229.17999"
     r="5.8899999"
     id="circle67" />
  <path
     fill="#39a9a8"
     d="M 684.64,369.42 Q 669.86,357.05 664.51,338 q -2.41,-8.57 -3.06,-16.89 c -1.94,-24.89 3.12,-55.88 24.4,-72.04 11.51,-8.74 25.74,-13.17 39.66,-15.03 7.48,-1 16.75,-1.89 24.26,-2.16 q 28.22,-1.01 57.23,0.05 4.95,0.18 11.59,0.78 c 8.95,0.81 12.6,0.96 19.72,2.15 14.38,2.42 28.92,6.48 39.99,16.28 14.4,12.77 20.23,31.85 20.69,51.35 q 0.31,13.13 -0.87,23.44 -0.25,2.22 -2.2,10.06 -3.94,15.87 -15.68,28.18 c -11.9,12.46 -28.55,18.35 -45.12,21.42 -6.34,1.17 -17.63,2.35 -25.53,2.36 -5.22,0.01 -12.09,0.49 -18.8,0.49 q -10.53,-0.01 -34.62,-0.48 c -12.31,-0.24 -22.52,-1.37 -33.55,-2.75 a 3.26,3.24 31.2 0 0 -2.23,0.54 c -10.7,7.24 -22.66,12.38 -36.14,11.37 q -4.3,-0.32 -6.4,-1.95 c -5.45,-4.23 -2.29,-9.51 1.48,-14.85 q 3.28,-4.63 5.7,-8.5 a 1.85,1.85 0 0 0 -0.39,-2.4 z m -1.06,19.61 q 2.43,0.56 5.79,0.34 c 11.96,-0.75 20.79,-5.33 30.35,-11.6 a 3.55,3.6 33 0 1 2.45,-0.54 q 5.71,0.82 17.02,1.89 9.18,0.87 17.12,1.06 26.45,0.63 53.77,-0.03 c 7.08,-0.17 11.91,-0.94 20.52,-1.81 q 8.05,-0.81 18.34,-4.04 c 22.09,-6.93 36.9,-21.88 41.07,-45.47 q 3.52,-19.88 0.05,-40.45 c -3.22,-19.14 -13.79,-33.93 -32.23,-40.75 q -12.62,-4.66 -28.59,-6.08 -52.74,-4.69 -99.98,0 c -18.98,1.88 -37.85,7.83 -48.93,23.94 -10.9,15.86 -12.35,36.46 -11.34,54.99 0.84,15.5 6.08,28.8 17.16,40.13 q 0.62,0.63 6.09,5.32 c 1.71,1.47 2.06,2.62 1.28,4.59 -2.38,6.09 -6.6,11.77 -10.29,17.67 a 0.56,0.56 0 0 0 0.35,0.84 z"
     id="path68" />
  <path
     fill="#f3f3e8"
     d="m 683.58,389.03 a 0.56,0.56 0 0 1 -0.35,-0.84 c 3.69,-5.9 7.91,-11.58 10.29,-17.67 0.78,-1.97 0.43,-3.12 -1.28,-4.59 q -5.47,-4.69 -6.09,-5.32 c -11.08,-11.33 -16.32,-24.63 -17.16,-40.13 -1.01,-18.53 0.44,-39.13 11.34,-54.99 11.08,-16.11 29.95,-22.06 48.93,-23.94 q 47.24,-4.69 99.98,0 15.97,1.42 28.59,6.08 c 18.44,6.82 29.01,21.61 32.23,40.75 q 3.47,20.57 -0.05,40.45 c -4.17,23.59 -18.98,38.54 -41.07,45.47 q -10.29,3.23 -18.34,4.04 c -8.61,0.87 -13.44,1.64 -20.52,1.81 q -27.32,0.66 -53.77,0.03 -7.94,-0.19 -17.12,-1.06 -11.31,-1.07 -17.02,-1.89 a 3.55,3.6 33 0 0 -2.45,0.54 c -9.56,6.27 -18.39,10.85 -30.35,11.6 q -3.36,0.22 -5.79,-0.34 z m 128.14,-86.36 q -1.64,6.64 -4.87,11.38 -0.58,0.86 0,3.77 a 1.48,1.5 12.9 0 0 0.55,0.89 c 2.23,1.77 3.97,0.96 5.91,-1.06 q 4.75,-4.95 11.94,-4.87 c 3.76,0.05 6.82,2.16 5.69,6.19 -1.39,4.92 -11.29,4.48 -14.88,3.68 a 1.69,1.66 34.6 0 0 -1.26,0.22 q -1.99,1.29 -1.75,3.59 a 2.09,2.05 24.2 0 0 0.39,1 c 3.24,4.4 11.21,2.61 15.74,1.22 7.33,-2.24 11.25,-9.51 7.4,-16.4 -3.61,-6.45 -12.09,-7.58 -18.57,-4.89 a 0.46,0.46 0 0 1 -0.61,-0.57 l 1.39,-4.44 a 1.62,1.63 8.8 0 1 1.55,-1.14 h 14.11 a 2.79,2.79 0 0 0 2.79,-2.79 v -1.05 a 2.65,2.65 0 0 0 -2.65,-2.65 h -13.85 a 0.62,0.61 5.4 0 1 -0.61,-0.73 l 0.68,-3.54 a 2.74,2.75 10.9 0 0 -2.17,-3.21 l -0.55,-0.11 a 3.06,3.07 8.9 0 0 -3.62,2.64 l -0.55,4.4 a 0.98,0.98 0 0 1 -0.97,0.87 h -7.49 a 3.18,3.17 0 0 0 -3.18,3.17 v 0.49 a 3.26,3.26 0 0 0 3.26,3.26 h 5.65 a 0.55,0.55 0 0 1 0.53,0.68 z m 63.51,20.25 c 2.64,2.64 8.02,2.9 6.79,-2.47 q -0.23,-1.01 -3.08,-2.89 -3.09,-2.04 -3.69,-2.53 a 1.38,1.41 17.7 0 1 -0.51,-1.02 l -0.42,-9.59 a 0.59,0.6 87.6 0 1 0.58,-0.62 l 4.98,-0.14 a 1.04,1.06 28.5 0 0 0.52,-0.16 q 2.7,-1.61 1.91,-4.1 -0.75,-2.38 -2.36,-2.46 -3.04,-0.15 -4.81,-0.04 a 0.7,0.71 88.5 0 1 -0.75,-0.7 v -4.73 a 2.85,2.85 0 0 0 -2.85,-2.85 h -0.56 a 2.7,2.71 0 0 0 -2.7,2.71 v 4.99 a 0.63,0.63 0 0 1 -0.63,0.63 h -9.54 a 3.24,3.24 0 0 0 -3.24,3.24 v 0.58 a 3.12,3.13 0 0 0 3.12,3.13 h 9.95 a 0.27,0.27 0 0 1 0.27,0.27 v 7.64 a 0.15,0.15 0 0 1 -0.19,0.15 c -8.43,-2.11 -14.67,2.94 -12.52,11.85 1.87,7.76 16.22,8.09 18.53,0.73 0.15,-0.48 0.23,-1.27 0.35,-1.49 a 0.53,0.54 36.9 0 1 0.85,-0.13 z M 732.58,307.61 A 0.42,0.42 0 0 1 732.1,307 l 7.94,-13.76 a 2.49,2.5 21 0 0 -1.64,-3.69 l -0.44,-0.09 a 4.28,4.27 21.2 0 0 -4.74,2.09 q -8.04,14.63 -15.23,32.44 a 3.61,3.61 0 0 0 1.95,4.68 l 0.16,0.07 a 3.81,3.8 23.8 0 0 4.94,-1.91 c 2.22,-4.78 5.87,-12.69 8.83,-13.54 5.53,-1.58 2.71,10.31 4.63,13.15 2.42,3.57 7.36,3.57 10.99,2.23 4.71,-1.73 7.42,-6.8 7.23,-11.78 a 1.97,1.96 4 0 0 -1.62,-1.86 q -2.32,-0.42 -3.45,0.35 a 1.85,1.79 85.1 0 0 -0.65,0.8 c -0.92,2.24 -2.35,6.58 -5.13,6.46 q -1.44,-0.07 -1.71,-2.04 -0.37,-2.74 -0.45,-5.65 c -0.22,-7.18 -4.37,-9.43 -11.13,-7.34 z m 111.26,2.31 q 0.03,5.41 1.04,12.63 0.6,4.23 2.01,6.04 c 2.18,2.8 6.57,0.41 5.71,-2.74 q -2.06,-7.56 -2.1,-15.96 -0.05,-8.4 1.94,-15.98 c 0.83,-3.15 -3.59,-5.5 -5.73,-2.68 q -1.4,1.83 -1.95,6.06 -0.94,7.23 -0.92,12.63 z m -82.87,0.41 q -0.03,5.42 0.91,12.67 0.55,4.25 1.95,6.08 c 2.15,2.83 6.58,0.48 5.75,-2.69 q -1.99,-7.6 -1.94,-16.02 0.05,-8.43 2.11,-16.01 c 0.87,-3.16 -3.53,-5.55 -5.71,-2.75 q -1.42,1.82 -2.03,6.06 -1.01,7.24 -1.04,12.66 z m -50.2596,-13.8318 a 3.16,3.16 0 0 0 -3.0988,-3.22 l -20.5762,-0.3951 a 3.16,3.16 0 0 0 -3.22,3.0987 l -0.006,0.3 a 3.16,3.16 0 0 0 3.0988,3.22 l 20.5762,0.3951 a 3.16,3.16 0 0 0 3.22,-3.0987 z m 86.03,1.192 a 3.02,3.02 0 0 0 -3.0147,-3.0253 l -17.12,-0.0298 a 3.02,3.02 0 0 0 -3.0252,3.0147 l -9e-4,0.5 a 3.02,3.02 0 0 0 3.0147,3.0253 l 17.12,0.0298 a 3.02,3.02 0 0 0 3.0252,-3.0147 z M 712.53,324.03 a 3.03,3.03 0 0 0 -3.51,-2.82 q -9.99,1.63 -17.62,0.76 -1.92,-0.22 -3.17,-2.66 a 1.43,1.41 39.4 0 1 -0.11,-1.06 l 0.95,-3.39 a 1.89,1.91 49 0 0 0.06,-0.77 c -0.43,-3.19 -4.43,-3.71 -6.01,-0.68 -2.93,5.6 -1.8,14 5.8,14.94 q 7.85,0.98 20.56,-0.41 a 3.45,3.45 0 0 0 3.07,-3.63 z m 68.12,-4 c -3.23,-2.43 0.55,-5.05 -1.36,-7.38 -2.31,-2.79 -5.01,-0.33 -5.84,2.07 q -0.86,2.5 -0.3,5.94 c 1.48,9.13 16.39,7.33 23.13,6.04 a 1.84,1.84 0 0 0 1.46,-1.4 c 0.87,-3.65 -0.93,-4.61 -4.46,-4.51 -4.98,0.14 -10.54,0.82 -12.63,-0.76 z"
     id="path69" />
  <path
     fill="#63c8bc"
     d="m 347.79,270.32 q 0.01,4.76 1.05,8.06 c 5.93,18.81 20.07,35.03 38.63,42.43 15.82,6.31 33.53,-0.98 31.77,-20.21 q -0.02,-0.28 -0.32,-3.47 -0.21,-2.23 0.35,-3.03 c 1.07,-1.53 3.69,-1.9 4.34,0.44 2.45,8.81 3.46,17.01 -0.07,25.51 -4.11,9.88 -14.67,14.99 -25.3,14.93 q -4.4,-0.02 -10.48,-0.84 c -1.82,-0.24 -3.29,0.12 -4.24,1.85 q -1.09,1.98 -2.99,6.3 -8.27,18.75 -9.43,38.95 -0.76,13.34 3.27,25.91 c 6.85,21.38 27.12,31.17 48.62,29.76 q -6.62,4.55 -14.05,6.29 c -33.07,7.72 -68,-7.15 -88.42,-33.34 q -16.01,-20.53 -19.36,-47.7 -0.51,-4.17 -1.17,-14.53 1.31,-4.88 2.6,-10.05 1.88,-7.5 0.74,-17.41 0.9,-5.09 1.82,-9.61 c 2.84,-14.06 11.5,-29.16 24.67,-35.65 q 5.81,-2.86 13.08,-3.82 2.46,-0.32 4.89,-0.77 z"
     id="path70" />
  <path
     fill="#075c75"
     d="m 811.19,301.99 h -5.65 a 3.26,3.26 0 0 1 -3.26,-3.26 v -0.49 a 3.18,3.17 0 0 1 3.18,-3.17 h 7.49 a 0.98,0.98 0 0 0 0.97,-0.87 l 0.55,-4.4 a 3.06,3.07 8.9 0 1 3.62,-2.64 l 0.55,0.11 a 2.74,2.75 10.9 0 1 2.17,3.21 l -0.68,3.54 a 0.62,0.61 5.4 0 0 0.61,0.73 h 13.85 a 2.65,2.65 0 0 1 2.65,2.65 v 1.05 a 2.79,2.79 0 0 1 -2.79,2.79 h -14.11 a 1.62,1.63 8.8 0 0 -1.55,1.14 l -1.39,4.44 a 0.46,0.46 0 0 0 0.61,0.57 c 6.48,-2.69 14.96,-1.56 18.57,4.89 3.85,6.89 -0.07,14.16 -7.4,16.4 -4.53,1.39 -12.5,3.18 -15.74,-1.22 a 2.09,2.05 24.2 0 1 -0.39,-1 q -0.24,-2.3 1.75,-3.59 a 1.69,1.66 34.6 0 1 1.26,-0.22 c 3.59,0.8 13.49,1.24 14.88,-3.68 1.13,-4.03 -1.93,-6.14 -5.69,-6.19 q -7.19,-0.08 -11.94,4.87 c -1.94,2.02 -3.68,2.83 -5.91,1.06 a 1.48,1.5 12.9 0 1 -0.55,-0.89 q -0.58,-2.91 0,-3.77 3.23,-4.74 4.87,-11.38 a 0.55,0.55 0 0 0 -0.53,-0.68 z"
     id="path71" />
  <path
     fill="#075c75"
     d="m 874.38,323.05 c -0.12,0.22 -0.2,1.01 -0.35,1.49 -2.31,7.36 -16.66,7.03 -18.53,-0.73 -2.15,-8.91 4.09,-13.96 12.52,-11.85 a 0.15,0.15 0 0 0 0.19,-0.15 v -7.64 a 0.27,0.27 0 0 0 -0.27,-0.27 h -9.95 a 3.12,3.13 0 0 1 -3.12,-3.13 v -0.58 a 3.24,3.24 0 0 1 3.24,-3.24 h 9.54 a 0.63,0.63 0 0 0 0.63,-0.63 v -4.99 a 2.7,2.71 0 0 1 2.7,-2.71 h 0.56 a 2.85,2.85 0 0 1 2.85,2.85 v 4.73 a 0.7,0.71 88.5 0 0 0.75,0.7 q 1.77,-0.11 4.81,0.04 1.61,0.08 2.36,2.46 0.79,2.49 -1.91,4.1 a 1.04,1.06 28.5 0 1 -0.52,0.16 l -4.98,0.14 a 0.59,0.6 87.6 0 0 -0.58,0.62 l 0.42,9.59 a 1.38,1.41 17.7 0 0 0.51,1.02 q 0.6,0.49 3.69,2.53 2.85,1.88 3.08,2.89 c 1.23,5.37 -4.15,5.11 -6.79,2.47 a 0.53,0.54 36.9 0 0 -0.85,0.13 z m -5.7451,-2.8398 a 2.75,3.51 86.9 0 0 -3.6536,-2.5562 2.75,3.51 86.9 0 0 -3.3562,2.9358 2.75,3.51 86.9 0 0 3.6536,2.5562 2.75,3.51 86.9 0 0 3.3562,-2.9358 z"
     id="path72" />
  <path
     fill="#e59b9b"
     d="m 363.07,289.79 q 7.58,-1.73 15.75,0.19 16.63,3.9 23.1,19.65 0.83,2.02 0.85,3.76 a 1.64,1.63 84.5 0 1 -1.33,1.62 q -2.84,0.52 -5.98,-0.2 c -13.59,-3.14 -24.8,-12.92 -32.59,-24.51 a 0.33,0.33 0 0 1 0.2,-0.51 z"
     id="path73" />
  <path
     fill="#075c75"
     d="m 732.58,307.61 c 6.76,-2.09 10.91,0.16 11.13,7.34 q 0.08,2.91 0.45,5.65 0.27,1.97 1.71,2.04 c 2.78,0.12 4.21,-4.22 5.13,-6.46 a 1.85,1.79 85.1 0 1 0.65,-0.8 q 1.13,-0.77 3.45,-0.35 a 1.97,1.96 4 0 1 1.62,1.86 c 0.19,4.98 -2.52,10.05 -7.23,11.78 -3.63,1.34 -8.57,1.34 -10.99,-2.23 -1.92,-2.84 0.9,-14.73 -4.63,-13.15 -2.96,0.85 -6.61,8.76 -8.83,13.54 a 3.81,3.8 23.8 0 1 -4.94,1.91 l -0.16,-0.07 a 3.61,3.61 0 0 1 -1.95,-4.68 q 7.19,-17.81 15.23,-32.44 a 4.28,4.27 21.2 0 1 4.74,-2.09 l 0.44,0.09 a 2.49,2.5 21 0 1 1.64,3.69 L 732.1,307 a 0.42,0.42 0 0 0 0.48,0.61 z"
     id="path74" />
  <path
     fill="#075c75"
     d="m 843.84,309.92 q -0.02,-5.4 0.92,-12.63 0.55,-4.23 1.95,-6.06 c 2.14,-2.82 6.56,-0.47 5.73,2.68 q -1.99,7.58 -1.94,15.98 0.04,8.4 2.1,15.96 c 0.86,3.15 -3.53,5.54 -5.71,2.74 q -1.41,-1.81 -2.01,-6.04 -1.01,-7.22 -1.04,-12.63 z"
     id="path75" />
  <path
     fill="#075c75"
     d="m 767.64,310.37 q -0.05,8.42 1.94,16.02 c 0.83,3.17 -3.6,5.52 -5.75,2.69 q -1.4,-1.83 -1.95,-6.08 -0.94,-7.25 -0.91,-12.67 0.03,-5.42 1.04,-12.66 0.61,-4.24 2.03,-6.06 c 2.18,-2.8 6.58,-0.41 5.71,2.75 q -2.06,7.58 -2.11,16.01 z"
     id="path76" />
  <rect
     fill="#075c75"
     x="689.3714"
     y="279.63977"
     transform="rotate(1.1)"
     width="26.9"
     height="6.6199999"
     rx="3.1600001"
     id="rect76" />
  <rect
     fill="#075c75"
     x="774.09875"
     y="293.27917"
     transform="rotate(0.1)"
     width="23.16"
     height="6.54"
     rx="3.02"
     id="rect77" />
  <path
     fill="#075c75"
     d="m 712.53,324.03 0.02,0.28 a 3.45,3.45 0 0 1 -3.07,3.63 q -12.71,1.39 -20.56,0.41 c -7.6,-0.94 -8.73,-9.34 -5.8,-14.94 1.58,-3.03 5.58,-2.51 6.01,0.68 a 1.89,1.91 49 0 1 -0.06,0.77 l -0.95,3.39 a 1.43,1.41 39.4 0 0 0.11,1.06 q 1.25,2.44 3.17,2.66 7.63,0.87 17.62,-0.76 a 3.03,3.03 0 0 1 3.51,2.82 z"
     id="path77" />
  <path
     fill="#075c75"
     d="m 780.65,320.03 c 2.09,1.58 7.65,0.9 12.63,0.76 3.53,-0.1 5.33,0.86 4.46,4.51 a 1.84,1.84 0 0 1 -1.46,1.4 c -6.74,1.29 -21.65,3.09 -23.13,-6.04 q -0.56,-3.44 0.3,-5.94 c 0.83,-2.4 3.53,-4.86 5.84,-2.07 1.91,2.33 -1.87,4.95 1.36,7.38 z"
     id="path78" />
  <ellipse
     fill="#f3f3e8"
     cx="846.53717"
     cy="366.71637"
     transform="rotate(-3.1)"
     rx="3.51"
     ry="2.75"
     id="ellipse78" />
  <path
     fill="#2b94a0"
     d="m 299.99,347.63 q 0.66,10.36 1.17,14.53 3.35,27.17 19.36,47.7 c 20.42,26.19 55.35,41.06 88.42,33.34 q 7.43,-1.74 14.05,-6.29 1.9,-0.31 4.51,-0.63 c 2.93,-0.35 6.75,-1.8 6.65,-5.33 -0.49,-17.43 3.05,-34.94 13.65,-48.62 q 6.48,-8.37 14.62,-12.39 c 3.01,-1.48 6.2,-3.17 8.26,0.01 4.44,6.86 4.65,17.74 3.41,25.32 q -2.78,17.02 -11.06,30.31 c -2.17,3.47 -4.95,6.78 -4.16,9.18 a 1.71,1.8 66.1 0 0 2.54,0.91 q 12.05,-6.63 26.2,-5.55 c 7.87,0.59 14.42,3.53 20.14,8.43 q 1.71,1.46 0.11,3.3 -5.34,6.14 -14.14,10.62 c -18.21,9.29 -35.65,7.19 -53.25,-2.42 a 3.78,3.8 46.1 0 0 -3.5,-0.06 c -6.67,3.33 -13.52,7.18 -20.71,10 -28.56,11.2 -59.67,12.99 -88.91,4.82 -33.91,-9.47 -64.51,-33.3 -84.31,-62.8 a 0.75,0.75 0 0 1 0.32,-1.1 c 21.36,-9.48 41.83,-25.38 52.93,-46.41 q 1.79,-3.39 3.7,-6.87 z"
     id="path79" />
  <path
     fill="#39a9a8"
     d="m 743.06,505.31 c 7.97,-7.37 17.5,-11.2 27.95,-12.75 q 20.65,-3.05 43.22,-1.02 9.14,0.82 15.5,2.74 26.13,7.86 31.01,35.26 c 3.15,17.67 0.19,40.91 -14.6,53.05 -9.07,7.45 -20.06,10.71 -31.51,12.04 -16.23,1.88 -32.05,0.77 -48.09,-0.45 a 10.02,10.08 38.3 0 0 -3.93,0.47 q -5.91,1.95 -9.58,2.85 c -5.4,1.33 -19.93,2.73 -18.98,-7.19 0.36,-3.74 3.85,-7.25 5.81,-10.06 a 1.56,1.57 43.5 0 0 -0.04,-1.84 c -12.38,-16.25 -12.54,-40.21 -6.18,-58.76 a 0.19,0.2 70.1 0 0 -0.35,-0.16 q -1.17,1.84 -2.59,3.21 -12.98,12.45 -31.09,16.91 c -7.92,1.95 -13.55,2.56 -24.68,3.75 q -6.59,0.7 -14.38,0.76 -16.66,0.12 -26.31,-0.07 c -6.18,-0.12 -11.6,-0.91 -16.94,-1.3 a 5,5.03 28.9 0 0 -3.33,0.97 q -9.82,7.24 -20.5,10.88 c -4.69,1.6 -13.41,3.12 -17.54,-0.25 -5.96,-4.86 0.16,-13.89 3.41,-18.42 a 0.52,0.52 0 0 0 -0.22,-0.78 c -17.44,-7.26 -27.38,-21.67 -31.4,-40.02 q -4.93,-22.51 1.36,-44.72 6.97,-24.62 30.61,-34.47 c 8.63,-3.59 17.04,-5.32 27.59,-6.86 q 4.66,-0.67 11.46,-0.9 7.67,-0.25 17.76,-0.97 6.01,-0.43 20.99,0.22 7.87,0.35 18.16,0.81 c 6.78,0.3 11.24,1.04 18.31,2.14 17.44,2.69 32.94,10.01 42.91,24.75 11.06,16.34 12.95,37.87 9.69,56.73 q -0.88,5.07 -3.79,13.26 a 0.18,0.18 0 0 0 0.29,0.19 z m -161.35,42.98 c 10.77,0.27 20.6,-4.88 29.15,-11.3 2.11,-1.59 3.89,-2.29 6.39,-1.94 q 9.18,1.3 18,1.5 c 19.4,0.43 37.26,0.55 55.48,-2.6 27.85,-4.8 47.05,-21.09 49.32,-50.44 2.06,-26.51 -5.52,-52.24 -32.49,-61.83 q -11.47,-4.08 -25.06,-5.17 -26.09,-2.1 -48.5,-1.32 c -21.07,0.74 -43.37,1.01 -61.1,12.96 -12.15,8.18 -17.58,21.46 -19.09,35.63 -2.43,22.93 1.48,50.8 24.14,62.53 q 2.76,1.44 8.68,4.04 a 2.47,2.48 18.9 0 1 1.4,2.87 c -1.25,5 -4.96,10.24 -6.86,14.19 a 0.61,0.61 0 0 0 0.54,0.88 z m 160.48,42.27 q 8.15,0.93 16.24,-2.43 4.74,-1.98 7.08,-1.75 c 20.13,1.95 40.63,3.67 59.91,-1.22 26.36,-6.69 31.31,-30.39 28.05,-54.14 -2.73,-19.94 -16.79,-29.52 -35.72,-31.76 q -21.99,-2.6 -43.37,0.13 c -17.52,2.23 -31.2,10.31 -35.49,28.24 q -3.63,15.14 -0.58,30.59 1.91,9.62 8.31,17.27 c 1.6,1.92 1.86,3.74 0.81,5.72 q -2,3.76 -5.58,8.56 a 0.5,0.5 0 0 0 0.34,0.79 z"
     id="path80" />
  <path
     fill="#f3f3e8"
     d="m 581.71,548.29 a 0.61,0.61 0 0 1 -0.54,-0.88 c 1.9,-3.95 5.61,-9.19 6.86,-14.19 a 2.47,2.48 18.9 0 0 -1.4,-2.87 q -5.92,-2.6 -8.68,-4.04 c -22.66,-11.73 -26.57,-39.6 -24.14,-62.53 1.51,-14.17 6.94,-27.45 19.09,-35.63 17.73,-11.95 40.03,-12.22 61.1,-12.96 q 22.41,-0.78 48.5,1.32 13.59,1.09 25.06,5.17 c 26.97,9.59 34.55,35.32 32.49,61.83 -2.27,29.35 -21.47,45.64 -49.32,50.44 -18.22,3.15 -36.08,3.03 -55.48,2.6 q -8.82,-0.2 -18,-1.5 c -2.5,-0.35 -4.28,0.35 -6.39,1.94 -8.55,6.42 -18.38,11.57 -29.15,11.3 z m 31.98,-53 0.23,-42.22 q -2.7,-4.36 -7.42,-1.67 a 2.84,2.85 75.1 0 0 -1.44,2.47 v 15.19 a 0.49,0.5 0 0 1 -0.49,0.5 H 587.4 a 0.54,0.54 0 0 1 -0.54,-0.54 v -13.64 a 4.15,4.15 0 0 0 -4.15,-4.15 h -0.57 a 4.52,4.52 0 0 0 -4.52,4.52 v 38.72 a 4.24,4.23 0 0 0 4.24,4.23 h 0.66 a 4.32,4.32 0 0 0 4.32,-4.32 V 478.5 a 0.53,0.52 0 0 1 0.53,-0.52 h 16.97 a 0.74,0.74 0 0 1 0.74,0.75 q -0.08,4.97 0.07,15.99 c 0.07,5.57 8.02,5.42 8.54,0.57 z m 52.3348,-40.6876 a 3.89,3.89 0 0 0 -3.8968,-3.8832 l -0.98,0.002 a 3.89,3.89 0 0 0 -3.8832,3.8968 l 0.0704,40.3399 a 3.89,3.89 0 0 0 3.8968,3.8832 l 0.98,-0.002 a 3.89,3.89 0 0 0 3.8832,-3.8968 z M 682.11,454.94 a 4.18,4.18 0 0 0 -4.18,-4.18 h -0.8 a 4.18,4.18 0 0 0 -4.18,4.18 v 39.76 a 4.18,4.18 0 0 0 4.18,4.18 h 0.8 a 4.18,4.18 0 0 0 4.18,-4.18 z m -52.42,28.34 h 19.51 a 2.54,2.53 2.1 0 0 2.53,-2.35 c 0.58,-8.21 -3.54,-16.53 -12.49,-17.7 q -12.75,-1.65 -17.82,8.94 c -1.75,3.65 -1.74,10.6 -1.01,14.19 2.42,11.92 15.16,15.21 25.11,10.73 3.26,-1.47 7.87,-6.13 3.87,-9.41 a 2.86,3.05 47.5 0 0 -3.59,-0.04 q -1.38,0.98 -2.88,2.24 c -5.76,4.84 -13.46,1.41 -13.91,-5.88 a 0.67,0.68 88 0 1 0.68,-0.72 z m 90.2392,-5.3464 a 14.82,14.82 0 0 0 -14.8717,-14.7682 l -2.6999,0.009 a 14.82,14.82 0 0 0 -14.7682,14.8717 l 0.0214,6.1399 a 14.82,14.82 0 0 0 14.8717,14.7682 l 2.6999,-0.009 a 14.82,14.82 0 0 0 14.7682,-14.8717 z"
     id="path81" />
  <path
     fill="#075c75"
     d="m 613.92,453.07 q -0.65,0.72 -0.65,2.18 -0.03,19.12 -0.03,38.25 0,1.06 0.45,1.79 c -0.52,4.85 -8.47,5 -8.54,-0.57 Q 605,483.7 605.08,478.73 a 0.74,0.74 0 0 0 -0.74,-0.75 h -16.97 a 0.53,0.52 0 0 0 -0.53,0.52 v 15.88 a 4.32,4.32 0 0 1 -4.32,4.32 h -0.66 a 4.24,4.23 0 0 1 -4.24,-4.23 v -38.72 a 4.52,4.52 0 0 1 4.52,-4.52 h 0.57 a 4.15,4.15 0 0 1 4.15,4.15 v 13.64 a 0.54,0.54 0 0 0 0.54,0.54 h 17.17 a 0.49,0.5 0 0 0 0.49,-0.5 v -15.19 a 2.84,2.85 75.1 0 1 1.44,-2.47 q 4.72,-2.69 7.42,1.67 z"
     id="path82" />
  <rect
     fill="#075c75"
     x="656.47034"
     y="451.87411"
     transform="rotate(-0.1)"
     width="8.7600002"
     height="48.119999"
     rx="3.8900001"
     id="rect82" />
  <rect
     fill="#075c75"
     x="672.95001"
     y="450.76001"
     width="9.1599998"
     height="48.119999"
     rx="4.1799998"
     id="rect83" />
  <path
     fill="#084a61"
     d="m 613.92,453.07 -0.23,42.22 q -0.45,-0.73 -0.45,-1.79 0,-19.13 0.03,-38.25 0,-1.46 0.65,-2.18 z"
     id="path83" />
  <path
     fill="#075c75"
     d="m 629.01,484 c 0.45,7.29 8.15,10.72 13.91,5.88 q 1.5,-1.26 2.88,-2.24 a 2.86,3.05 47.5 0 1 3.59,0.04 c 4,3.28 -0.61,7.94 -3.87,9.41 -9.95,4.48 -22.69,1.19 -25.11,-10.73 -0.73,-3.59 -0.74,-10.54 1.01,-14.19 q 5.07,-10.59 17.82,-8.94 c 8.95,1.17 13.07,9.49 12.49,17.7 a 2.54,2.53 2.1 0 1 -2.53,2.35 h -19.51 a 0.67,0.68 88 0 0 -0.68,0.72 z m 0.6,-6.4 h 12.92 a 0.42,0.42 0 0 0 0.42,-0.42 v -0.16 a 6.82,7.36 0 0 0 -6.82,-7.36 h -0.12 a 6.82,7.36 0 0 0 -6.82,7.36 v 0.16 a 0.42,0.42 0 0 0 0.42,0.42 z"
     id="path84" />
  <path
     fill="#075c75"
     d="m 719.9506,484.0735 a 14.82,14.82 0 0 1 -14.7682,14.8717 l -2.6999,0.009 A 14.82,14.82 0 0 1 687.6108,484.186 l -0.0214,-6.1399 a 14.82,14.82 0 0 1 14.7682,-14.8717 l 2.6999,-0.009 a 14.82,14.82 0 0 1 14.8717,14.7682 z M 703.85,469.82 a 7.49,11.21 0 0 0 -7.49,11.21 7.49,11.21 0 0 0 7.49,11.21 7.49,11.21 0 0 0 7.49,-11.21 7.49,11.21 0 0 0 -7.49,-11.21 z"
     id="path85" />
  <path
     fill="#f3f3e8"
     d="m 629.61,477.6 a 0.42,0.42 0 0 1 -0.42,-0.42 v -0.16 a 6.82,7.36 0 0 1 6.82,-7.36 h 0.12 a 6.82,7.36 0 0 1 6.82,7.36 v 0.16 a 0.42,0.42 0 0 1 -0.42,0.42 z"
     id="path86" />
  <ellipse
     fill="#f3f3e8"
     cx="-481.03"
     cy="703.84998"
     transform="rotate(-90)"
     rx="11.21"
     ry="7.4899998"
     id="ellipse86" />
  <path
     fill="#f3f3e8"
     d="m 742.19,590.56 a 0.5,0.5 0 0 1 -0.34,-0.79 q 3.58,-4.8 5.58,-8.56 c 1.05,-1.98 0.79,-3.8 -0.81,-5.72 q -6.4,-7.65 -8.31,-17.27 -3.05,-15.45 0.58,-30.59 c 4.29,-17.93 17.97,-26.01 35.49,-28.24 q 21.38,-2.73 43.37,-0.13 c 18.93,2.24 32.99,11.82 35.72,31.76 3.26,23.75 -1.69,47.45 -28.05,54.14 -19.28,4.89 -39.78,3.17 -59.91,1.22 q -2.34,-0.23 -7.08,1.75 -8.09,3.36 -16.24,2.43 z m 35.82,-40.63 c -6.44,3.38 -11.68,9.09 -10.76,16.69 0.54,4.45 4.37,3.4 7.46,3.52 a 0.7,0.7 0 0 1 0.66,0.56 l 0.65,3.32 a 2.42,2.42 0 0 0 2.46,1.95 q 5.28,-0.16 8.88,-4.18 4.24,-4.74 5.49,-11.64 a 0.44070965,0.44070965 0 0 1 0.88,0.05 q 0.62,8.8 7.47,13.84 c 3.57,2.63 8.61,3.48 8.87,-2.97 a 1.1,1.1 0 0 1 1.09,-1.06 c 3.71,-0.02 7.28,0.59 7.44,-4.46 0.22,-7.03 -4.32,-13.17 -10.68,-15.94 a 0.27,0.27 0 0 1 0.12,-0.52 c 6.72,0.31 12.42,-0.01 17.04,-5.55 q 1.53,-1.83 1.67,-3.85 0.2,-2.73 -4.52,-3.39 a 0.86,0.86 0 0 1 -0.67,-1.21 c 0.91,-2 2.46,-3.96 0.5,-6.15 q -1.2,-1.34 -3.68,-1.82 -9.54,-1.8 -15.45,5.53 a 0.25,0.25 0 0 1 -0.43,-0.24 c 2.35,-7.07 3.12,-15.11 -2.7,-20.67 q -1.61,-1.53 -3.68,-1.16 a 1.22,1.25 17.6 0 0 -0.67,0.36 l -2.63,2.62 a 0.75,0.74 48.8 0 1 -1.12,-0.08 q -1.38,-1.8 -2.75,-2.59 a 3.29,3.28 40.7 0 0 -3.69,0.27 c -5.3,4.19 -6.6,13.54 -2.84,19.14 q 1.33,1.99 1.34,1.99 a 0.23,0.23 0 0 1 -0.3,0.31 c -1.89,-0.83 -5.3,-4.13 -7.96,-4.85 -4.51,-1.22 -11.72,-1.91 -13.41,3.49 a 1.25,1.25 0 0 0 0.11,0.99 l 1.88,3.26 a 0.58,0.58 0 0 1 -0.41,0.86 c -3.62,0.59 -6.44,2.42 -3.69,6.36 q 4.78,6.84 14.29,6.94 1.68,0.02 3.66,0 a 0.15,0.15 0 0 1 0.08,0.28 z"
     id="path87" />
  <path
     fill="#e59b9b"
     d="m 777.93,549.65 q -1.98,0.02 -3.66,0 -9.51,-0.1 -14.29,-6.94 c -2.75,-3.94 0.07,-5.77 3.69,-6.36 a 0.58,0.58 0 0 0 0.41,-0.86 l -1.88,-3.26 a 1.25,1.25 0 0 1 -0.11,-0.99 c 1.69,-5.4 8.9,-4.71 13.41,-3.49 2.66,0.72 6.07,4.02 7.96,4.85 a 0.23,0.23 0 0 0 0.3,-0.31 q -0.01,0 -1.34,-1.99 c -3.76,-5.6 -2.46,-14.95 2.84,-19.14 a 3.29,3.28 40.7 0 1 3.69,-0.27 q 1.37,0.79 2.75,2.59 a 0.75,0.74 48.8 0 0 1.12,0.08 l 2.63,-2.62 a 1.22,1.25 17.6 0 1 0.67,-0.36 q 2.07,-0.37 3.68,1.16 c 5.82,5.56 5.05,13.6 2.7,20.67 a 0.25,0.25 0 0 0 0.43,0.24 q 5.91,-7.33 15.45,-5.53 2.48,0.48 3.68,1.82 c 1.96,2.19 0.41,4.15 -0.5,6.15 a 0.86,0.86 0 0 0 0.67,1.21 q 4.72,0.66 4.52,3.39 -0.14,2.02 -1.67,3.85 c -4.62,5.54 -10.32,5.86 -17.04,5.55 a 0.27,0.27 0 0 0 -0.12,0.52 c 6.36,2.77 10.9,8.91 10.68,15.94 -0.16,5.05 -3.73,4.44 -7.44,4.46 a 1.1,1.1 0 0 0 -1.09,1.06 c -0.26,6.45 -5.3,5.6 -8.87,2.97 Q 794.35,569 793.73,560.2 a 0.44070965,0.44070965 0 0 0 -0.88,-0.05 q -1.25,6.9 -5.49,11.64 -3.6,4.02 -8.88,4.18 a 2.42,2.42 0 0 1 -2.46,-1.95 l -0.65,-3.32 a 0.7,0.7 0 0 0 -0.66,-0.56 c -3.09,-0.12 -6.92,0.93 -7.46,-3.52 -0.92,-7.6 4.32,-13.31 10.76,-16.69 a 0.15,0.15 0 0 0 -0.08,-0.28 z m 8.3,-10.68 -3.39,-1.46 a 1.63,1.63 0 0 0 -1.08,-0.06 q -4.64,1.35 -3.66,6.56 a 2.65,2.66 0.5 0 0 2.07,2.11 l 2.94,0.62 a 1.59,1.59 0 0 1 0.96,2.49 q -2.33,3.18 1.05,6.46 c 2.52,2.45 5.82,0.14 7.3,-2.25 a 0.81,0.81 0 0 1 1.45,0.13 c 1.1,2.85 3.98,4.38 6.76,2.38 3.47,-2.48 2.72,-4.7 0.7,-7.72 a 1.13,1.14 67.5 0 1 0.73,-1.74 l 3.04,-0.6 a 1.4,1.42 14.6 0 0 0.77,-0.46 c 2.92,-3.53 1.11,-8.55 -3.72,-8.89 a 1.16,1.17 24.4 0 0 -0.92,0.35 l -1.41,1.41 a 1.44,1.44 0 0 1 -2.44,-1.23 c 0.22,-1.46 0.42,-2.56 -0.59,-3.91 q -2.25,-2.98 -5.84,-1.53 -4.05,1.64 -3.09,5.99 a 1.19,1.19 0 0 1 -1.63,1.35 z"
     id="path88" />
  <path
     fill="#f3f3e8"
     d="m 786.23,538.97 a 1.19,1.19 0 0 0 1.63,-1.35 q -0.96,-4.35 3.09,-5.99 3.59,-1.45 5.84,1.53 c 1.01,1.35 0.81,2.45 0.59,3.91 a 1.44,1.44 0 0 0 2.44,1.23 l 1.41,-1.41 a 1.16,1.17 24.4 0 1 0.92,-0.35 c 4.83,0.34 6.64,5.36 3.72,8.89 a 1.4,1.42 14.6 0 1 -0.77,0.46 l -3.04,0.6 a 1.13,1.14 67.5 0 0 -0.73,1.74 c 2.02,3.02 2.77,5.24 -0.7,7.72 -2.78,2 -5.66,0.47 -6.76,-2.38 a 0.81,0.81 0 0 0 -1.45,-0.13 c -1.48,2.39 -4.78,4.7 -7.3,2.25 q -3.38,-3.28 -1.05,-6.46 a 1.59,1.59 0 0 0 -0.96,-2.49 l -2.94,-0.62 a 2.65,2.66 0.5 0 1 -2.07,-2.11 q -0.98,-5.21 3.66,-6.56 a 1.63,1.63 0 0 1 1.08,0.06 z m 8.1988,3.362 a 3.7,3.91 19.4 0 0 -4.7887,2.459 3.7,3.91 19.4 0 0 2.1911,4.917 3.7,3.91 19.4 0 0 4.7887,-2.459 3.7,3.91 19.4 0 0 -2.1911,-4.917 z"
     id="path89" />
  <ellipse
     fill="#e59b9b"
     cx="-251.57149"
     cy="929.46478"
     transform="rotate(-70.6)"
     rx="3.9100001"
     ry="3.7"
     id="ellipse89" />
</svg>
