<?xml version="1.0" encoding="UTF-8" standalone="no"?>
<svg
   version="1.1"
   viewBox="0 0 1000 1000"
   width="1000"
   height="1000"
   id="svg29"
   xmlns="http://www.w3.org/2000/svg"
   xmlns:svg="http://www.w3.org/2000/svg">
  <defs
     id="defs29" />
  <path
     fill="#0f4458"
     d="m 569.65,535.2 a 0.36,0.36 0 0 0 -0.26,0.61 c 13.87,15.31 23.12,34.87 23.9,55.69 0.4,10.71 -3.46,21.56 -15.79,21.29 q -8.79,-0.2 -17.71,-4.86 -16.18,-8.46 -35.71,-19.76 a 0.43,0.43 0 0 0 -0.64,0.32 c -4.68,33.55 3.64,67.32 34.41,85.59 q 12.04,7.15 26.35,9.04 c 22.19,2.94 47.29,-0.76 64.76,-15.1 a 1.04,1.06 64.6 0 0 0.37,-1.01 c -7.7,-40.31 -1.24,-80.89 22.41,-114.49 q 6.36,-9.03 14.04,-17.97 c 6.3,-7.34 16.86,-16.49 27.1,-10.21 9.7,5.93 13.39,21.39 15.03,31.62 3.9,24.36 4.18,47.67 -2.87,70.48 a 0.47,0.47 0 0 0 0.5,0.61 c 3.95,-0.44 9.22,-1.07 13.01,-0.94 q 8.82,0.29 17.92,1.24 16.93,1.76 33.74,-0.42 c 7.23,-0.94 10.19,5.84 9.41,11.85 q -1.32,10.23 -6.5,19.85 c -23.61,43.85 -71.2,67.01 -119.26,47.63 a 1.52,1.51 35.2 0 0 -1.57,0.27 C 614.69,757.54 531.17,772.15 457.9,753.8 Q 387.05,736.06 334.14,685.57 314.66,666.98 300.35,647.05 a 1.11,1.11 0 0 0 -0.92,-0.46 c -6.39,0.09 -18.5,0.69 -22.21,-6.14 -4.24,-7.8 0.2,-16.49 2.59,-24.76 a 1.68,1.68 0 0 0 -0.1,-1.2 C 255.22,564.69 244.66,509.93 247.4,454.55 a 2.5,2.53 28.6 0 0 -0.45,-1.56 c -9.01,-13.01 -21.31,-21.83 -37.94,-18.27 q -4.85,1.04 -9.79,2.54 -5.75,1.74 -9.14,1.19 c -5.76,-0.95 -9.6,-5.01 -9.63,-11.03 -0.08,-16.84 8.51,-35.64 17.96,-49.52 18.16,-26.71 46.7,-48.16 78.77,-54.62 a 1.57,1.56 6.4 0 0 1.11,-0.88 q 24.01,-52.45 68.55,-84.85 30.91,-22.49 66.49,-32.82 c 75.92,-22.03 162.79,-3.92 211.11,62.57 21.13,29.07 30.27,63.26 29.68,99.2 q -0.03,1.64 -0.38,3.13 a 0.63,0.63 0 0 0 0.61,0.78 c 13.54,0.03 26.48,1.52 38.04,8.59 14.98,9.17 21.05,28.01 10.75,42.98 -7.25,10.52 -17.87,18.03 -29.29,23.36 q -19.93,9.31 -41.78,11.95 a 0.48,0.48 0 0 0 -0.34,0.75 q 10.18,14.68 7.47,32.14 c -3.46,22.3 -25.43,36.84 -45.85,41.91 q -11.77,2.92 -23.7,3.11 z M 411.47,495.58 c 3.45,20.48 -1.54,43.81 -9.33,62.82 q -3.33,8.11 -7.05,16.06 -6.63,11.05 -8.87,14.26 c -10.75,15.42 -24.93,28.43 -40.56,39.19 q -12.88,8.86 -27.98,14.1 a 0.62,0.61 61.4 0 0 -0.28,0.96 c 38.37,49.69 94.58,85.53 156.28,97.31 q 70.29,13.41 135.77,-13.37 20.68,-8.46 38.75,-21.71 7.07,-5.19 16.62,-13.11 c 4.49,-3.73 9.36,-3.49 15.26,-1.34 21.09,7.71 40.98,8.33 61.27,-1.6 q 13.88,-6.78 23.18,-17.09 10.36,-11.46 16.35,-24.94 0.57,-1.29 0.78,-2.8 a 0.65,0.65 0 0 0 -0.72,-0.74 c -11.69,1.5 -23.69,-0.57 -34.68,-1.09 q -22.34,-1.06 -40.51,10.91 c -2.65,1.75 -6.33,-0.63 -6.68,-3.42 q -0.22,-1.79 1.32,-5.01 c 1.77,-3.69 5.65,-11.41 7.64,-16.67 9.62,-25.48 9,-54.75 1.91,-80.48 q -1.32,-4.8 -3.27,-8.18 a 1.58,1.58 0 0 0 -2.29,-0.49 q -3.57,2.59 -6.15,5.33 -39.82,42.29 -36.08,99.12 c 0.41,6.15 1.42,13.8 2.33,19.42 1.07,6.67 0.54,11.63 -4.23,15.74 q -10.25,8.85 -23.04,13.71 -11.12,4.23 -22.62,5.87 -11.07,1.73 -20.33,1.52 C 564,699.18 534.37,684 519.33,657.11 509.32,639.22 505.88,619.96 506.67,599.51 q 0.47,-12.43 4.63,-28.42 c 4.03,-15.52 8.63,-28.94 16.08,-42.68 2.65,-4.88 5.52,-8.68 10.82,-10.31 q 2.15,-0.67 7.61,0.28 c 22.84,3.94 57.5,2.24 72.77,-18.74 q 5.28,-7.25 5.65,-14.18 0.77,-14.49 -9.68,-25.19 a 0.77,0.76 29.3 0 0 -1.3,0.36 q -0.12,0.5 0.02,0.83 1.6,3.86 2.6,7.6 c 3.03,11.36 -1.26,23.09 -12.07,28.06 -12.26,5.63 -26.57,3.76 -39.3,-0.71 q -27.61,-9.68 -45.94,-33.78 -3.66,-4.81 -7.64,-10.75 a 6.01,6.27 3.5 0 0 -0.95,-1.12 c -5.24,-4.9 -12.3,-12.6 -5.18,-19.76 q 3.55,-2.23 6.69,-3.07 c 3.89,-1.03 7.26,0.11 11.06,2.25 13.11,7.41 25.9,10.48 40.21,11.85 q 29.23,2.79 55.25,0.43 c 18.73,-1.71 38.47,-5.67 55.27,-14.44 7.49,-3.91 18.72,-12.43 19.56,-21.16 1.07,-11.11 -11.15,-17.27 -20.36,-19.42 -19.87,-4.65 -42.3,-2.09 -62,3.59 -2.18,0.63 -5.38,1.24 -7.13,0.58 -2.79,-1.06 -3.9,-4.43 -2.11,-6.89 2.32,-3.21 7.89,-5.62 11.34,-7.15 q 11.53,-5.13 24.47,-6.53 a 0.69,0.69 0 0 0 0.6,-0.56 q 0.21,-1.19 0.29,-3.46 1.56,-42.62 -18.14,-77.16 c -20.72,-36.34 -56.36,-62.17 -97.41,-71.98 -28.95,-6.92 -61.42,-6.38 -90.35,-0.17 -45.67,9.79 -87.92,34.8 -115.48,71.83 q -26.19,35.18 -38.93,80.61 c -9.89,35.29 -14.36,71.53 -13.73,107.83 q 1.01,57.94 21.83,111.54 a 0.4,0.4 0 0 0 0.76,-0.06 c 3.84,-16.97 5.78,-30.04 9.36,-49.29 1.44,-7.77 3.98,-16.87 6.51,-23.06 1.66,-4.1 4.7,-11.27 8.54,-13.36 q 2.04,-1.11 4.61,0.15 5.68,2.8 3.38,9.5 c -5.36,15.68 -8.41,30.6 -11.55,48.69 q -3.87,22.3 -9.8,43.2 c -2.13,7.48 -3.56,14.52 -5.84,23.88 a 0.65,0.65 0 0 0 0.59,0.81 c 7.95,0.57 15.62,-1.26 23.46,-4.29 22.4,-8.64 41.21,-24.59 55.4,-44.07 15.36,-21.09 25.85,-46.59 27.67,-72.27 0.46,-6.41 0.44,-11.66 2.48,-16.72 1.28,-3.16 4.3,-3.49 6.76,-1.43 q 2.3,1.92 3.42,4.38 z M 249.72,431.01 q 3.43,-34 12.84,-66.73 3.28,-11.4 7.16,-21.52 a 0.67,0.67 0 0 0 -0.86,-0.87 q -34.13,12.42 -55.33,41.64 -12.6,17.38 -17.13,36.39 a 0.91,0.91 0 0 0 1.16,1.08 q 29.53,-9.36 51.67,10.2 a 0.3,0.3 0 0 0 0.49,-0.19 z m 282.46,24.52 c 12.52,14.37 28.44,25.49 47.27,29.01 6.79,1.27 12.9,0.94 18.98,-1.76 a 1.23,1.22 64.1 0 0 0.58,-1.69 q -5.65,-10.73 -16.43,-16.98 c -3.26,-1.89 -5.4,-3.21 -8.58,-3.44 -14.48,-1.08 -28.13,-2.36 -41.48,-5.71 a 0.35,0.35 0 0 0 -0.34,0.57 z m -4.71,117.28 q 25.41,13.6 41,21.35 3.25,1.62 6.55,2.52 a 1.67,1.67 0 0 0 2.05,-1.2 q 0.58,-2.25 0.45,-5.48 c -0.77,-19.04 -11.94,-37.15 -25.97,-49.82 -1.93,-1.75 -6.82,-1.97 -9.34,-1.96 a 3.82,3.8 13.6 0 0 -3.36,2.04 q -7.76,14.85 -11.85,31.49 a 0.95,0.94 21.3 0 0 0.47,1.06 z"
     id="path19" />
  <path
     fill="#1e869d"
     d="m 504.79,431 q -14.35,-4.98 -27.04,-5.21 -11.75,-0.21 -20.08,4.12 -11.19,5.81 -21.1,17.91 -17.33,21.16 -25.1,47.76 -1.12,-2.46 -3.42,-4.38 c -2.46,-2.06 -5.48,-1.73 -6.76,1.43 -2.04,5.06 -2.02,10.31 -2.48,16.72 -1.82,25.68 -12.31,51.18 -27.67,72.27 -14.19,19.48 -33,35.43 -55.4,44.07 -7.84,3.03 -15.51,4.86 -23.46,4.29 a 0.65,0.65 0 0 1 -0.59,-0.81 c 2.28,-9.36 3.71,-16.4 5.84,-23.88 q 5.93,-20.9 9.8,-43.2 c 3.14,-18.09 6.19,-33.01 11.55,-48.69 q 2.3,-6.7 -3.38,-9.5 -2.57,-1.26 -4.61,-0.15 c -3.84,2.09 -6.88,9.26 -8.54,13.36 -2.53,6.19 -5.07,15.29 -6.51,23.06 -3.58,19.25 -5.52,32.32 -9.36,49.29 a 0.4,0.4 0 0 1 -0.76,0.06 Q 264.9,535.92 263.89,477.98 c -0.63,-36.3 3.84,-72.54 13.73,-107.83 q 12.74,-45.43 38.93,-80.61 c 27.56,-37.03 69.81,-62.04 115.48,-71.83 28.93,-6.21 61.4,-6.75 90.35,0.17 41.05,9.81 76.69,35.64 97.41,71.98 q 19.7,34.54 18.14,77.16 -0.08,2.27 -0.29,3.46 a 0.69,0.69 0 0 1 -0.6,0.56 q -12.94,1.4 -24.47,6.53 c -3.45,1.53 -9.02,3.94 -11.34,7.15 -1.79,2.46 -0.68,5.83 2.11,6.89 1.75,0.66 4.95,0.05 7.13,-0.58 19.7,-5.68 42.13,-8.24 62,-3.59 9.21,2.15 21.43,8.31 20.36,19.42 -0.84,8.73 -12.07,17.25 -19.56,21.16 -16.8,8.77 -36.54,12.73 -55.27,14.44 q -26.02,2.36 -55.25,-0.43 c -14.31,-1.37 -27.1,-4.44 -40.21,-11.85 -3.8,-2.14 -7.17,-3.28 -11.06,-2.25 q -3.14,0.84 -6.69,3.07 z M 454.96,324.32 q 2.02,-0.29 3.25,-1.4 c 6.85,-6.17 13.87,-11.05 23.37,-11.61 4.29,-0.25 7.77,-0.73 7.97,-6.13 0.24,-6.13 -7.34,-8.15 -12.06,-7.76 q -14.75,1.19 -25.14,12.2 -2.18,2.3 -3.41,5.31 c -1.75,4.33 0.5,10.2 6.02,9.39 z m 27.6588,13.3323 a 35.71,31.77 86.9 0 0 -29.7923,37.3758 35.71,31.77 86.9 0 0 33.6547,33.9396 35.71,31.77 86.9 0 0 29.7923,-37.3758 35.71,31.77 86.9 0 0 -33.6547,-33.9396 z"
     id="path20" />
  <path
     fill="#0f4458"
     d="m 454.96,324.32 c -5.52,0.81 -7.77,-5.06 -6.02,-9.39 q 1.23,-3.01 3.41,-5.31 10.39,-11.01 25.14,-12.2 c 4.72,-0.39 12.3,1.63 12.06,7.76 -0.2,5.4 -3.68,5.88 -7.97,6.13 -9.5,0.56 -16.52,5.44 -23.37,11.61 q -1.23,1.11 -3.25,1.4 z"
     id="path21" />
  <path
     fill="#0f4458"
     d="m 778.71,390.24 c 3.29,24.17 -1.83,50.53 -16.36,70.55 -2.67,3.67 -8.05,4.6 -11.52,1.1 -4.49,-4.52 -0.93,-10.06 1.94,-14.64 10.03,-16.01 13.36,-36.33 10.82,-54.95 -2.54,-18.63 -11.18,-37.32 -25.13,-50.06 -3.99,-3.65 -8.9,-8.03 -5.78,-13.59 2.4,-4.3 7.84,-4.84 11.39,-2.02 19.36,15.4 31.34,39.44 34.64,63.61 z"
     id="path22" />
  <path
     fill="#0f4458"
     d="m 482.6188,337.6523 a 35.71,31.77 86.9 0 1 33.6547,33.9396 35.71,31.77 86.9 0 1 -29.7923,37.3758 35.71,31.77 86.9 0 1 -33.6547,-33.9396 35.71,31.77 86.9 0 1 29.7923,-37.3758 z M 503.08,362.91 a 10.06,10.06 0 0 0 -10.06,-10.06 10.06,10.06 0 0 0 -10.06,10.06 10.06,10.06 0 0 0 10.06,10.06 10.06,10.06 0 0 0 10.06,-10.06 z"
     id="path23" />
  <path
     fill="#1e869d"
     d="m 249.72,431.01 a 0.3,0.3 0 0 1 -0.49,0.19 Q 227.09,411.64 197.56,421 a 0.91,0.91 0 0 1 -1.16,-1.08 q 4.53,-19.01 17.13,-36.39 21.2,-29.22 55.33,-41.64 a 0.67,0.67 0 0 1 0.86,0.87 q -3.88,10.12 -7.16,21.52 -9.41,32.73 -12.84,66.73 z"
     id="path24" />
  <path
     fill="#0f4458"
     d="m 742.94,393.57 q 3.63,20.61 -5.6,42.47 -1.79,4.23 -4.66,8.29 a 3.56,3.63 87.2 0 1 -0.63,0.68 c -7.17,5.89 -15.48,-2.19 -11.51,-9.5 q 10.8,-19.9 7.39,-39.29 -3.41,-19.39 -20.37,-34.4 c -6.22,-5.52 -1.17,-15.95 7.58,-12.87 a 3.56,3.63 72.8 0 1 0.82,0.43 q 4.08,2.83 7.21,6.2 16.14,17.39 19.77,37.99 z"
     id="path25" />
  <circle
     fill="#fefdf9"
     cx="493.01999"
     cy="362.91"
     r="10.06"
     id="circle25" />
  <path
     fill="#8be2e5"
     d="m 504.79,431 c -7.12,7.16 -0.06,14.86 5.18,19.76 a 6.01,6.27 3.5 0 1 0.95,1.12 q 3.98,5.94 7.64,10.75 18.33,24.1 45.94,33.78 c 12.73,4.47 27.04,6.34 39.3,0.71 10.81,-4.97 15.1,-16.7 12.07,-28.06 q -1,-3.74 -2.6,-7.6 -0.14,-0.33 -0.02,-0.83 a 0.77,0.76 29.3 0 1 1.3,-0.36 q 10.45,10.7 9.68,25.19 -0.37,6.93 -5.65,14.18 c -15.27,20.98 -49.93,22.68 -72.77,18.74 q -5.46,-0.95 -7.61,-0.28 c -5.3,1.63 -8.17,5.43 -10.82,10.31 -7.45,13.74 -12.05,27.16 -16.08,42.68 q -4.16,15.99 -4.63,28.42 c -0.79,20.45 2.65,39.71 12.66,57.6 15.04,26.89 44.67,42.07 74.93,42.75 q 9.26,0.21 20.33,-1.52 -1.31,1.41 -4.81,2.93 -23.58,10.24 -46.06,12.66 -24.82,2.68 -47.85,-0.93 -26.01,-4.07 -49.41,-18.22 c -36.98,-22.36 -60.82,-62.1 -68.73,-104.01 q -0.89,-4.69 -2.64,-16.31 3.72,-7.95 7.05,-16.06 c 7.79,-19.01 12.78,-42.34 9.33,-62.82 q 7.77,-26.6 25.1,-47.76 9.91,-12.1 21.1,-17.91 8.33,-4.33 20.08,-4.12 12.69,0.23 27.04,5.21 z"
     id="path26" />
  <path
     fill="#f5a6a2"
     d="m 532.18,455.53 a 0.35,0.35 0 0 1 0.34,-0.57 c 13.35,3.35 27,4.63 41.48,5.71 3.18,0.23 5.32,1.55 8.58,3.44 q 10.78,6.25 16.43,16.98 a 1.23,1.22 64.1 0 1 -0.58,1.69 c -6.08,2.7 -12.19,3.03 -18.98,1.76 -18.83,-3.52 -34.75,-14.64 -47.27,-29.01 z"
     id="path27" />
  <path
     fill="#1e869d"
     d="M 527.47,572.81 A 0.95,0.94 21.3 0 1 527,571.75 q 4.09,-16.64 11.85,-31.49 a 3.82,3.8 13.6 0 1 3.36,-2.04 c 2.52,-0.01 7.41,0.21 9.34,1.96 14.03,12.67 25.2,30.78 25.97,49.82 q 0.13,3.23 -0.45,5.48 a 1.67,1.67 0 0 1 -2.05,1.2 q -3.3,-0.9 -6.55,-2.52 -15.59,-7.75 -41,-21.35 z"
     id="path28" />
  <path
     fill="#1e869d"
     d="m 395.09,574.46 q 1.75,11.62 2.64,16.31 c 7.91,41.91 31.75,81.65 68.73,104.01 q 23.4,14.15 49.41,18.22 23.03,3.61 47.85,0.93 22.48,-2.42 46.06,-12.66 3.5,-1.52 4.81,-2.93 11.5,-1.64 22.62,-5.87 12.79,-4.86 23.04,-13.71 c 4.77,-4.11 5.3,-9.07 4.23,-15.74 -0.91,-5.62 -1.92,-13.27 -2.33,-19.42 q -3.74,-56.83 36.08,-99.12 2.58,-2.74 6.15,-5.33 a 1.58,1.58 0 0 1 2.29,0.49 q 1.95,3.38 3.27,8.18 c 7.09,25.73 7.71,55 -1.91,80.48 -1.99,5.26 -5.87,12.98 -7.64,16.67 q -1.54,3.22 -1.32,5.01 c 0.35,2.79 4.03,5.17 6.68,3.42 q 18.17,-11.97 40.51,-10.91 c 10.99,0.52 22.99,2.59 34.68,1.09 a 0.65,0.65 0 0 1 0.72,0.74 q -0.21,1.51 -0.78,2.8 -5.99,13.48 -16.35,24.94 -9.3,10.31 -23.18,17.09 c -20.29,9.93 -40.18,9.31 -61.27,1.6 -5.9,-2.15 -10.77,-2.39 -15.26,1.34 q -9.55,7.92 -16.62,13.11 -18.07,13.25 -38.75,21.71 -65.48,26.78 -135.77,13.37 C 411.98,728.5 355.77,692.66 317.4,642.97 a 0.62,0.61 61.4 0 1 0.28,-0.96 q 15.1,-5.24 27.98,-14.1 c 15.63,-10.76 29.81,-23.77 40.56,-39.19 q 2.24,-3.21 8.87,-14.26 z"
     id="path29" />
</svg>
