<?xml version="1.0" encoding="UTF-8" standalone="no"?>
<svg
   version="1.1"
   viewBox="0 0 1000 1000"
   width="1000"
   height="1000"
   id="svg29"
   sodipodi:docname="mascot.svg"
   xml:space="preserve"
   xmlns:inkscape="http://www.inkscape.org/namespaces/inkscape"
   xmlns:sodipodi="http://sodipodi.sourceforge.net/DTD/sodipodi-0.dtd"
   xmlns="http://www.w3.org/2000/svg"
   xmlns:svg="http://www.w3.org/2000/svg"><sodipodi:namedview
     id="namedview1"
     pagecolor="#ffffff"
     bordercolor="#000000"
     borderopacity="0.25"
     inkscape:showpageshadow="2"
     inkscape:pageopacity="0.0"
     inkscape:pagecheckerboard="0"
     inkscape:deskcolor="#d1d1d1"><inkscape:page
       x="0"
       y="0"
       width="1000"
       height="1000"
       id="page2"
       margin="0"
       bleed="0" /></sodipodi:namedview><defs
     id="defs29" /><g
     id="g1"
     transform="translate(-1.210041,-26.152282)"><g
       stroke-width="2"
       fill="none"
       stroke-linecap="butt"
       id="g32"><path
         stroke="#005f7a"
         d="m 711.4275,828.8625 c -5.47333,-1.31333 -10.9475,-1.08583 -16.5475,-1.1925 -6.08667,-0.12 -10.00333,-0.27333 -11.75,-0.46 -14.16,-1.5 -28.14,-4.04333 -41.94,-7.63 -2.67333,-0.69333 -7.89333,-2.16 -15.66,-4.4"
         id="path1"
         sodipodi:nodetypes="ccccc" /><path
         stroke="#0b6f87"
         d="m 625.53,815.18 q -6.65,-2.15 -13.27,-4.56 -21.37,-7.79 -40.73,-19.71 -6.92,-4.25 -13.44,-8.32"
         id="path2" /><path
         stroke="#6a9795"
         d="m 558.09,782.59 q -35.2,-24.77 -63.99,-56.18 c -12.28,-13.4 -24.87,-25.12 -39.65,-34.65 q -36.95,-23.81 -79.49,-8.83 c -16.76,5.91 -34.23,15.35 -49.1,24.93 -30.61,19.73 -57.94,37.82 -88.98,53.45"
         id="path3" /><path
         stroke="#005f7a"
         d="m 236.88,761.31 q -3.09,0.96 -9.57,3.49 c -6.84,2.67 -18.54,6.06 -26.65,5.08 -4.39,-0.53 -10.59,-4.09 -10.32,-9.22 0.23,-4.17 3.7,-6.89 6.89,-9.1"
         id="path4" /><path
         stroke="#0b6f87"
         d="m 197.23,751.56 q 21.72,-3.48 42.14,-13.48 a 0.44,0.43 35 0 0 -0.15,-0.82 q -1.94,-0.22 -3.83,-0.94 -11.54,-4.39 -19.34,-14.46 -16.31,-21.1 -17.08,-48.69 -0.75,-26.45 11.06,-50.35 a 0.3,0.3 0 0 0 -0.47,-0.35 c -14.47,13.28 -30.15,25.49 -47.68,35 q -3.5,1.9 -9.29,4.4 -4.66,2.02 -9.42,4.16"
         id="path5" /><path
         stroke="#6a9795"
         d="m 143.17,666.03 q 18.14,-12.8 30.68,-23.94 4.27,-3.79 22.03,-20.4 c 8.52,-7.97 16.24,-14.31 24.91,-21.14 21.04,-16.6 57.09,-37.77 81.8,-16.07 4.5,3.95 8.47,8.05 12.72,9.93 10.25,4.54 22.19,1.97 28.6,-7.82 2.02,-3.09 3.71,-6.13 6.6,-8.67 q 8.31,-7.28 19.84,-6.79 c 10.28,0.44 15.67,7.71 23.65,12.58 4.83,2.95 11.65,3.76 16.19,-0.01 6.99,-5.8 6.02,-14.88 2.25,-22.36 -8.48,-16.84 -26.23,-28.84 -43.47,-34.39 q -22.17,-7.12 -43.78,-5.5 -27.44,2.06 -52.96,14.82 -30.65,15.33 -55.47,39.5 c -13.36,13.02 -20.44,20.92 -35.5,37.49 q -11.87,13.04 -26.87,27.64 -18.06,17.56 -39.84,31.59 -4.39,2.82 -9.58,5.94"
         id="path6" /><path
         stroke="#0b6f87"
         d="m 104.97,678.43 q -8.93,5.21 -19.94,6.22"
         id="path7" /><path
         stroke="#0b859f"
         d="m 197.23,751.56 q -18.21,-0.91 -34.81,-6.39 c -6.09,-2.02 -12.19,-5.18 -17.63,-7.17 -3.37,-1.24 -6.74,-2.14 -8.57,1.04 q -2.7,4.66 0.28,10 a 0.67,0.66 -34.1 0 1 -0.17,0.86 q -17.73,14.04 -33.3,29.26"
         id="path18" /><path
         stroke="#74bdbb"
         d="m 558.09,782.59 q -1.41,0.18 -3.34,-1.25 a 4.24,3.89 -13.8 0 0 -0.82,-0.45 c -8.57,-3.47 -14.88,-5.95 -22.8,-10.11 q -17,-8.94 -42.57,-27.82 -18.65,-13.77 -42.08,-26.2 -4.35,-2.31 -7.04,-2.87"
         id="path20-9" /><path
         stroke="#6a9795"
         d="M 439.44,713.89 Q 422.12,704.68 401.9,703.43"
         id="path21-4" /><path
         stroke="#74bdbb"
         d="m 401.9,703.43 q -10.27,-0.79 -20.67,1.22 -3.39,0.66 -6.73,2.59 c -5.84,3.38 0.34,8.47 3.74,11.03 11.71,8.85 22.16,17.31 28.66,30.32 2.37,4.75 2.22,14.51 -5.85,13.19 q -2.81,-0.46 -4.51,-1.82 -10.38,-8.32 -13.28,-10.21 C 362.17,736.06 335.5,734.13 311.47,739.9"
         id="path22-8" /><path
         stroke="#6aadae"
         d="m 311.47,739.9 q -13.78,3.3 -19.67,5.4 c -14.73,5.24 -25.9,9.12 -39.84,12.2 q -1.43,0.32 -7.48,2.11 -3.74,1.11 -7.6,1.7"
         id="path23-8" /><path
         stroke="#0b6f87"
         d="m 401.9,703.43 q -0.35,-0.25 -0.79,-0.03 a 0.35,0.35 0 0 0 0.13,0.67 q 19.53,1.59 38.2,9.82"
         id="path24-2" /><path
         stroke="#0b859f"
         d="m 625.53,815.18 q 0.27,1.14 -0.27,1.09 c -5.25,-0.51 -11.71,-0.74 -16.69,-1.4 q -32.07,-4.26 -63.32,-16.81 -15.1,-6.07 -32.8,-16.51 -26.53,-15.66 -45.5,-27.98 -9.87,-6.41 -18.5,-11.25 c -4.14,-2.32 -12.82,-6.63 -16.89,-3.55 -3.22,2.45 -1.74,11.07 -0.58,14.24 q 2.02,5.54 4.49,9.29 11.83,18.04 31.31,35.75 c 3.05,2.76 8.59,9.58 3.13,12.8 q -2.86,1.69 -5.01,1.81 -9.7,0.55 -19.47,-1.81 c -20.07,-4.84 -39.5,-12.47 -57.68,-22.54 -15.09,-8.36 -32.72,-17.56 -46.7,-23.12 q -32.03,-12.74 -66.73,-11.08 a 0.34,0.34 0 0 1 -0.21,-0.61 c 3.65,-2.57 8.57,-3.87 13.51,-5.65 6.4,-2.32 14.89,-4.36 19.94,-5.91 q 1.85,-0.57 3.91,-2.04"
         id="path25-4" /><path
         stroke="#74bdbb"
         d="m 143.17,666.03 q -6.59,2.96 -13.36,6.3 -4.9,2.42 -14.67,4.86 -2.91,0.72 -10.17,1.24"
         id="path26-5" /><path
         stroke="#005f7a"
         d="m 296.86,700.27 c 4.55,1.05 14.34,-6.2 17.72,-9.19 a 1.64,1.63 -41.3 0 0 0.16,-2.3 q -2.79,-3.21 -4.84,-6.93 -10.27,-18.65 -10.92,-39.32 c -0.22,-6.95 0.78,-14.01 1.79,-22.01 q 0.48,-3.83 -1.34,-6.64 a 1.26,1.24 59.4 0 0 -1.63,-0.43 q -2.59,1.37 -4.98,4.12 c -5.34,6.14 -9.5,15.56 -11.3,24.44 q -4.83,23.76 4.66,45.99 2.79,6.55 9.75,11.84 a 2.56,2.54 -19.9 0 0 0.93,0.43"
         id="path27-5" /><path
         stroke="#005f7a"
         d="m 260.86,620.82 c 0.47,-2.3 -1.07,-4.69 -3.75,-3.69 q -1.63,0.61 -4.36,3.39 c -15.79,16.06 -23.34,42.75 -21.15,64.73 1.19,11.94 7.05,26.74 17.32,33.1 8.57,5.32 19.09,4.56 25.98,-3.04 a 2.17,2.17 0 0 0 0.14,-2.75 c -9.01,-12.25 -15.28,-24.41 -17.54,-39.84 q -2.66,-18.21 0,-34.23 1.17,-7.1 3.36,-17.67"
         id="path28-1" /><path
         stroke="#005f7a"
         d="m 350.79,669.28 q -2.12,-2.12 -4.43,-5.89 -10.98,-17.93 -11.42,-39.19 a 1.21,1.21 0 0 0 -1.73,-1.07 c -4.31,2.02 -6.02,13.96 -6.2,18.65 q -0.39,10.01 1.4,20.55 1.32,7.81 5.87,14.15 2.8,3.92 7.27,1.06 c 2.27,-1.45 8.85,-4.94 9.48,-7.37 a 0.95,0.92 -60.9 0 0 -0.24,-0.89"
         id="path29-7" /><path
         stroke="#005f7a"
         d="m 524.16,729.34 q 2.19,2.9 6.76,7.25 c 12.63,12.04 24.82,21.73 39.4,30.29 q 24.77,14.56 53.17,24.62 6.01,2.13 15.63,4.72 9.64,2.59 15.88,3.79 c 19.11,3.68 39.39,4 58.82,0.06 q 6,-1.21 9.71,-3.16 a 2.61,2.54 -61.8 0 1 0.82,-0.26 l 1.85,-0.23 a 0.61,0.6 77.3 0 0 0.49,-0.79 q -1.43,-4.34 -3.63,-7.97 c -2.57,-4.25 2.52,-6.98 2.54,-10.99 q 0.01,-4.29 -4.17,-6.83 a 0.2,0.19 -19.5 0 1 0.17,-0.35 q 29.41,9.78 61.16,12.96 c 9.74,0.98 18.22,-1.84 27.11,-5.84 q 6.67,-2.99 19.92,-10.33 14.6,-8.09 27.56,-19.66"
         id="path30" /><path
         stroke="#0b6f87"
         d="m 857.35,746.62 q 14.38,-10.98 27.39,-25.26 A 0.22,0.22 0 0 0 884.52,721 q -13.34,3.52 -27.27,4.66 c -27.13,2.21 -55.51,-4.16 -80.77,-15.09 -33.76,-14.6 -70.04,-36.51 -109.7,-28.99 -24.09,4.57 -45.07,20.48 -65.4,30.04 -13.49,6.33 -27.93,11.56 -42.86,13.52 q -18.36,2.42 -36.95,0.33 a 0.53,0.53 0 0 0 -0.43,0.91 l 3.02,2.96"
         id="path31" /><path
         stroke="#0b859f"
         d="m 857.35,746.62 q -20.61,6.62 -26.84,7.42 -11.63,1.5 -14.28,1.86 -4.29,0.57 -24.73,-0.02 -14.89,-0.44 -35.77,-6.42 -11.46,-3.28 -29.05,-11.19 -15.01,-6.76 -20.92,-8.55 -16.27,-4.92 -26.99,-5.77 -24.48,-1.92 -50.48,4.88 -8.44,2.21 -20.73,5.72 -5.93,1.68 -17.67,3 -7.6,0.86 -17.92,0.14 -23.03,-1.6 -44.06,-8.49 A 2.43,2.3 49.7 0 0 527,729.1 l -2.84,0.24"
         id="path32" /></g><path
       fill="#004961"
       d="m 711.49,829.8 q -8.21,-1.97 -16.61,-2.13 -9.13,-0.18 -11.75,-0.46 -21.24,-2.25 -41.94,-7.63 -4.01,-1.04 -15.66,-4.4 -6.65,-2.15 -13.27,-4.56 -21.37,-7.79 -40.73,-19.71 -6.92,-4.25 -13.44,-8.32 -35.2,-24.77 -63.99,-56.18 c -12.28,-13.4 -24.87,-25.12 -39.65,-34.65 q -36.95,-23.81 -79.49,-8.83 c -16.76,5.91 -34.23,15.35 -49.1,24.93 -30.61,19.73 -57.94,37.82 -88.98,53.45 q -3.09,0.96 -9.57,3.49 c -6.84,2.67 -18.54,6.06 -26.65,5.08 -4.39,-0.53 -10.59,-4.09 -10.32,-9.22 0.23,-4.17 3.7,-6.89 6.89,-9.1 q 21.72,-3.48 42.14,-13.48 a 0.44,0.43 35 0 0 -0.15,-0.82 q -1.94,-0.22 -3.83,-0.94 -11.54,-4.39 -19.34,-14.46 -16.31,-21.1 -17.08,-48.69 -0.75,-26.45 11.06,-50.35 a 0.3,0.3 0 0 0 -0.47,-0.35 c -14.47,13.28 -30.15,25.49 -47.68,35 q -3.5,1.9 -9.29,4.4 -4.66,2.02 -9.42,4.16 18.14,-12.8 30.68,-23.94 4.27,-3.79 22.03,-20.4 c 8.52,-7.97 16.24,-14.31 24.91,-21.14 21.04,-16.6 57.09,-37.77 81.8,-16.07 4.5,3.95 8.47,8.05 12.72,9.93 10.25,4.54 22.19,1.97 28.6,-7.82 2.02,-3.09 3.71,-6.13 6.6,-8.67 q 8.31,-7.28 19.84,-6.79 c 10.28,0.44 15.67,7.71 23.65,12.58 4.83,2.95 11.65,3.76 16.19,-0.01 6.99,-5.8 6.02,-14.88 2.25,-22.36 -8.48,-16.84 -26.23,-28.84 -43.47,-34.39 q -22.17,-7.12 -43.78,-5.5 -27.44,2.06 -52.96,14.82 -30.65,15.33 -55.47,39.5 c -13.36,13.02 -20.44,20.92 -35.5,37.49 q -11.87,13.04 -26.87,27.64 -18.06,17.56 -39.84,31.59 -4.39,2.82 -9.58,5.94 -8.93,5.21 -19.94,6.22 -2.75,-1.08 -3.86,-2.6 -6.58,-8.99 2.14,-15.72 0.86,-0.67 7.85,-2.68 3.36,-0.97 10.92,-5.6 6.9,-4.22 17.59,-12.91 c 24.46,-19.88 43.35,-41.56 68.75,-69.23 23.14,-25.2 52.13,-47.36 83.91,-61.11 q 19.3,-8.35 38.84,-11.35 3.49,-0.53 5.17,-0.56 c 2.51,-0.04 4.43,-0.52 6.91,-0.7 q 26.73,-1.89 52.12,6.72 21.94,7.45 38.61,22.84 2.49,2.31 8.19,9.57 7.6,9.69 10.49,21.54 c 3,12.32 0.34,26.67 -9.58,35.08 -6.42,5.43 -15.93,8.69 -24.42,7.07 -8.46,-1.62 -14.89,-5.01 -21.18,-10.21 a 0.71,0.71 0 0 0 -1.07,0.21 q -4.29,7.91 -6.89,16.72 -1.35,4.62 -1.37,7.77 c -0.02,5.32 -0.3,8.14 0.44,12.29 1.66,9.23 5.94,19.91 12.82,26.55 a 2.83,2.83 0 0 0 2.07,0.78 q 2.08,-0.08 5.99,-0.62 29.89,-4.08 55.52,6.55 18.1,7.51 33.21,19.48 6.92,5.48 16.69,13.32 2.56,2.05 8.52,4.01 23.38,7.68 47.6,4.21 c 18.83,-2.7 36.53,-9.37 53.57,-18.74 15.38,-8.45 24.79,-13.79 39.63,-19.39 q 35.64,-13.45 72.32,-2.99 c 19.85,5.66 37.57,14.05 57.12,23.38 q 24.85,11.86 51.42,16.31 c 2.73,0.45 5.75,0.46 8.56,0.83 q 8.42,1.1 18.12,0.42 6.91,-0.48 14.55,-1.81 22.82,-3.97 42.64,-15.41 1.99,-1.14 6.25,-1.67 a 2.63,2.53 50.3 0 1 1.16,0.13 c 8.61,3.03 8.96,10.01 5.12,16.96 -1.18,2.11 -2.7,5.48 -3.94,7.3 q -12.78,18.66 -25.84,31.83 -22.42,22.61 -50.84,40.12 c -7.36,4.54 -14.54,8.86 -21.72,12.48 Q 767.87,821.71 711.49,829.8 Z M 296.86,700.27 c 4.55,1.05 14.34,-6.2 17.72,-9.19 a 1.64,1.63 -41.3 0 0 0.16,-2.3 q -2.79,-3.21 -4.84,-6.93 -10.27,-18.65 -10.92,-39.32 c -0.22,-6.95 0.78,-14.01 1.79,-22.01 q 0.48,-3.83 -1.34,-6.64 a 1.26,1.24 59.4 0 0 -1.63,-0.43 q -2.59,1.37 -4.98,4.12 c -5.34,6.14 -9.5,15.56 -11.3,24.44 q -4.83,23.76 4.66,45.99 2.79,6.55 9.75,11.84 a 2.56,2.54 -19.9 0 0 0.93,0.43 z m -36,-79.45 c 0.47,-2.3 -1.07,-4.69 -3.75,-3.69 q -1.63,0.61 -4.36,3.39 c -15.79,16.06 -23.34,42.75 -21.15,64.73 1.19,11.94 7.05,26.74 17.32,33.1 8.57,5.32 19.09,4.56 25.98,-3.04 a 2.17,2.17 0 0 0 0.14,-2.75 c -9.01,-12.25 -15.28,-24.41 -17.54,-39.84 q -2.66,-18.21 0,-34.23 1.17,-7.1 3.36,-17.67 z m 89.93,48.46 q -2.12,-2.12 -4.43,-5.89 -10.98,-17.93 -11.42,-39.19 a 1.21,1.21 0 0 0 -1.73,-1.07 c -4.31,2.02 -6.02,13.96 -6.2,18.65 q -0.39,10.01 1.4,20.55 1.32,7.81 5.87,14.15 2.8,3.92 7.27,1.06 c 2.27,-1.45 8.85,-4.94 9.48,-7.37 a 0.95,0.92 -60.9 0 0 -0.24,-0.89 z m 173.37,60.06 q 2.19,2.9 6.76,7.25 c 12.63,12.04 24.82,21.73 39.4,30.29 q 24.77,14.56 53.17,24.62 6.01,2.13 15.63,4.72 9.64,2.59 15.88,3.79 c 19.11,3.68 39.39,4 58.82,0.06 q 6,-1.21 9.71,-3.16 a 2.61,2.54 -61.8 0 1 0.82,-0.26 l 1.85,-0.23 a 0.61,0.6 77.3 0 0 0.49,-0.79 q -1.43,-4.34 -3.63,-7.97 c -2.57,-4.25 2.52,-6.98 2.54,-10.99 q 0.01,-4.29 -4.17,-6.83 a 0.2,0.19 -19.5 0 1 0.17,-0.35 q 29.41,9.78 61.16,12.96 c 9.74,0.98 18.22,-1.84 27.11,-5.84 q 6.67,-2.99 19.92,-10.33 14.6,-8.09 27.56,-19.66 14.38,-10.98 27.39,-25.26 A 0.22,0.22 0 0 0 884.52,721 q -13.34,3.52 -27.27,4.66 c -27.13,2.21 -55.51,-4.16 -80.77,-15.09 -33.76,-14.6 -70.04,-36.51 -109.7,-28.99 -24.09,4.57 -45.07,20.48 -65.4,30.04 -13.49,6.33 -27.93,11.56 -42.86,13.52 q -18.36,2.42 -36.95,0.33 a 0.53,0.53 0 0 0 -0.43,0.91 z"
       id="path33" /><path
       fill="#d3e5c9"
       d="m 143.17,666.03 q -6.59,2.96 -13.36,6.3 -4.9,2.42 -14.67,4.86 -2.91,0.72 -10.17,1.24 5.19,-3.12 9.58,-5.94 21.78,-14.03 39.84,-31.59 15,-14.6 26.87,-27.64 c 15.06,-16.57 22.14,-24.47 35.5,-37.49 q 24.82,-24.17 55.47,-39.5 25.52,-12.76 52.96,-14.82 21.61,-1.62 43.78,5.5 c 17.24,5.55 34.99,17.55 43.47,34.39 3.77,7.48 4.74,16.56 -2.25,22.36 -4.54,3.77 -11.36,2.96 -16.19,0.01 -7.98,-4.87 -13.37,-12.14 -23.65,-12.58 q -11.53,-0.49 -19.84,6.79 c -2.89,2.54 -4.58,5.58 -6.6,8.67 -6.41,9.79 -18.35,12.36 -28.6,7.82 -4.25,-1.88 -8.22,-5.98 -12.72,-9.93 -24.71,-21.7 -60.76,-0.53 -81.8,16.07 -8.67,6.83 -16.39,13.17 -24.91,21.14 q -17.76,16.61 -22.03,20.4 -12.54,11.14 -30.68,23.94 z"
       id="path34" /><path
       fill="#007592"
       d="m 295.93,699.84 q -6.96,-5.29 -9.75,-11.84 -9.49,-22.23 -4.66,-45.99 c 1.8,-8.88 5.96,-18.3 11.3,-24.44 q 2.39,-2.75 4.98,-4.12 a 1.26,1.24 59.4 0 1 1.63,0.43 q 1.82,2.81 1.34,6.64 c -1.01,8 -2.01,15.06 -1.79,22.01 q 0.65,20.67 10.92,39.32 2.05,3.72 4.84,6.93 a 1.64,1.63 -41.3 0 1 -0.16,2.3 c -3.38,2.99 -13.17,10.24 -17.72,9.19 a 2.56,2.54 -19.9 0 1 -0.93,-0.43 z"
       id="path35" /><path
       fill="#007592"
       d="m 257.11,617.13 c 2.68,-1 4.22,1.39 3.75,3.69 q -2.19,10.57 -3.36,17.67 -2.66,16.02 0,34.23 c 2.26,15.43 8.53,27.59 17.54,39.84 a 2.17,2.17 0 0 1 -0.14,2.75 c -6.89,7.6 -17.41,8.36 -25.98,3.04 -10.27,-6.36 -16.13,-21.16 -17.32,-33.1 -2.19,-21.98 5.36,-48.67 21.15,-64.73 q 2.73,-2.78 4.36,-3.39 z"
       id="path36" /><path
       fill="#1594ac"
       d="m 197.23,751.56 c -12.14,-0.60667 -23.74333,-2.73667 -34.81,-6.39 -6.09,-2.02 -12.19,-5.18 -17.63,-7.17 -3.37,-1.24 -6.74,-2.14 -8.57,1.04 -1.8,3.10667 -1.70667,6.44 0.28,10 0.16768,0.28549 0.095,0.6533 -0.17,0.86 -11.82,9.36 -22.92,19.11333 -33.3,29.26 C 90.536667,764.61333 83.096667,747.99667 80.71,729.31 79.83,722.44 79.83,713.75 80.15,707 c 0.08667,-1.78667 0.298848,-3.51347 0.958848,-6.43347 1.292917,-4.76916 -0.561083,4.89501 -0.181083,0.96168 L 85.03,684.65 c 7.34,-0.67333 13.986667,-2.74667 19.94,-6.22 4.84,-0.34667 8.23,-0.76 10.17,-1.24 6.51333,-1.62667 11.40333,-3.24667 14.67,-4.86 4.51333,-2.22667 8.96667,-4.32667 13.36,-6.3 3.17333,-1.42667 6.31333,-2.81333 9.42,-4.16 3.86,-1.66667 6.95667,-3.13333 9.29,-4.4 17.53,-9.51 33.21,-21.72 47.68,-35 0.24299,-0.21068 0.60222,0.0568 0.47,0.35 -7.87333,15.93333 -11.56,32.71667 -11.06,50.35 0.51333,18.39333 6.20667,34.62333 17.08,48.69 5.2,6.71333 11.64667,11.53333 19.34,14.46 1.26,0.48 2.53667,0.79333 3.83,0.94 0.43126,0.0565 0.53678,0.63327 0.15,0.82 -13.61333,6.66667 -27.66,11.16 -42.14,13.48 z"
       id="path37"
       sodipodi:nodetypes="cccccccccccccccccccccccccc" /><path
       fill="#007592"
       d="m 351.03,670.17 c -0.63,2.43 -7.21,5.92 -9.48,7.37 q -4.47,2.86 -7.27,-1.06 -4.55,-6.34 -5.87,-14.15 -1.79,-10.54 -1.4,-20.55 c 0.18,-4.69 1.89,-16.63 6.2,-18.65 a 1.21,1.21 0 0 1 1.73,1.07 q 0.44,21.26 11.42,39.19 2.31,3.77 4.43,5.89 a 0.95,0.92 -60.9 0 1 0.24,0.89 z"
       id="path38" /><path
       fill="#d3e5c9"
       d="m 558.09,782.59 q -1.41,0.18 -3.34,-1.25 a 4.24,3.89 -13.8 0 0 -0.82,-0.45 c -8.57,-3.47 -14.88,-5.95 -22.8,-10.11 q -17,-8.94 -42.57,-27.82 -18.65,-13.77 -42.08,-26.2 -4.35,-2.31 -7.04,-2.87 -17.32,-9.21 -37.54,-10.46 -10.27,-0.79 -20.67,1.22 -3.39,0.66 -6.73,2.59 c -5.84,3.38 0.34,8.47 3.74,11.03 11.71,8.85 22.16,17.31 28.66,30.32 2.37,4.75 2.22,14.51 -5.85,13.19 q -2.81,-0.46 -4.51,-1.82 -10.38,-8.32 -13.28,-10.21 C 362.17,736.06 335.5,734.13 311.47,739.9 q -13.78,3.3 -19.67,5.4 c -14.73,5.24 -25.9,9.12 -39.84,12.2 q -1.43,0.32 -7.48,2.11 -3.74,1.11 -7.6,1.7 c 31.04,-15.63 58.37,-33.72 88.98,-53.45 14.87,-9.58 32.34,-19.02 49.1,-24.93 q 42.54,-14.98 79.49,8.83 c 14.78,9.53 27.37,21.25 39.65,34.65 q 28.79,31.41 63.99,56.18 z"
       id="path39" /><path
       fill="#1594ac"
       d="m 857.35,746.62 q -20.61,6.62 -26.84,7.42 -11.63,1.5 -14.28,1.86 -4.29,0.57 -24.73,-0.02 -14.89,-0.44 -35.77,-6.42 -11.46,-3.28 -29.05,-11.19 -15.01,-6.76 -20.92,-8.55 -16.27,-4.92 -26.99,-5.77 -24.48,-1.92 -50.48,4.88 -8.44,2.21 -20.73,5.72 -5.93,1.68 -17.67,3 -7.6,0.86 -17.92,0.14 -23.03,-1.6 -44.06,-8.49 A 2.43,2.3 49.7 0 0 527,729.1 l -2.84,0.24 -3.02,-2.96 a 0.53,0.53 0 0 1 0.43,-0.91 q 18.59,2.09 36.95,-0.33 c 14.93,-1.96 29.37,-7.19 42.86,-13.52 20.33,-9.56 41.31,-25.47 65.4,-30.04 39.66,-7.52 75.94,14.39 109.7,28.99 25.26,10.93 53.64,17.3 80.77,15.09 q 13.93,-1.14 27.27,-4.66 a 0.22,0.22 0 0 1 0.22,0.36 q -13.01,14.28 -27.39,25.26 z"
       id="path40" /><path
       fill="#1594ac"
       d="m 401.9,703.43 q -0.35,-0.25 -0.79,-0.03 a 0.35,0.35 0 0 0 0.13,0.67 q 19.53,1.59 38.2,9.82 2.69,0.56 7.04,2.87 23.43,12.43 42.08,26.2 25.57,18.88 42.57,27.82 c 7.92,4.16 14.23,6.64 22.8,10.11 a 4.24,3.89 -13.8 0 1 0.82,0.45 q 1.93,1.43 3.34,1.25 6.52,4.07 13.44,8.32 19.36,11.92 40.73,19.71 6.62,2.41 13.27,4.56 0.27,1.14 -0.27,1.09 c -5.25,-0.51 -11.71,-0.74 -16.69,-1.4 q -32.07,-4.26 -63.32,-16.81 -15.1,-6.07 -32.8,-16.51 -26.53,-15.66 -45.5,-27.98 -9.87,-6.41 -18.5,-11.25 c -4.14,-2.32 -12.82,-6.63 -16.89,-3.55 -3.22,2.45 -1.74,11.07 -0.58,14.24 q 2.02,5.54 4.49,9.29 11.83,18.04 31.31,35.75 c 3.05,2.76 8.59,9.58 3.13,12.8 q -2.86,1.69 -5.01,1.81 -9.7,0.55 -19.47,-1.81 c -20.07,-4.84 -39.5,-12.47 -57.68,-22.54 -15.09,-8.36 -32.72,-17.56 -46.7,-23.12 q -32.03,-12.74 -66.73,-11.08 a 0.34,0.34 0 0 1 -0.21,-0.61 c 3.65,-2.57 8.57,-3.87 13.51,-5.65 6.4,-2.32 14.89,-4.36 19.94,-5.91 q 1.85,-0.57 3.91,-2.04 c 24.03,-5.77 50.7,-3.84 71.79,9.85 q 2.9,1.89 13.28,10.21 1.7,1.36 4.51,1.82 c 8.07,1.32 8.22,-8.44 5.85,-13.19 -6.5,-13.01 -16.95,-21.47 -28.66,-30.32 -3.4,-2.56 -9.58,-7.65 -3.74,-11.03 q 3.34,-1.93 6.73,-2.59 10.4,-2.01 20.67,-1.22 z"
       id="path42" /><path
       fill="#004961"
       d="m 401.9,703.43 q 20.22,1.25 37.54,10.46 -18.67,-8.23 -38.2,-9.82 a 0.35,0.35 0 0 1 -0.13,-0.67 q 0.44,-0.22 0.79,0.03 z"
       id="path43" /><path
       fill="#007592"
       d="m 857.35,746.62 q -12.96,11.57 -27.56,19.66 -13.25,7.34 -19.92,10.33 c -8.89,4 -17.37,6.82 -27.11,5.84 q -31.75,-3.18 -61.16,-12.96 a 0.2,0.19 -19.5 0 0 -0.17,0.35 q 4.18,2.54 4.17,6.83 c -0.02,4.01 -5.11,6.74 -2.54,10.99 q 2.2,3.63 3.63,7.97 a 0.61,0.6 77.3 0 1 -0.49,0.79 l -1.85,0.23 a 2.61,2.54 -61.8 0 0 -0.82,0.26 q -3.71,1.95 -9.71,3.16 c -19.43,3.94 -39.71,3.62 -58.82,-0.06 q -6.24,-1.2 -15.88,-3.79 -9.62,-2.59 -15.63,-4.72 -28.4,-10.06 -53.17,-24.62 c -14.58,-8.56 -26.77,-18.25 -39.4,-30.29 q -4.57,-4.35 -6.76,-7.25 L 527,729.1 a 2.43,2.3 49.7 0 1 0.91,0.1 q 21.03,6.89 44.06,8.49 10.32,0.72 17.92,-0.14 11.74,-1.32 17.67,-3 12.29,-3.51 20.73,-5.72 26,-6.8 50.48,-4.88 10.72,0.85 26.99,5.77 5.91,1.79 20.92,8.55 17.59,7.91 29.05,11.19 20.88,5.98 35.77,6.42 20.44,0.59 24.73,0.02 2.65,-0.36 14.28,-1.86 6.23,-0.8 26.84,-7.42 z"
       id="path44" /><path
       fill="#007592"
       d="m 197.23,751.56 c -3.19,2.21 -6.66,4.93 -6.89,9.1 -0.27,5.13 5.93,8.69 10.32,9.22 8.11,0.98 19.81,-2.41 26.65,-5.08 4.32,-1.68667 7.51,-2.85 9.57,-3.49 2.57333,-0.39333 5.10667,-0.96 7.6,-1.7 4.03333,-1.19333 6.52667,-1.89667 7.48,-2.11 13.94,-3.08 25.11,-6.96 39.84,-12.2 3.92667,-1.4 10.48333,-3.2 19.67,-5.4 -1.37333,0.98 -2.67667,1.66 -3.91,2.04 -5.05,1.55 -13.54,3.59 -19.94,5.91 -4.94,1.78 -9.86,3.08 -13.51,5.65 -0.25953,0.19859 -0.11678,0.61325 0.21,0.61 23.13333,-1.10667 45.37667,2.58667 66.73,11.08 13.98,5.56 31.61,14.76 46.7,23.12 18.18,10.07 37.61,17.7 57.68,22.54 6.51333,1.57333 13.00333,2.17667 19.47,1.81 1.43333,-0.08 3.10333,-0.68333 5.01,-1.81 5.46,-3.22 -0.08,-10.04 -3.13,-12.8 -12.98667,-11.80667 -23.42333,-23.72333 -31.31,-35.75 -1.64667,-2.5 -3.14333,-5.59667 -4.49,-9.29 -1.16,-3.17 -2.64,-11.79 0.58,-14.24 4.07,-3.08 12.75,1.23 16.89,3.55 5.75333,3.22667 11.92,6.97667 18.5,11.25 12.64667,8.21333 27.81333,17.54 45.5,27.98 11.8,6.96 22.73333,12.46333 32.8,16.51 20.83333,8.36667 41.94,13.97 63.32,16.81 4.98,0.66 11.44,0.89 16.69,1.4 0.36,0.0333 0.45,-0.33 0.27,-1.09 7.76667,2.24 12.98667,3.70667 15.66,4.4 13.8,3.58667 27.78,6.13 41.94,7.63 1.74667,0.18667 5.66333,0.34 11.75,0.46 5.6,0.10667 11.13667,0.81667 16.61,2.13 -4.17333,0.68 -11.51,1.47667 -22.01,2.39 -6.26667,0.54667 -10.34333,0.82 -12.23,0.82 -78.33333,-0.007 -156.65333,-0.0367 -234.96,-0.09 l -35.6,-0.02 c -0.71333,0.2 -1.54333,0.25333 -2.49,0.16 l -28.33,0.11 -20.83,0.12 -2,0.04 -3.01,-0.05 -31.16,0.15 -52.83,-0.04 c -0.30667,-0.17333 -0.66667,-0.19333 -1.08,-0.06 l -6.99,-0.2 -1.01,-0.04 -8,-0.19 -2.67,-0.04 -3.3,-0.38 c -1.28188,-0.18563 -9.4e-4,0.005 -1.29,-0.19 l -0.65,-0.13 c -2.08849,-0.1525 0,6.2e-4 -2.09,-0.15 l -9.41,-0.8 c -1.5537,-0.21385 0.008,10e-4 -1.55,-0.21 -21.30667,-1.80667 -42.04333,-6.07333 -62.21,-12.8 -16.42,-5.47333 -31.08333,-12.80333 -43.99,-21.99 -6.19333,-4.40667 -12.45,-10.09 -18.77,-17.05 10.38,-10.14667 21.48,-19.9 33.3,-29.26 0.26498,-0.2067 0.33768,-0.57451 0.17,-0.86 -1.98667,-3.56 -2.08,-6.89333 -0.28,-10 1.83,-3.18 5.2,-2.28 8.57,-1.04 5.44,1.99 11.54,5.15 17.63,7.17 11.06667,3.65333 22.67,5.78333 34.81,6.39 z"
       id="path45"
       sodipodi:nodetypes="cccccccccccccccccccccccscccccccccccccccccccccccccccccccccccccccc" /><path
       fill="#004961"
       d="m 248.96,832.9 -2.67,-0.04 z"
       id="path49" /><path
       fill="#004961"
       d="m 442.29,832.92 -35.6,-0.02 z"
       id="path50" /><path
       fill="#004961"
       d="m 257.97,833.13 -1.01,-0.04 z"
       id="path51" /><path
       fill="#004961"
       d="m 404.2,833.06 -28.33,0.11 z"
       id="path52" /><path
       fill="#004961"
       d="m 266.04,833.39 q -0.56,0.08 -1.08,-0.06 0.62,-0.2 1.08,0.06 z"
       id="path53" /></g><path
     fill="#0f4458"
     d="m 577.08494,474.48129 a 0.36,0.36 0 0 0 -0.26,0.61 c 13.87,15.31 23.12,34.87 23.9,55.69 0.4,10.71 -3.46,21.56 -15.79,21.29 q -8.79,-0.2 -17.71,-4.86 -16.18,-8.46 -35.71,-19.76 a 0.43,0.43 0 0 0 -0.64,0.32 c -4.68,33.55 3.64,67.32 34.41,85.59 q 12.04,7.15 26.35,9.04 c 22.19,2.94 47.29,-0.76 64.76,-15.1 a 1.04,1.06 64.6 0 0 0.37,-1.01 c -7.7,-40.31 -1.24,-80.89 22.41,-114.49 q 6.36,-9.03 14.04,-17.97 c 6.3,-7.34 16.86,-16.49 27.1,-10.21 9.7,5.93 13.39,21.39 15.03,31.62 3.9,24.36 4.18,47.67 -2.87,70.48 a 0.47,0.47 0 0 0 0.5,0.61 c 3.95,-0.44 9.22,-1.07 13.01,-0.94 q 8.82,0.29 17.92,1.24 16.93,1.76 33.74,-0.42 c 7.23,-0.94 10.19,5.84 9.41,11.85 q -1.32,10.23 -6.5,19.85 c -23.61,43.85 -71.2,67.01 -119.26,47.63 a 1.52,1.51 35.2 0 0 -1.57,0.27 c -57.6,51.01 -141.12,65.62 -214.39,47.27 q -70.85,-17.74 -123.76,-68.23 -19.48,-18.59 -33.79,-38.52 a 1.11,1.11 0 0 0 -0.92,-0.46 c -6.39,0.09 -18.5,0.69 -22.21,-6.14 -4.24,-7.8 0.2,-16.49 2.59,-24.76 a 1.68,1.68 0 0 0 -0.1,-1.2 c -24.49,-49.8 -35.05,-104.56 -32.31,-159.94 a 2.5,2.53 28.6 0 0 -0.45,-1.56 c -9.01,-13.01 -21.31,-21.83 -37.94,-18.27 q -4.85,1.04 -9.79,2.54 -5.75,1.74 -9.14,1.19 c -5.76,-0.95 -9.6,-5.01 -9.63,-11.03 -0.08,-16.84 8.51,-35.64 17.96,-49.52 18.16,-26.71 46.7,-48.16 78.77,-54.62 a 1.57,1.56 6.4 0 0 1.11,-0.88 q 24.01,-52.45 68.55,-84.85 30.91,-22.49 66.49,-32.82 c 75.92,-22.03 162.79,-3.92 211.11,62.57 21.13,29.07 30.27,63.26 29.68,99.2 q -0.03,1.64 -0.38,3.13 a 0.63,0.63 0 0 0 0.61,0.78 c 13.54,0.03 26.48,1.52 38.04,8.59 14.98,9.17 21.05,28.01 10.75,42.98 -7.25,10.52 -17.87,18.03 -29.29,23.36 q -19.93,9.31 -41.78,11.95 a 0.48,0.48 0 0 0 -0.34,0.75 q 10.18,14.68 7.47,32.14 c -3.46,22.3 -25.43,36.84 -45.85,41.91 q -11.77,2.92 -23.7,3.11 z m -158.18,-39.62 c 3.45,20.48 -1.54,43.81 -9.33,62.82 q -3.33,8.11 -7.05,16.06 -6.63,11.05 -8.87,14.26 c -10.75,15.42 -24.93,28.43 -40.56,39.19 q -12.88,8.86 -27.98,14.1 a 0.62,0.61 61.4 0 0 -0.28,0.96 c 38.37,49.69 94.58,85.53 156.28,97.31 q 70.29,13.41 135.77,-13.37 20.68,-8.46 38.75,-21.71 7.07,-5.19 16.62,-13.11 c 4.49,-3.73 9.36,-3.49 15.26,-1.34 21.09,7.71 40.98,8.33 61.27,-1.6 q 13.88,-6.78 23.18,-17.09 10.36,-11.46 16.35,-24.94 0.57,-1.29 0.78,-2.8 a 0.65,0.65 0 0 0 -0.72,-0.74 c -11.69,1.5 -23.69,-0.57 -34.68,-1.09 q -22.34,-1.06 -40.51,10.91 c -2.65,1.75 -6.33,-0.63 -6.68,-3.42 q -0.22,-1.79 1.32,-5.01 c 1.77,-3.69 5.65,-11.41 7.64,-16.67 9.62,-25.48 9,-54.75 1.91,-80.48 q -1.32,-4.8 -3.27,-8.18 a 1.58,1.58 0 0 0 -2.29,-0.49 q -3.57,2.59 -6.15,5.33 -39.82,42.29 -36.08,99.12 c 0.41,6.15 1.42,13.8 2.33,19.42 1.07,6.67 0.54,11.63 -4.23,15.74 q -10.25,8.85 -23.04,13.71 -11.12,4.23 -22.62,5.87 -11.07,1.73 -20.33,1.52 c -30.26,-0.68 -59.89,-15.86 -74.93,-42.75 -10.01,-17.89 -13.45,-37.15 -12.66,-57.6 q 0.47,-12.43 4.63,-28.42 c 4.03,-15.52 8.63,-28.94 16.08,-42.68 2.65,-4.88 5.52,-8.68 10.82,-10.31 q 2.15,-0.67 7.61,0.28 c 22.84,3.94 57.5,2.24 72.77,-18.74 q 5.28,-7.25 5.65,-14.18 0.77,-14.49 -9.68,-25.19 a 0.77,0.76 29.3 0 0 -1.3,0.36 q -0.12,0.5 0.02,0.83 1.6,3.86 2.6,7.6 c 3.03,11.36 -1.26,23.09 -12.07,28.06 -12.26,5.63 -26.57,3.76 -39.3,-0.71 q -27.61,-9.68 -45.94,-33.78 -3.66,-4.81 -7.64,-10.75 a 6.01,6.27 3.5 0 0 -0.95,-1.12 c -5.24,-4.9 -12.3,-12.6 -5.18,-19.76 q 3.55,-2.23 6.69,-3.07 c 3.89,-1.03 7.26,0.11 11.06,2.25 13.11,7.41 25.9,10.48 40.21,11.85 q 29.23,2.79 55.25,0.43 c 18.73,-1.71 38.47,-5.67 55.27,-14.44 7.49,-3.91 18.72,-12.43 19.56,-21.16 1.07,-11.11 -11.15,-17.27 -20.36,-19.42 -19.87,-4.65 -42.3,-2.09 -62,3.59 -2.18,0.63 -5.38,1.24 -7.13,0.58 -2.79,-1.06 -3.9,-4.43 -2.11,-6.89 2.32,-3.21 7.89,-5.62 11.34,-7.15 q 11.53,-5.13 24.47,-6.53 a 0.69,0.69 0 0 0 0.6,-0.56 q 0.21,-1.19 0.29,-3.46 1.56,-42.62 -18.14,-77.16 c -20.72,-36.34 -56.36,-62.17 -97.41,-71.98 -28.95,-6.92 -61.42,-6.38 -90.35,-0.17 -45.67,9.79 -87.92,34.8 -115.48,71.83 q -26.19,35.18 -38.93,80.61 c -9.89,35.29 -14.36,71.53 -13.73,107.83 q 1.01,57.94 21.83,111.54 a 0.4,0.4 0 0 0 0.76,-0.06 c 3.84,-16.97 5.78,-30.04 9.36,-49.29 1.44,-7.77 3.98,-16.87 6.51,-23.06 1.66,-4.1 4.7,-11.27 8.54,-13.36 q 2.04,-1.11 4.61,0.15 5.68,2.8 3.38,9.5 c -5.36,15.68 -8.41,30.6 -11.55,48.69 q -3.87,22.3 -9.8,43.2 c -2.13,7.48 -3.56,14.52 -5.84,23.88 a 0.65,0.65 0 0 0 0.59,0.81 c 7.95,0.57 15.62,-1.26 23.46,-4.29 22.4,-8.64 41.21,-24.59 55.4,-44.07 15.36,-21.09 25.85,-46.59 27.67,-72.27 0.46,-6.41 0.44,-11.66 2.48,-16.72 1.28,-3.16 4.3,-3.49 6.76,-1.43 q 2.3,1.92 3.42,4.38 z m -161.75,-64.57 q 3.43,-34 12.84,-66.73 3.28,-11.4 7.16,-21.52 a 0.67,0.67 0 0 0 -0.86,-0.87 q -34.13,12.42 -55.33,41.64 -12.6,17.38 -17.13,36.39 a 0.91,0.91 0 0 0 1.16,1.08 q 29.53,-9.36 51.67,10.2 a 0.3,0.3 0 0 0 0.49,-0.19 z m 282.46,24.52 c 12.52,14.37 28.44,25.49 47.27,29.01 6.79,1.27 12.9,0.94 18.98,-1.76 a 1.23,1.22 64.1 0 0 0.58,-1.69 q -5.65,-10.73 -16.43,-16.98 c -3.26,-1.89 -5.4,-3.21 -8.58,-3.44 -14.48,-1.08 -28.13,-2.36 -41.48,-5.71 a 0.35,0.35 0 0 0 -0.34,0.57 z m -4.71,117.28 q 25.41,13.6 41,21.35 3.25,1.62 6.55,2.52 a 1.67,1.67 0 0 0 2.05,-1.2 q 0.58,-2.25 0.45,-5.48 c -0.77,-19.04 -11.94,-37.15 -25.97,-49.82 -1.93,-1.75 -6.82,-1.97 -9.34,-1.96 a 3.82,3.8 13.6 0 0 -3.36,2.04 q -7.76,14.85 -11.85,31.49 a 0.95,0.94 21.3 0 0 0.47,1.06 z"
     id="path19" /><path
     fill="#1e869d"
     d="m 512.22494,370.28129 q -14.35,-4.98 -27.04,-5.21 -11.75,-0.21 -20.08,4.12 -11.19,5.81 -21.1,17.91 -17.33,21.16 -25.1,47.76 -1.12,-2.46 -3.42,-4.38 c -2.46,-2.06 -5.48,-1.73 -6.76,1.43 -2.04,5.06 -2.02,10.31 -2.48,16.72 -1.82,25.68 -12.31,51.18 -27.67,72.27 -14.19,19.48 -33,35.43 -55.4,44.07 -7.84,3.03 -15.51,4.86 -23.46,4.29 a 0.65,0.65 0 0 1 -0.59,-0.81 c 2.28,-9.36 3.71,-16.4 5.84,-23.88 q 5.93,-20.9 9.8,-43.2 c 3.14,-18.09 6.19,-33.01 11.55,-48.69 q 2.3,-6.7 -3.38,-9.5 -2.57,-1.26 -4.61,-0.15 c -3.84,2.09 -6.88,9.26 -8.54,13.36 -2.53,6.19 -5.07,15.29 -6.51,23.06 -3.58,19.25 -5.52,32.32 -9.36,49.29 a 0.4,0.4 0 0 1 -0.76,0.06 q -20.82,-53.6 -21.83,-111.54 c -0.63,-36.3 3.84,-72.54 13.73,-107.83 q 12.74,-45.43 38.93,-80.61 c 27.56,-37.03 69.81,-62.04 115.48,-71.83 28.93,-6.21 61.4,-6.75 90.35,0.17 41.05,9.81 76.69,35.64 97.41,71.98 q 19.7,34.54 18.14,77.16 -0.08,2.27 -0.29,3.46 a 0.69,0.69 0 0 1 -0.6,0.56 q -12.94,1.4 -24.47,6.53 c -3.45,1.53 -9.02,3.94 -11.34,7.15 -1.79,2.46 -0.68,5.83 2.11,6.89 1.75,0.66 4.95,0.05 7.13,-0.58 19.7,-5.68 42.13,-8.24 62,-3.59 9.21,2.15 21.43,8.31 20.36,19.42 -0.84,8.73 -12.07,17.25 -19.56,21.16 -16.8,8.77 -36.54,12.73 -55.27,14.44 q -26.02,2.36 -55.25,-0.43 c -14.31,-1.37 -27.1,-4.44 -40.21,-11.85 -3.8,-2.14 -7.17,-3.28 -11.06,-2.25 q -3.14,0.84 -6.69,3.07 z m -49.83,-106.68 q 2.02,-0.29 3.25,-1.4 c 6.85,-6.17 13.87,-11.05 23.37,-11.61 4.29,-0.25 7.77,-0.73 7.97,-6.13 0.24,-6.13 -7.34,-8.15 -12.06,-7.76 q -14.75,1.19 -25.14,12.2 -2.18,2.3 -3.41,5.31 c -1.75,4.33 0.5,10.2 6.02,9.39 z m 27.6588,13.3323 a 35.71,31.77 86.9 0 0 -29.7923,37.3758 35.71,31.77 86.9 0 0 33.6547,33.9396 35.71,31.77 86.9 0 0 29.7923,-37.3758 35.71,31.77 86.9 0 0 -33.6547,-33.9396 z"
     id="path20" /><path
     fill="#0f4458"
     d="m 462.39494,263.60129 c -5.52,0.81 -7.77,-5.06 -6.02,-9.39 q 1.23,-3.01 3.41,-5.31 10.39,-11.01 25.14,-12.2 c 4.72,-0.39 12.3,1.63 12.06,7.76 -0.2,5.4 -3.68,5.88 -7.97,6.13 -9.5,0.56 -16.52,5.44 -23.37,11.61 q -1.23,1.11 -3.25,1.4 z"
     id="path21" /><path
     fill="#0f4458"
     d="m 786.14494,329.52129 c 3.29,24.17 -1.83,50.53 -16.36,70.55 -2.67,3.67 -8.05,4.6 -11.52,1.1 -4.49,-4.52 -0.93,-10.06 1.94,-14.64 10.03,-16.01 13.36,-36.33 10.82,-54.95 -2.54,-18.63 -11.18,-37.32 -25.13,-50.06 -3.99,-3.65 -8.9,-8.03 -5.78,-13.59 2.4,-4.3 7.84,-4.84 11.39,-2.02 19.36,15.4 31.34,39.44 34.64,63.61 z"
     id="path22" /><path
     fill="#0f4458"
     d="m 490.05374,276.93359 a 35.71,31.77 86.9 0 1 33.6547,33.9396 35.71,31.77 86.9 0 1 -29.7923,37.3758 35.71,31.77 86.9 0 1 -33.6547,-33.9396 35.71,31.77 86.9 0 1 29.7923,-37.3758 z m 20.4612,25.2577 a 10.06,10.06 0 0 0 -10.06,-10.06 10.06,10.06 0 0 0 -10.06,10.06 10.06,10.06 0 0 0 10.06,10.06 10.06,10.06 0 0 0 10.06,-10.06 z"
     id="path23" /><path
     fill="#1e869d"
     d="m 257.15494,370.29129 a 0.3,0.3 0 0 1 -0.49,0.19 q -22.14,-19.56 -51.67,-10.2 a 0.91,0.91 0 0 1 -1.16,-1.08 q 4.53,-19.01 17.13,-36.39 21.2,-29.22 55.33,-41.64 a 0.67,0.67 0 0 1 0.86,0.87 q -3.88,10.12 -7.16,21.52 -9.41,32.73 -12.84,66.73 z"
     id="path24" /><path
     fill="#0f4458"
     d="m 750.37494,332.85129 q 3.63,20.61 -5.6,42.47 -1.79,4.23 -4.66,8.29 a 3.56,3.63 87.2 0 1 -0.63,0.68 c -7.17,5.89 -15.48,-2.19 -11.51,-9.5 q 10.8,-19.9 7.39,-39.29 -3.41,-19.39 -20.37,-34.4 c -6.22,-5.52 -1.17,-15.95 7.58,-12.87 a 3.56,3.63 72.8 0 1 0.82,0.43 q 4.08,2.83 7.21,6.2 16.14,17.39 19.77,37.99 z"
     id="path25" /><circle
     fill="#fefdf9"
     cx="500.45493"
     cy="302.19128"
     r="10.06"
     id="circle25" /><path
     fill="#8be2e5"
     d="m 512.22494,370.28129 c -7.12,7.16 -0.06,14.86 5.18,19.76 a 6.01,6.27 3.5 0 1 0.95,1.12 q 3.98,5.94 7.64,10.75 18.33,24.1 45.94,33.78 c 12.73,4.47 27.04,6.34 39.3,0.71 10.81,-4.97 15.1,-16.7 12.07,-28.06 q -1,-3.74 -2.6,-7.6 -0.14,-0.33 -0.02,-0.83 a 0.77,0.76 29.3 0 1 1.3,-0.36 q 10.45,10.7 9.68,25.19 -0.37,6.93 -5.65,14.18 c -15.27,20.98 -49.93,22.68 -72.77,18.74 q -5.46,-0.95 -7.61,-0.28 c -5.3,1.63 -8.17,5.43 -10.82,10.31 -7.45,13.74 -12.05,27.16 -16.08,42.68 q -4.16,15.99 -4.63,28.42 c -0.79,20.45 2.65,39.71 12.66,57.6 15.04,26.89 44.67,42.07 74.93,42.75 q 9.26,0.21 20.33,-1.52 -1.31,1.41 -4.81,2.93 -23.58,10.24 -46.06,12.66 -24.82,2.68 -47.85,-0.93 -26.01,-4.07 -49.41,-18.22 c -36.98,-22.36 -60.82,-62.1 -68.73,-104.01 q -0.89,-4.69 -2.64,-16.31 3.72,-7.95 7.05,-16.06 c 7.79,-19.01 12.78,-42.34 9.33,-62.82 q 7.77,-26.6 25.1,-47.76 9.91,-12.1 21.1,-17.91 8.33,-4.33 20.08,-4.12 12.69,0.23 27.04,5.21 z"
     id="path26" /><path
     fill="#f5a6a2"
     d="m 539.61494,394.81129 a 0.35,0.35 0 0 1 0.34,-0.57 c 13.35,3.35 27,4.63 41.48,5.71 3.18,0.23 5.32,1.55 8.58,3.44 q 10.78,6.25 16.43,16.98 a 1.23,1.22 64.1 0 1 -0.58,1.69 c -6.08,2.7 -12.19,3.03 -18.98,1.76 -18.83,-3.52 -34.75,-14.64 -47.27,-29.01 z"
     id="path27" /><path
     fill="#1e869d"
     d="m 534.90494,512.09129 a 0.95,0.94 21.3 0 1 -0.47,-1.06 q 4.09,-16.64 11.85,-31.49 a 3.82,3.8 13.6 0 1 3.36,-2.04 c 2.52,-0.01 7.41,0.21 9.34,1.96 14.03,12.67 25.2,30.78 25.97,49.82 q 0.13,3.23 -0.45,5.48 a 1.67,1.67 0 0 1 -2.05,1.2 q -3.3,-0.9 -6.55,-2.52 -15.59,-7.75 -41,-21.35 z"
     id="path28" /><path
     fill="#1e869d"
     d="m 402.52494,513.74129 q 1.75,11.62 2.64,16.31 c 7.91,41.91 31.75,81.65 68.73,104.01 q 23.4,14.15 49.41,18.22 23.03,3.61 47.85,0.93 22.48,-2.42 46.06,-12.66 3.5,-1.52 4.81,-2.93 11.5,-1.64 22.62,-5.87 12.79,-4.86 23.04,-13.71 c 4.77,-4.11 5.3,-9.07 4.23,-15.74 -0.91,-5.62 -1.92,-13.27 -2.33,-19.42 q -3.74,-56.83 36.08,-99.12 2.58,-2.74 6.15,-5.33 a 1.58,1.58 0 0 1 2.29,0.49 q 1.95,3.38 3.27,8.18 c 7.09,25.73 7.71,55 -1.91,80.48 -1.99,5.26 -5.87,12.98 -7.64,16.67 q -1.54,3.22 -1.32,5.01 c 0.35,2.79 4.03,5.17 6.68,3.42 q 18.17,-11.97 40.51,-10.91 c 10.99,0.52 22.99,2.59 34.68,1.09 a 0.65,0.65 0 0 1 0.72,0.74 q -0.21,1.51 -0.78,2.8 -5.99,13.48 -16.35,24.94 -9.3,10.31 -23.18,17.09 c -20.29,9.93 -40.18,9.31 -61.27,1.6 -5.9,-2.15 -10.77,-2.39 -15.26,1.34 q -9.55,7.92 -16.62,13.11 -18.07,13.25 -38.75,21.71 -65.48,26.78 -135.77,13.37 c -61.7,-11.78 -117.91,-47.62 -156.28,-97.31 a 0.62,0.61 61.4 0 1 0.28,-0.96 q 15.1,-5.24 27.98,-14.1 c 15.63,-10.76 29.81,-23.77 40.56,-39.19 q 2.24,-3.21 8.87,-14.26 z"
     id="path29" /><path
     style="opacity:1;fill:#007592;fill-opacity:1;stroke:none"
     d="m 740.51757,803.62685 c 0,0 -0.17677,3.18198 -38.89087,3.00521 -38.71409,-0.17678 -356.91215,0.17677 -356.91215,0.17677 0,0 -111.01576,9.19239 -168.29141,-23.68807 C 119.14749,750.24029 347,769.5 347,769.5 l 145.5,25 149,4.5 z"
     id="path8" /><path
     style="opacity:1;fill:#1594ac;fill-opacity:1;stroke:none"
     d="m 113.93258,657.60931 c 0,0 -4.80758,17.51569 -3.43258,34.01569 1.375,16.5 16.625,7.25 16.625,7.25 l 6.875,-28 -11.875,-9.75 -6.32813,-2.63281 c 0,0 -0.75984,-0.27358 -1.86429,-0.88288 z"
     id="path9" /></svg>
