<?xml version="1.0" encoding="UTF-8" standalone="no"?>
<svg
   height="24"
   viewBox="0 0 24 24"
   width="24"
   version="1.1"
   id="svg2"
   xmlns="http://www.w3.org/2000/svg"
   xmlns:svg="http://www.w3.org/2000/svg">
  <defs
     id="defs2" />
  <path
     d="M 0,0 H 24 V 24 H 0 Z"
     fill="none"
     id="path1" />
  <path
     d="M 4,6 H 2 v 14 c 0,1.1 0.9,2 2,2 H 18 V 20 H 4 Z M 20,2 H 8 C 6.9,2 6,2.9 6,4 v 12 c 0,1.1 0.9,2 2,2 h 12 c 1.1,0 2,-0.9 2,-2 V 4 C 22,2.9 21.1,2 20,2 Z m 0,14 H 8 V 4 H 20 Z M 12,5.5 v 9 L 18,10 Z"
     fill="#23d2ee"
     id="path2"
     style="fill:#7dd8e2;fill-opacity:1" />
</svg>
