<?xml version="1.0" standalone="no"?>
<!DOCTYPE svg PUBLIC "-//W3C//DTD SVG 20010904//EN" "http://www.w3.org/TR/2001/REC-SVG-20010904/DTD/svg10.dtd">
<!-- Created using Krita: https://krita.org -->
<svg xmlns="http://www.w3.org/2000/svg" 
    xmlns:xlink="http://www.w3.org/1999/xlink"
    xmlns:krita="http://krita.org/namespaces/svg/krita"
    xmlns:sodipodi="http://sodipodi.sourceforge.net/DTD/sodipodi-0.dtd"
    width="5.76pt"
    height="5.76pt"
    viewBox="0 0 5.76 5.76">
<defs/>
<path id="shape0" transform="matrix(0.24 0 0 0.24 0 0)" fill="none" stroke-opacity="0" stroke="#000000" stroke-width="0" stroke-linecap="square" stroke-linejoin="bevel" d="M0 0L24 0L24 24L0 24Z" sodipodi:nodetypes="ccccc"/><path id="shape1" transform="matrix(0.24 0 0 0.24 0 0)" fill="none" stroke-opacity="0" stroke="#000000" stroke-width="0" stroke-linecap="square" stroke-linejoin="bevel" d="M0 0L24 0L24 24L0 24Z" sodipodi:nodetypes="ccccc"/><path id="shape2" transform="matrix(0.24 0 0 0.24 0.24 1.08)" fill="#22d3ee" stroke-opacity="0" stroke="#000000" stroke-width="0" stroke-linecap="square" stroke-linejoin="bevel" d="M16.5 0C14.55 0 12.45 0.4 11 1.5C9.55 0.4 7.45 0 5.5 0C4.05 0 2.51 0.22 1.22 0.79C0.49 1.12 0 1.83 0 2.64L0 13.92C0 15.22 1.22 16.18 2.48 15.86C3.46 15.61 4.5 15.5 5.5 15.5C7.06 15.5 8.72 15.76 10.06 16.42C10.66 16.72 11.34 16.72 11.93 16.42C13.27 15.75 14.93 15.5 16.49 15.5C17.49 15.5 18.53 15.61 19.51 15.86C20.77 16.19 21.99 15.23 21.99 13.92L21.99 2.64C21.99 1.83 21.5 1.12 20.77 0.79C19.49 0.22 17.95 2.66454e-15 16.5 0ZM20 12.73C20 13.36 19.42 13.82 18.8 13.71C18.05 13.57 17.27 13.51 16.5 13.51C14.8 13.51 12.35 14.16 11 15.01L11 3.5C12.35 2.65 14.8 2 16.5 2C17.42 2 18.33 2.09 19.2 2.28C19.66 2.38 20 2.79 20 3.26Z" sodipodi:nodetypes="ccccccccccccccccccccccccc"/><path id="shape3" transform="matrix(0.24 0 0 0.24 3.17580990955411 2.16237849016746)" fill="#22d3ee" stroke-opacity="0" stroke="#000000" stroke-width="0" stroke-linecap="square" stroke-linejoin="bevel" d="M0.747459 2.00009C0.427459 2.00009 0.137459 1.80009 0.0374587 1.48009C-0.0925413 1.09009 0.127459 0.66009 0.517459 0.54009C2.05746 0.0400896 4.04746 -0.11991 5.87746 0.0900896C6.28746 0.14009 6.58746 0.51009 6.53746 0.92009C6.48746 1.33009 6.11746 1.63009 5.70746 1.58009C4.08746 1.39009 2.31746 1.54009 0.977459 1.97009C0.897459 1.98009 0.817459 2.00009 0.747459 2.00009Z" sodipodi:nodetypes="cccccccc"/><path id="shape4" transform="matrix(0.24 0 0 0.24 3.17580990955411 2.80077849016746)" fill="#22d3ee" stroke-opacity="0" stroke="#000000" stroke-width="0" stroke-linecap="square" stroke-linejoin="bevel" d="M0.747459 2.00009C0.427459 2.00009 0.137459 1.80009 0.0374587 1.48009C-0.0925413 1.09009 0.127459 0.66009 0.517459 0.54009C2.04746 0.0400896 4.04746 -0.11991 5.87746 0.0900896C6.28746 0.14009 6.58746 0.51009 6.53746 0.92009C6.48746 1.33009 6.11746 1.63009 5.70746 1.58009C4.08746 1.39009 2.31746 1.54009 0.977459 1.97009C0.897459 1.99009 0.817459 2.00009 0.747459 2.00009Z" sodipodi:nodetypes="cccccccc"/><path id="shape5" transform="matrix(0.24 0 0 0.24 3.17580990955411 3.43917849016746)" fill="#22d3ee" stroke-opacity="0" stroke="#000000" stroke-width="0" stroke-linecap="square" stroke-linejoin="bevel" d="M0.747459 2.00009C0.427459 2.00009 0.137459 1.80009 0.0374587 1.48009C-0.0925413 1.09009 0.127459 0.66009 0.517459 0.54009C2.04746 0.0400896 4.04746 -0.11991 5.87746 0.0900896C6.28746 0.14009 6.58746 0.51009 6.53746 0.92009C6.48746 1.33009 6.11746 1.62009 5.70746 1.58009C4.08746 1.39009 2.31746 1.54009 0.977459 1.97009C0.897459 1.99009 0.817459 2.00009 0.747459 2.00009Z" sodipodi:nodetypes="cccccccc"/>
</svg>
