<?xml version="1.0" encoding="UTF-8" standalone="no"?>
<!-- Created using Krita: https://krita.org -->

<svg
   width="5.7600002pt"
   height="5.7600002pt"
   viewBox="0 0 5.76 5.76"
   version="1.1"
   id="svg1"
   xmlns="http://www.w3.org/2000/svg"
   xmlns:svg="http://www.w3.org/2000/svg">
  <defs
     id="defs1" />
  <path
     id="shape0"
     fill="none"
     stroke-opacity="0"
     stroke="#000000"
     stroke-width="0"
     stroke-linecap="square"
     stroke-linejoin="bevel"
     d="M 0,0 H 5.76 V 5.76 H 0 Z" />
  <path
     id="shape1"
     fill="none"
     stroke-opacity="0"
     stroke="#000000"
     stroke-width="0"
     stroke-linecap="square"
     stroke-linejoin="bevel"
     d="M 0,0 H 5.76 V 5.76 H 0 Z" />
  <path
     id="shape2"
     fill="#22d3ee"
     stroke-opacity="0"
     stroke="#000000"
     stroke-width="0"
     stroke-linecap="square"
     stroke-linejoin="bevel"
     d="M 4.2,1.08 C 3.732,1.08 3.228,1.176 2.88,1.44 2.532,1.176 2.028,1.08 1.56,1.08 1.212,1.08 0.8424,1.1328 0.5328,1.2696 0.3576,1.3488 0.24,1.5192 0.24,1.7136 v 2.7072 c 0,0.312 0.2928,0.5424 0.5952,0.4656 C 1.0704,4.8264 1.32,4.8 1.56,4.8 c 0.3744,0 0.7728,0.0624 1.0944,0.2208 0.144,0.072 0.3072,0.072 0.4488,0 C 3.4248,4.86 3.8232,4.8 4.1976,4.8 4.4376,4.8 4.6872,4.8264 4.9224,4.8864 5.2248,4.9656 5.5176,4.7352 5.5176,4.4208 V 1.7136 C 5.5176,1.5192 5.4,1.3488 5.2248,1.2696 4.9176,1.1328 4.548,1.08 4.2,1.08 Z M 5.04,4.1352 C 5.04,4.2864 4.9008,4.3968 4.752,4.3704 4.572,4.3368 4.3848,4.3224 4.2,4.3224 c -0.408,0 -0.996,0.156 -1.32,0.36 V 1.92 C 3.204,1.716 3.792,1.56 4.2,1.56 c 0.2208,0 0.4392,0.0216 0.648,0.0672 0.1104,0.024 0.192,0.1224 0.192,0.2352 z"
     style="fill:#7dd8e2;fill-opacity:1" />
  <path
     id="shape3"
     fill="#22d3ee"
     stroke-opacity="0"
     stroke="#000000"
     stroke-width="0"
     stroke-linecap="square"
     stroke-linejoin="bevel"
     d="m 3.3552001,2.6424001 c -0.0768,0 -0.1464,-0.048 -0.1704001,-0.1248 -0.0312,-0.0936 0.0216,-0.1968 0.1152001,-0.2256 C 3.6696003,2.172 4.1472003,2.1336001 4.5864003,2.184 c 0.0984,0.012 0.1704,0.1008001 0.1584,0.1992001 -0.012,0.0984 -0.1008,0.1704 -0.1992,0.1584 -0.3888,-0.0456 -0.8136,-0.0096 -1.1352002,0.0936 -0.0192,0.0024 -0.0384,0.0072 -0.0552,0.0072 z"
     style="fill:#7dd8e2;fill-opacity:1" />
  <path
     id="shape4"
     fill="#22d3ee"
     stroke-opacity="0"
     stroke="#000000"
     stroke-width="0"
     stroke-linecap="square"
     stroke-linejoin="bevel"
     d="m 3.3552001,3.2808001 c -0.0768,0 -0.1464,-0.048 -0.1704001,-0.1248 -0.0312,-0.0936 0.0216,-0.1968 0.1152001,-0.2256 C 3.6672003,2.8104 4.1472003,2.7720001 4.5864003,2.8224 c 0.0984,0.012 0.1704,0.1008001 0.1584,0.1992001 -0.012,0.0984 -0.1008,0.1704 -0.1992,0.1584 -0.3888,-0.0456 -0.8136,-0.0096 -1.1352002,0.0936 -0.0192,0.0048 -0.0384,0.0072 -0.0552,0.0072 z"
     style="fill:#7dd8e2;fill-opacity:1" />
  <path
     id="shape5"
     fill="#22d3ee"
     stroke-opacity="0"
     stroke="#000000"
     stroke-width="0"
     stroke-linecap="square"
     stroke-linejoin="bevel"
     d="m 3.3552001,3.9192001 c -0.0768,0 -0.1464,-0.048 -0.1704001,-0.1248 -0.0312,-0.0936 0.0216,-0.1968 0.1152001,-0.2256 C 3.6672003,3.4488 4.1472003,3.4104001 4.5864003,3.4608 c 0.0984,0.012 0.1704,0.1008001 0.1584,0.1992001 -0.012,0.0984 -0.1008,0.168 -0.1992,0.1584 -0.3888,-0.0456 -0.8136,-0.0096 -1.1352002,0.0936 -0.0192,0.0048 -0.0384,0.0072 -0.0552,0.0072 z"
     style="fill:#7dd8e2;fill-opacity:1" />
</svg>
