<?xml version="1.0" encoding="UTF-8" standalone="no"?>
<!-- Created using Krita: https://krita.org -->

<svg
   width="5.7600002pt"
   height="5.7600002pt"
   viewBox="0 0 5.76 5.76"
   version="1.1"
   id="svg1"
   xmlns="http://www.w3.org/2000/svg"
   xmlns:svg="http://www.w3.org/2000/svg">
  <defs
     id="defs1" />
  <path
     id="shape0"
     fill="none"
     stroke-opacity="0"
     stroke="#000000"
     stroke-width="0"
     stroke-linecap="square"
     stroke-linejoin="bevel"
     d="M 0,0 H 5.76 V 5.76 H 0 Z" />
  <path
     id="shape1"
     fill="#22d3ee"
     stroke-opacity="0"
     stroke="#000000"
     stroke-width="0"
     stroke-linecap="square"
     stroke-linejoin="bevel"
     d="M 1.68,4.32 C 1.416,4.32 1.2024,4.536 1.2024,4.8 1.2024,5.064 1.416,5.28 1.68,5.28 1.944,5.28 2.16,5.064 2.16,4.8 2.16,4.536 1.944,4.32 1.68,4.32 Z M 0.24,0.48 V 0.96 H 0.72 L 1.584,2.7816 1.26,3.3696 C 1.2216,3.4368 1.2,3.516 1.2,3.6 1.2,3.864 1.416,4.08 1.68,4.08 H 4.56 V 3.6 H 1.7808 c -0.0336,0 -0.06,-0.0264 -0.06,-0.06 L 1.728,3.5112 1.944,3.12 h 1.788 c 0.18,0 0.3384,-0.0984 0.42,-0.2472 L 5.0112,1.3152 C 5.0304,1.2816 5.04,1.2408 5.04,1.2 5.04,1.068 4.932,0.96 4.8,0.96 H 1.2504 L 1.0248,0.48 Z M 4.08,4.32 C 3.816,4.32 3.6024,4.536 3.6024,4.8 3.6024,5.064 3.816,5.28 4.08,5.28 4.344,5.28 4.56,5.064 4.56,4.8 4.56,4.536 4.344,4.32 4.08,4.32 Z"
     style="fill:#7dd8e2;fill-opacity:1" />
</svg>
