<?xml version="1.0" encoding="UTF-8" standalone="no"?>
<!-- Uploaded to: SVG Repo, www.svgrepo.com, Transformed by: SVG Repo Mixer Tools -->

<svg
   height="351.93906"
   width="353.70468"
   version="1.1"
   id="Layer_1"
   viewBox="0 0 226.371 225.241"
   xml:space="preserve"
   fill="#000000"
   xmlns="http://www.w3.org/2000/svg"
   xmlns:svg="http://www.w3.org/2000/svg"><defs
   id="defs15"><filter
     style="color-interpolation-filters:sRGB"
     id="filter46"
     x="0"
     y="0"
     width="1"
     height="1"><feColorMatrix
       type="hueRotate"
       values="120"
       result="color1"
       id="feColorMatrix45" /><feColorMatrix
       type="saturate"
       values="0.699088"
       result="fbSourceGraphic"
       id="feColorMatrix46" /><feColorMatrix
       result="fbSourceGraphicAlpha"
       in="fbSourceGraphic"
       values="0 0 0 -1 0 0 0 0 -1 0 0 0 0 -1 0 0 0 0 1 0"
       id="feColorMatrix42" /><feColorMatrix
       id="feColorMatrix43"
       type="hueRotate"
       values="52"
       result="color1"
       in="fbSourceGraphic" /><feColorMatrix
       id="feColorMatrix44"
       type="saturate"
       values="0.981763"
       result="fbSourceGraphic" /><feColorMatrix
       result="fbSourceGraphicAlpha"
       in="fbSourceGraphic"
       values="0 0 0 -1 0 0 0 0 -1 0 0 0 0 -1 0 0 0 0 1 0"
       id="feColorMatrix59" /><feColorMatrix
       id="feColorMatrix60"
       type="hueRotate"
       values="0"
       in="fbSourceGraphic" /><feColorMatrix
       id="feColorMatrix61"
       type="saturate"
       values="1" /><feColorMatrix
       id="feColorMatrix62"
       type="matrix"
       values="2 -1 0 0 0 0 2 -1 0 0 -1 0 2 0 0 0 0 0 1 0 " /></filter><filter
     style="color-interpolation-filters:sRGB"
     id="filter48"
     x="0"
     y="0"
     width="1"
     height="1"><feColorMatrix
       type="hueRotate"
       values="120"
       result="color1"
       id="feColorMatrix47" /><feColorMatrix
       type="saturate"
       values="0.699088"
       result="fbSourceGraphic"
       id="feColorMatrix48" /><feColorMatrix
       result="fbSourceGraphicAlpha"
       in="fbSourceGraphic"
       values="0 0 0 -1 0 0 0 0 -1 0 0 0 0 -1 0 0 0 0 1 0"
       id="feColorMatrix56" /><feColorMatrix
       id="feColorMatrix57"
       type="hueRotate"
       values="52"
       result="color1"
       in="fbSourceGraphic" /><feColorMatrix
       id="feColorMatrix58"
       type="saturate"
       values="0.981763"
       result="fbSourceGraphic" /><feColorMatrix
       result="fbSourceGraphicAlpha"
       in="fbSourceGraphic"
       values="0 0 0 -1 0 0 0 0 -1 0 0 0 0 -1 0 0 0 0 1 0"
       id="feColorMatrix71" /><feColorMatrix
       id="feColorMatrix72"
       type="hueRotate"
       values="0"
       in="fbSourceGraphic" /><feColorMatrix
       id="feColorMatrix73"
       type="saturate"
       values="1" /><feColorMatrix
       id="feColorMatrix74"
       type="matrix"
       values="2 -1 0 0 0 0 2 -1 0 0 -1 0 2 0 0 0 0 0 1 0 " /></filter><filter
     style="color-interpolation-filters:sRGB"
     id="filter51"
     x="0"
     y="0"
     width="1"
     height="1"><feColorMatrix
       type="hueRotate"
       values="120"
       result="color1"
       id="feColorMatrix50" /><feColorMatrix
       type="saturate"
       values="0.699088"
       result="fbSourceGraphic"
       id="feColorMatrix51" /><feColorMatrix
       result="fbSourceGraphicAlpha"
       in="fbSourceGraphic"
       values="0 0 0 -1 0 0 0 0 -1 0 0 0 0 -1 0 0 0 0 1 0"
       id="feColorMatrix39" /><feColorMatrix
       id="feColorMatrix40"
       type="hueRotate"
       values="52"
       result="color1"
       in="fbSourceGraphic" /><feColorMatrix
       id="feColorMatrix41"
       type="saturate"
       values="0.981763"
       result="fbSourceGraphic" /><feColorMatrix
       result="fbSourceGraphicAlpha"
       in="fbSourceGraphic"
       values="0 0 0 -1 0 0 0 0 -1 0 0 0 0 -1 0 0 0 0 1 0"
       id="feColorMatrix67" /><feColorMatrix
       id="feColorMatrix68"
       type="hueRotate"
       values="0"
       in="fbSourceGraphic" /><feColorMatrix
       id="feColorMatrix69"
       type="saturate"
       values="1" /><feColorMatrix
       id="feColorMatrix70"
       type="matrix"
       values="2 -1 0 0 0 0 2 -1 0 0 -1 0 2 0 0 0 0 0 1 0 " /></filter><filter
     style="color-interpolation-filters:sRGB"
     id="filter53"
     x="0"
     y="0"
     width="1"
     height="1"><feColorMatrix
       type="hueRotate"
       values="120"
       result="color1"
       id="feColorMatrix52" /><feColorMatrix
       type="saturate"
       values="0.699088"
       result="fbSourceGraphic"
       id="feColorMatrix53" /><feColorMatrix
       result="fbSourceGraphicAlpha"
       in="fbSourceGraphic"
       values="0 0 0 -1 0 0 0 0 -1 0 0 0 0 -1 0 0 0 0 1 0"
       id="feColorMatrix49" /><feColorMatrix
       id="feColorMatrix54"
       type="hueRotate"
       values="52"
       result="color1"
       in="fbSourceGraphic" /><feColorMatrix
       id="feColorMatrix55"
       type="saturate"
       values="0.981763"
       result="fbSourceGraphic" /><feColorMatrix
       result="fbSourceGraphicAlpha"
       in="fbSourceGraphic"
       values="0 0 0 -1 0 0 0 0 -1 0 0 0 0 -1 0 0 0 0 1 0"
       id="feColorMatrix79" /><feColorMatrix
       id="feColorMatrix80"
       type="hueRotate"
       values="0"
       in="fbSourceGraphic" /><feColorMatrix
       id="feColorMatrix81"
       type="saturate"
       values="1" /><feColorMatrix
       id="feColorMatrix82"
       type="matrix"
       values="2 -1 0 0 0 0 2 -1 0 0 -1 0 2 0 0 0 0 0 1 0 " /></filter><filter
     style="color-interpolation-filters:sRGB"
     id="filter38"
     x="0"
     y="0"
     width="1"
     height="1"><feColorMatrix
       type="hueRotate"
       values="52"
       result="color1"
       id="feColorMatrix37" /><feColorMatrix
       type="saturate"
       values="0.981763"
       result="fbSourceGraphic"
       id="feColorMatrix38" /><feColorMatrix
       result="fbSourceGraphicAlpha"
       in="fbSourceGraphic"
       values="0 0 0 -1 0 0 0 0 -1 0 0 0 0 -1 0 0 0 0 1 0"
       id="feColorMatrix63" /><feColorMatrix
       id="feColorMatrix64"
       type="hueRotate"
       values="0"
       in="fbSourceGraphic" /><feColorMatrix
       id="feColorMatrix65"
       type="saturate"
       values="1" /><feColorMatrix
       id="feColorMatrix66"
       type="matrix"
       values="2 -1 0 0 0 0 2 -1 0 0 -1 0 2 0 0 0 0 0 1 0 "
       result="fbSourceGraphic" /><feColorMatrix
       result="fbSourceGraphicAlpha"
       in="fbSourceGraphic"
       values="0 0 0 -1 0 0 0 0 -1 0 0 0 0 -1 0 0 0 0 1 0"
       id="feColorMatrix75" /><feColorMatrix
       id="feColorMatrix76"
       type="hueRotate"
       values="0"
       in="fbSourceGraphic" /><feColorMatrix
       id="feColorMatrix77"
       type="saturate"
       values="1" /><feColorMatrix
       id="feColorMatrix78"
       type="matrix"
       values="2 -1 0 0 0 0 2 -1 0 0 -1 0 2 0 0 0 0 0 1 0 " /></filter></defs>





<g
   id="SVGRepo_iconCarrier"
   transform="translate(-273.676,-231.181)"> <path
   style="fill:#e28883;filter:url(#filter51)"
   d="m 386.862,456.421 c -3.185,0 -6.369,-1.208 -8.798,-3.625 L 277.321,352.554 c -2.332,-2.322 -3.644,-5.469 -3.644,-8.753 0,-3.283 1.311,-6.431 3.644,-8.753 L 378.065,234.807 c 2.429,-2.417 5.613,-3.626 8.798,-3.626 3.183,0 6.367,1.208 8.796,3.626 l 100.744,100.241 c 2.332,2.322 3.644,5.47 3.644,8.753 0,3.284 -1.311,6.431 -3.644,8.753 L 395.658,452.796 c -2.429,2.417 -5.614,3.625 -8.796,3.625 z"
   id="path1" /> <path
   style="fill:#e8a09c;filter:url(#filter53)"
   d="m 277.321,352.554 100.744,100.242 c 2.239,2.228 5.12,3.416 8.05,3.589 l 10e-4,-111.84 H 273.714 c 0.182,3.012 1.451,5.864 3.607,8.009 z"
   id="path2" /> <path
   style="opacity:0.1;filter:url(#filter38);enable-background:new"
   d="m 311.053,352.554 c -2.332,-2.322 -3.644,-5.469 -3.644,-8.753 0,-3.283 1.311,-6.431 3.644,-8.753 l 92.674,-92.211 -8.07,-8.029 c -2.429,-2.417 -5.613,-3.626 -8.796,-3.626 -3.185,0 -6.369,1.208 -8.798,3.626 L 277.32,335.049 c -2.332,2.322 -3.644,5.47 -3.644,8.753 0,3.284 1.311,6.431 3.644,8.753 l 100.744,100.242 c 2.429,2.417 5.613,3.625 8.798,3.625 3.183,0 6.367,-1.208 8.796,-3.625 l 8.07,-8.029 z"
   id="path3" /> <path
   style="fill:#e8a09c;filter:url(#filter46)"
   d="M 496.402,335.048 395.658,234.806 c -2.322,-2.31 -5.333,-3.503 -8.374,-3.606 v 112.178 h 112.74 c -0.107,-3.127 -1.39,-6.108 -3.622,-8.33 z"
   id="path4" />  <g
   id="g7">   </g>  <g
   id="g9">   </g>  <g
   id="g11">   </g> <path
   style="fill:#f5bfb6;filter:url(#filter48)"
   d="m 386.862,388.544 c -1.592,0 -3.185,-0.604 -4.4,-1.813 l -38.747,-38.554 c -1.166,-1.161 -1.822,-2.736 -1.822,-4.377 0,-1.642 0.656,-3.215 1.822,-4.376 l 38.747,-38.554 c 1.215,-1.208 2.808,-1.812 4.4,-1.812 1.59,0 3.183,0.604 4.398,1.812 l 38.748,38.554 c 1.166,1.161 1.821,2.736 1.821,4.376 0,1.642 -0.655,3.215 -1.821,4.377 l -38.748,38.554 c -1.216,1.209 -2.807,1.813 -4.398,1.813 z"
   id="path12" />      </g>

</svg>
