<?xml version="1.0" standalone="no"?>
<!DOCTYPE svg PUBLIC "-//W3C//DTD SVG 20010904//EN" "http://www.w3.org/TR/2001/REC-SVG-20010904/DTD/svg10.dtd">
<!-- Created using Krita: https://krita.org -->
<svg xmlns="http://www.w3.org/2000/svg" 
    xmlns:xlink="http://www.w3.org/1999/xlink"
    xmlns:krita="http://krita.org/namespaces/svg/krita"
    xmlns:sodipodi="http://sodipodi.sourceforge.net/DTD/sodipodi-0.dtd"
    width="30.72pt"
    height="30.72pt"
    viewBox="0 0 30.72 30.72">
<defs/>
<path id="shape0" transform="matrix(0.240000005364418 0 0 0.240000005364418 0.969588235366355 2.15280004811883)" fill="#2b0cbb" stroke-opacity="0" stroke="#000000" stroke-width="0" stroke-linecap="square" stroke-linejoin="bevel" d="M89.95 1.77636e-15C68.04 1.77636e-15 59.99 22.39 59.99 22.39C59.99 22.39 52.05 0 29.99 0C13.41 0 -5.48995 13.14 1.49005 43.01C8.47005 72.88 60.05 110.09 60.05 110.09C60.05 110.09 111.44 72.88 118.43 43.01C125.41 13.14 107.87 7.10543e-15 89.95 1.77636e-15Z" sodipodi:nodetypes="ccccccc"/><path id="shape1" transform="matrix(0.240000005364418 0 0 0.240000005364418 3.4008000760138 2.15280004811883)" fill="#1e115c" stroke-opacity="0" stroke="#000000" stroke-width="0" stroke-linecap="square" stroke-linejoin="bevel" d="M16.48 2.23C33.68 2.23 42.22 20.72 44.98 28.21C45.37 29.28 46.86 29.31 47.31 28.27L49.83 22.38C46.28 11.04 36.52 0 19.86 0C12.96 0 5.67 2.28 0 7.09C5.01 3.8 10.88 2.23 16.48 2.23Z" sodipodi:nodetypes="ccccccc"/><path id="shape2" transform="matrix(0.240000005364418 0 0 0.240000005364418 15.3816003438056 2.15280004811883)" fill="#1e115c" stroke-opacity="0" stroke="#000000" stroke-width="0" stroke-linecap="square" stroke-linejoin="bevel" d="M29.9 0C24.61 0 19.79 1.15 16.03 3.47C18.67 2.45 21.94 2.23 25.18 2.23C41.39 2.23 55.9 14.52 49.35 42.93C43.73 67.32 10.89 96.91 0.86 108.2C0.22 108.92 0 110.08 0 110.08C0 110.08 51.39 72.87 58.38 43C65.36 13.14 47.85 -1.77636e-15 29.9 0Z" sodipodi:nodetypes="cccccccc"/><path id="shape3" transform="matrix(0.240000005364418 0 0 0.240000005364418 3.20845152386537 4.50232081492965)" fill="#6448e2" stroke-opacity="0" stroke="#000000" stroke-width="0" stroke-linecap="square" stroke-linejoin="bevel" d="M3.67145 6.06033C7.42145 1.38033 14.1215 -2.48967 19.8015 1.97033C22.8715 4.38033 21.5315 9.32033 18.7815 11.4003C14.7815 14.4403 11.3015 16.2703 8.86145 21.0303C7.40145 23.8903 6.52145 27.0203 6.07145 30.2103C5.89145 31.4703 4.24145 31.7803 3.62145 30.6703C-0.598548 23.1903 -1.79855 12.8903 3.67145 6.06033Z" sodipodi:nodetypes="ccccccc"/><path id="shape4" transform="matrix(0.240000005364418 0 0 0.240000005364418 17.911003726865 4.33979184349645)" fill="#6448e2" stroke-opacity="0" stroke="#000000" stroke-width="0" stroke-linecap="square" stroke-linejoin="bevel" d="M2.53082 16.5775C0.77082 16.5775 -0.46918 14.8775 0.17082 13.2375C1.36082 10.2175 2.90082 7.29754 4.75082 4.69754C7.49082 0.857534 12.7008 -1.38246 16.0008 0.947534C19.3808 3.32754 18.9408 8.08754 16.5708 10.3875C11.4808 15.3175 5.06082 16.5775 2.53082 16.5775Z" sodipodi:nodetypes="cccccc"/>
</svg>
